<svg xmlns="http://www.w3.org/2000/svg" viewBox="0 0 411.5 371.46"><defs><style>.cls-1{fill:none;}.cls-2{fill:#ffeac2;}.cls-3{fill:#f59d1e;}.cls-4{fill:#f7d3c0;}.cls-4,.cls-5,.cls-6,.cls-8,.cls-9{fill-rule:evenodd;}.cls-5{fill:#fff5ee;}.cls-6{fill:#f7f2e7;}.cls-7,.cls-8{fill:#010101;}.cls-9{fill:#fff;}</style></defs><g id="Ebene_2" data-name="Ebene 2"><g id="Ebene_2-2" data-name="Ebene 2"><path class="cls-1" d="M51.86,96.71c31.35,61.24,62.83,121.87,95,182.46"/><path class="cls-2" d="M312.31,32.09l2.79,7.67L313.71,97.7l-3,11.08-21.56,8.45H179.52l-27.28-16.81,1.5-64.24s-1.35-5.56,6.82-6.59c0,0,.58-7.31,5.87-5,1.9-.91,3.77-4.11,3.77-4.11l2.65,1,2.69-2.72s4.22-3.28,7.41-.74c2.26-1.62,6-4.28,6-4.28l2.07.73s1.49-5,5.5-4.72a19.55,19.55,0,0,0,7-.69l7.55-2.27L216.47,6l4.42,2.16s8-7,12.85-5.14S238.46,8.32,244,7.66s13.59-1.37,18.13,0,11.57,2.27,12.59,2.66,10,1.14,10,1.14,7.05-.35,9.63,1.23A58.07,58.07,0,0,1,301,18l4.43,2.72s4.38,1.35,5.29,4.35S312.31,32.09,312.31,32.09Z"/><path class="cls-3" d="M315.1,98.09,318,241.74,316.66,264l1.08,2.69s-7.17,14.84-70,18-95.79-9.52-99.87-19.65c.69-9,5.19-165.29,5.19-165.29l8.05-.12,3.5.39,1.75-1.46,1.38,2.63,2.41-.88.61.51a11.43,11.43,0,0,1,6.77-.8c2.19,2,3.6,2,3.6,2l.38.78s-1.25,3.17,3.74,4.45,9.17-1.79,9.66-5.1c.61,1.41,3.22,2.25,3.22,2.25s4.29-.42,5.17-2.67c.54,2.21,4,3.14,4,3.14l2.8,0,1.59-2.7,2.76,1.18,1.54-.92,3.51,2a4.13,4.13,0,0,0,4.63-4.18c4.52-.37,17.26,1.26,17.26,1.26A57.9,57.9,0,0,0,252,101.2c4.08-.71,10.45-2.07,10.45-2.07l5.68.41s4.42,1.55,6,.36a43.13,43.13,0,0,1,6.12,1s10.51-2.36,14-2,4.93.46,4.93.46l3.32-.76,3.73.47,3.31,1.78s1.53.21,2.74-3.06S314,96.23,314,96.23l1.66,1.86"/><path d="M224.54,314.65c-50.18-2.37-78.33-10.63-83.67-24.57-2.81-7.35,1.58-13.66,3.48-15.91-.43-5.53,1.64-11.21,2.3-12.84L151,36.15A9.07,9.07,0,0,1,157.73,28l.39-.1.39,0c.18,0,18.38,1.68,63.51,1.68,6.45,0,13.24,0,20.19-.1,56.87-.38,65.69-1.52,66-1.56l.46-.07.45.11a9.08,9.08,0,0,1,6.72,8.26l4.37,225.09c.65,1.63,2.72,7.31,2.3,12.84,1.89,2.25,6.29,8.56,3.47,15.91-5.34,13.94-33.49,22.2-83.78,24.57H224.54Zm17.7-280.48c-7,.06-13.75.1-20.22.1-41.53,0-60.44-1.41-63.5-1.67a4.42,4.42,0,0,0-2.84,3.73l-4.39,226-.18.43c0,.06-2.79,6.46-2,11.87l.16,1.16-.83.83c-.23.23-5.57,5.67-3.18,11.84,2.62,6.76,16.43,18.56,79.47,21.54h17.4c63.08-3,76.9-14.78,79.52-21.54,2.39-6.17-2.95-11.61-3.17-11.84l-.84-.82.17-1.17c.76-5.38-2-11.81-2-11.87l-.19-.43L311.2,36.42a4.49,4.49,0,0,0-2.82-3.81C305.83,32.87,293.12,33.83,242.24,34.17Z"/><path d="M242.22,325.6c41.93-.83,57.88-8.94,63.89-15.6,3.75-4.15,3.67-7.63,3.61-8.28l-5.81.48v-.12c0,.16-.81,16.48-61.75,17.69H224.65C163.77,318.56,163,302.24,163,302.08v.12l-5.81-.48c-.06.65-.13,4.13,3.61,8.28,6,6.66,22,14.77,63.83,15.6Z"/><path d="M242.26,295c70.05-2.19,78.56-18.8,78.89-19.51l-2.11-1,1,.49-1-.5C300.5,291.88,243.44,294.63,242.26,295Z"/><path d="M242.22,285.53c70.09-2.18,78.6-18.79,78.93-19.5l-2.11-1,1,.49-1-.51c-.08.16-8.84,16.05-76.85,18.17H224.65c-68.59-2.14-76.74-18-76.81-18.15l-2.12,1c.33.71,8.84,17.32,78.9,19.5Z"/><path d="M224.62,295s-65.73-5.55-76.79-20.5l-2.11,1C146.05,276.15,154.56,292.76,224.62,295Z"/><path d="M133.68,221.91c6,0,9.22-4.53,11.73-8,1.69-2.36,3.14-4.39,4.79-4.51l-.34-4.65c-3.82.28-6.07,3.41-8.24,6.44-3.31,4.6-5.62,7.33-11.16,5.49-15.42-5.14-24-27.67-25.37-67s5.83-60.82,21-62c11.39-.93,14.66-.09,17.66,8,3.44,9.26,6.59,11.07,7.48,11.4l1.64-4.37a.94.94,0,0,1,.19.09s-2.2-1.39-4.94-8.75c-4-10.73-9.86-12-22.41-11-8.23.67-14.58,5.82-18.88,15.29-5.06,11.15-7.2,28.5-6.37,51.58,1.51,42,10.86,65.31,28.56,71.21A14.75,14.75,0,0,0,133.68,221.91Z"/><path d="M149,253.36l.3-4.66c-19-1.24-31.6-6.7-45.15-19.47s-16.34-33.36-16.86-69.18c-.46-32.73,3.46-54.08,6.33-69.66C94.37,86.47,95,83.1,95.46,80c.83-5.47,3.19-9.09,7-10.77a12.37,12.37,0,0,1,5.82-1l.24,0,.26,0L153,64.46l-.39-4.65L108.6,63.58c-2.2-.16-15.32-.42-17.75,15.7-.46,3-1.08,6.39-1.79,10.26-2.9,15.78-6.87,37.38-6.4,70.58.53,37.13,3.51,58.54,18.32,72.5C115.22,246,129.14,252.05,149,253.36Z"/><path d="M95.8,109.2s.16-1.14.43-3.19c.16-1,.24-2.29.52-3.74s.57-3.08.91-4.9.86-3.77,1.31-5.89,1.14-4.33,1.73-6.69A15.48,15.48,0,0,1,102,81.55,9,9,0,0,1,104.24,79c1.82-1.51,4.44-2.23,7.1-3a69,69,0,0,1,7.87-1.88c2.6-.36,5.1-.81,7.53-1s4.73-.45,6.9-.62l6.05-.48c3.7-.33,6.69-.6,8.75-.92l3.19-.46-3.22.06c-2.07.09-5.07.05-8.78.06-1.85,0-3.88,0-6.07,0s-4.52.07-7,.23-5.06.43-7.74.73a58.36,58.36,0,0,0-8.2,1.85c-1.39.43-2.75.79-4.09,1.35a21.31,21.31,0,0,0-2,.95,12.1,12.1,0,0,0-1.82,1.27A10.94,10.94,0,0,0,100,80.45a16.15,16.15,0,0,0-1.32,3.81c-.49,2.42-1,4.71-1.36,6.88s-.68,4.18-.87,6-.33,3.54-.46,5-.08,2.76-.12,3.8C95.82,108.05,95.8,109.2,95.8,109.2Z"/><path d="M93.81,137.37s.37-1.44.77-3.78a62,62,0,0,0,.86-9.17c.19-3.55,0-6.79,0-9.12s-.16-3.85-.16-3.85-.48,1.38-1.09,3.7a41.65,41.65,0,0,0-1.28,9.19,79.29,79.29,0,0,0,.39,9.2C93.55,135.89,93.81,137.37,93.81,137.37Z"/><path d="M94.06,145.34a5.14,5.14,0,0,0,.61-.89,4.35,4.35,0,0,0,.58-2.11,5.22,5.22,0,0,0-.47-2,7.7,7.7,0,0,0-.47-1,4.06,4.06,0,0,0-.77.77,3.66,3.66,0,0,0-.8,2.21,4.17,4.17,0,0,0,.67,2.14A5.61,5.61,0,0,0,94.06,145.34Z"/><path d="M94.56,155.81a9.16,9.16,0,0,0,.82-3.91,7.93,7.93,0,0,0-1.32-3.81,6.84,6.84,0,0,0-1.2,3.93,5.92,5.92,0,0,0,.9,2.76A5.71,5.71,0,0,0,94.56,155.81Z"/><path d="M92.56,190.71s.2,1.09.55,3.08.93,4.84,1.87,8.34a53.63,53.63,0,0,0,4.66,11.92c.56,1.08,1.26,2.12,2,3.2a37.92,37.92,0,0,0,2.4,3.1,33.1,33.1,0,0,0,6.1,5.6,28.36,28.36,0,0,0,3.57,2.17c1.18.71,2.41,1.23,3.58,1.82s2.39,1.05,3.56,1.53c.59.23,1.16.49,1.75.68l1.76.56a44,44,0,0,0,12.66,2c3.62.08,6.54-.06,8.55-.16l3.12-.19-3.12-.2c-2-.14-4.91-.31-8.46-.71A48.2,48.2,0,0,1,125,230.7l-1.65-.61c-.56-.21-1.1-.49-1.66-.73-1.11-.51-2.27-1-3.39-1.58s-2.3-1.14-3.41-1.82a31,31,0,0,1-3.34-2.07,34.12,34.12,0,0,1-5.74-5.13c-.87-.9-1.59-1.9-2.35-2.83s-1.39-2-2-3a61.23,61.23,0,0,1-5.3-11.23c-1.23-3.36-2.09-6.14-2.69-8.06Z"/><path d="M97.55,181.23s.08,1.06.23,3a67.3,67.3,0,0,0,1.13,8c.2.84.4,1.72.61,2.64.11.46.22.92.33,1.4s.3.94.45,1.43c.31,1,.63,2,1,3s.83,2,1.28,3.1a45.07,45.07,0,0,0,8.12,12.58,39.71,39.71,0,0,0,12.23,8.7,44.66,44.66,0,0,0,11.66,3.47,53.52,53.52,0,0,0,8.12.56l3,0-2.94-.36a66.52,66.52,0,0,1-7.9-1.41,50.4,50.4,0,0,1-11-4.14,43.39,43.39,0,0,1-11.32-8.51c-6.9-7.46-10.41-16.31-12.38-22.74-.93-3.25-1.62-5.92-2-7.79Z"/><path d="M96.55,170.77a6.12,6.12,0,0,0-.54,1,4.87,4.87,0,0,0-.43,2.27,4.18,4.18,0,0,0,.93,2.2,4.73,4.73,0,0,0,.79.79,6.79,6.79,0,0,0,.44-1,5.12,5.12,0,0,0,.34-2.2,4.61,4.61,0,0,0-.81-2.16A4.56,4.56,0,0,0,96.55,170.77Z"/><path d="M96.8,162a3.88,3.88,0,0,0-1.23,2.55,3.29,3.29,0,0,0,.79,1.79,3.74,3.74,0,0,0,.69.65,7.24,7.24,0,0,0,.56-.81,3.18,3.18,0,0,0,.48-1.73A3.91,3.91,0,0,0,96.8,162Z"/><path d="M140.17,78.79l.72.49c.47.31,1.13.79,1.9,1.41a25.18,25.18,0,0,1,5.1,5.65,22.06,22.06,0,0,1,3,7,19.24,19.24,0,0,1,.41,2.32l.11.87s0-.31.09-.87a14.22,14.22,0,0,0,0-2.41,16.28,16.28,0,0,0-2.56-7.56,17.44,17.44,0,0,0-5.8-5.48A15.25,15.25,0,0,0,141,79.11Z"/><path d="M142.66,77.05s.57.45,1.47,1.09A27.81,27.81,0,0,1,147.28,81c1.11,1.21,2,2.42,2.73,3.32s1.13,1.45,1.13,1.45-.18-.69-.59-1.76a12.5,12.5,0,0,0-2.35-3.86,10.8,10.8,0,0,0-3.75-2.55A18.4,18.4,0,0,0,142.66,77.05Z"/><path d="M145.9,74.31a11.21,11.21,0,0,0,.79.9,26.43,26.43,0,0,0,2,1.89,21.1,21.1,0,0,1,2,1.77c.46.51.69.93.72.92a4.23,4.23,0,0,0-.17-1.22,5.42,5.42,0,0,0-1.7-2.43A9.09,9.09,0,0,0,147,74.69,9.29,9.29,0,0,0,145.9,74.31Z"/><path d="M134.93,78.05a3.93,3.93,0,0,0,1.9,1,3.74,3.74,0,0,0,2.09-.47,4.12,4.12,0,0,0-1.92-.78A4,4,0,0,0,134.93,78.05Z"/><path d="M129.2,78.3a3.52,3.52,0,0,0,4,0,3.47,3.47,0,0,0-4,0Z"/><path d="M125.46,79.29a2.07,2.07,0,0,0,.48.29,1.93,1.93,0,0,0,1.22.12,2,2,0,0,0,1-.68,2.09,2.09,0,0,0,.29-.48,3.07,3.07,0,0,0-.54-.1,3,3,0,0,0-1.07,0,3.12,3.12,0,0,0-1,.47A3.83,3.83,0,0,0,125.46,79.29Z"/><path d="M118,81.54s.35-.06.82-.19,1.1-.26,1.72-.53a18,18,0,0,0,1.68-.66,6.3,6.3,0,0,0,.76-.37,5.28,5.28,0,0,0-.81-.25,3.91,3.91,0,0,0-2,.09,3.72,3.72,0,0,0-1.66,1.2A4.36,4.36,0,0,0,118,81.54Z"/><path d="M109.76,86.52a4.91,4.91,0,0,0,.72-.16,5.66,5.66,0,0,0,1.45-.6,4.75,4.75,0,0,0,1.19-1.1,2.67,2.67,0,0,0,.38-.63s-.33,0-.72.1a4.45,4.45,0,0,0-1.52.56,3.74,3.74,0,0,0-1.17,1.18A3,3,0,0,0,109.76,86.52Z"/><path d="M103.78,93.5a5.61,5.61,0,0,0,.78-.58A9.33,9.33,0,0,0,106,91.29c.5-.66.86-1.3,1.18-1.76l.55-.77-.26.06a3.43,3.43,0,0,0-.69.23,4.81,4.81,0,0,0-1.79,1.5,7,7,0,0,0-1,2A7.1,7.1,0,0,0,103.78,93.5Z"/><path d="M112.24,233.42l1,.76c.66.47,1.59,1.2,2.82,2a60.09,60.09,0,0,0,10.07,5.44,42.76,42.76,0,0,0,11.12,2.81,34.48,34.48,0,0,0,3.47.14H142l-1.25-.2c-.8-.16-2-.24-3.39-.57a69.89,69.89,0,0,1-10.74-3.35c-4.05-1.7-7.64-3.48-10.22-4.82Z"/><path d="M106.15,227.33a7.06,7.06,0,0,0,.43.79,9.49,9.49,0,0,0,1.21,1.61,7.46,7.46,0,0,0,2.42,1.66,7.14,7.14,0,0,0-1.51-2.53,5.58,5.58,0,0,0-1.71-1.21A5.77,5.77,0,0,0,106.15,227.33Z"/><path d="M100.4,220.57a7.87,7.87,0,0,0,.21,1,6.59,6.59,0,0,0,1,2.08,4.53,4.53,0,0,0,1.87,1.48,2.21,2.21,0,0,0,.72.18l.26,0-.18-.2a4.73,4.73,0,0,1-.43-.52c-.35-.43-.72-1.08-1.23-1.73a12.72,12.72,0,0,0-1.47-1.65A6.8,6.8,0,0,0,100.4,220.57Z"/><path d="M305.39,96.53a3.44,3.44,0,0,0-.09.48,4.28,4.28,0,0,0,0,1.38,9.08,9.08,0,0,0,.26.94,5.09,5.09,0,0,0,.56,1A4.26,4.26,0,0,0,308.4,102a3.12,3.12,0,0,0,3.1-.68,3,3,0,0,0,.89-2.18,5.65,5.65,0,0,0-.07-.79,5.36,5.36,0,0,0-.16-.57c-.1-.3-.17-.46-.17-.46l-.22.43-.23.49c-.11.16-.23.35-.36.56a4.65,4.65,0,0,1-.45.53c-.19.12-.34.29-.53.31a1.73,1.73,0,0,1-1.09,0,6.85,6.85,0,0,1-2.66-1.73,10.58,10.58,0,0,1-.77-.93Z"/><path d="M301.11,96.92a2.93,2.93,0,0,0-.11.35,3.83,3.83,0,0,0-.1,1,3.24,3.24,0,0,0,2,2.9,2.43,2.43,0,0,0,2.52-.48,2.19,2.19,0,0,0,.67-1.65,2.61,2.61,0,0,0-.19-1,1.79,1.79,0,0,0-.15-.34,10.31,10.31,0,0,1-.84.91,3.08,3.08,0,0,1-.38.28c-.14,0-.26.12-.36.09s-.18-.1-.4-.16a6.34,6.34,0,0,1-1.74-1.06c-.27-.22-.51-.43-.67-.59Z"/><path d="M296.83,98.48a2.2,2.2,0,0,0,.13,1,2.07,2.07,0,0,0,.74.92,2.2,2.2,0,0,0,1.51.39,3.16,3.16,0,0,0,.79-.23,4,4,0,0,0,.58-.45,2.54,2.54,0,0,0,.54-1,2.64,2.64,0,0,0,0-1s-.46.08-.92.19a7.24,7.24,0,0,1-1.26,0,6.44,6.44,0,0,1-1.17.22C297.29,98.53,296.83,98.48,296.83,98.48Z"/><path d="M222.2,100l3,.3c1.93.17,4.71.39,8.14.87l5.62.68c2,.23,4.19.51,6.5.61l3.55.21a10.67,10.67,0,0,0,1.87,0l2-.13c.65-.07,1.29-.22,1.94-.33l1-.18c-.14,0,.55,0,.86-.09,1.41-.24,2.65-.61,3.91-.93.63-.16,1.25-.32,1.82-.43a5.23,5.23,0,0,1,.73-.08,5,5,0,0,1,.75.08,19.16,19.16,0,0,1,3.33,1.18,15.65,15.65,0,0,0,1.9.65,5.48,5.48,0,0,0,2.24.17,4.07,4.07,0,0,0,2.17-1,9.33,9.33,0,0,0,.74-.81,1.09,1.09,0,0,0,.14-.24c.12-.08,0-.05.79.14.59.08,1.17.2,1.75.24a20,20,0,0,0,3.29,0,49.89,49.89,0,0,0,5.68-.9,38,38,0,0,1,8-1.14,10.73,10.73,0,0,1,2.19.23l.76.15L296.1,99a11,11,0,0,0-2.19-.51,33.52,33.52,0,0,0-8.26.28,54.46,54.46,0,0,1-5.55.43,20.32,20.32,0,0,1-3-.19c-.51-.06-1-.2-1.5-.3l-1-.31-.74-.23-.37-.12c-.07-.05-.11,0-.14.06l-.1.15c-.26.39-.56.87-.79,1.21-.16.14-.3.33-.46.45a1.91,1.91,0,0,1-1,.42,6.57,6.57,0,0,1-2.92-.79,19.32,19.32,0,0,0-3.79-1.39,6.35,6.35,0,0,0-1.18-.14,7.53,7.53,0,0,0-1.2.11c-.71.13-1.36.29-2,.46-1.29.33-2.55.71-3.68.92-.32,0-.27,0-1,.14l-.9.18c-.59.11-1.17.26-1.76.34l-1.74.17a10,10,0,0,1-1.74.09l-3.48,0c-2.26,0-4.43-.12-6.46-.21l-5.66-.22c-3.46-.17-6.28-.06-8.22,0Z"/><path d="M216.37,100.42s-.08.15-.22.47a2.82,2.82,0,0,0-.18,1.51,3.8,3.8,0,0,0,1.1,2.12,4.88,4.88,0,0,0,2.61,1.31,4.39,4.39,0,0,0,3-.58,3.17,3.17,0,0,0,1.43-2.06,6.92,6.92,0,0,0,0-.89,2.64,2.64,0,0,0-.16-.62c-.11-.32-.18-.48-.18-.48l-.21.47a3.12,3.12,0,0,1-.24.49l-.38.54a3.14,3.14,0,0,1-2.86.64,4.91,4.91,0,0,1-2.93-1.4A4.7,4.7,0,0,1,216.37,100.42Z"/><path d="M211.32,100.81a2.08,2.08,0,0,0-.07.36,3.29,3.29,0,0,0,0,1,3.41,3.41,0,0,0,.58,1.45,3.1,3.1,0,0,0,1.79,1.19,2.58,2.58,0,0,0,2.34-.65,2.46,2.46,0,0,0,.72-1.6,2.74,2.74,0,0,0-.31-1.36s-.09.09-.24.27a5.83,5.83,0,0,1-.61.6,1.58,1.58,0,0,1-.79.36,2.2,2.2,0,0,1-.58-.08,5.2,5.2,0,0,1-1.81-.81,6.89,6.89,0,0,1-.72-.52Z"/><path d="M203.16,101.2a3.69,3.69,0,0,0,0,.49,4,4,0,0,0,.23,1.36c.11.27.26.57.43.89a5.22,5.22,0,0,0,.77.89,4.27,4.27,0,0,0,2.53,1.13,4.19,4.19,0,0,0,2.76-.68,3.65,3.65,0,0,0,1.36-1.81,3.52,3.52,0,0,0,.09-1.88,6.76,6.76,0,0,1-1.14,1.19,3.79,3.79,0,0,1-1.28.61,5.23,5.23,0,0,1-1.54.07,6,6,0,0,1-3-1.13,10.41,10.41,0,0,1-.9-.79Z"/><path d="M194.61,100a4.71,4.71,0,0,0,0,.54,4.65,4.65,0,0,0,.19,1.51,5.38,5.38,0,0,0,3.71,3.59,4.32,4.32,0,0,0,3.17-.33,3.34,3.34,0,0,0,1.63-3.61c-.06-.35-.11-.53-.11-.53s-.1.16-.27.46a4.45,4.45,0,0,1-.77,1,2.67,2.67,0,0,1-1.31.68,4.29,4.29,0,0,1-1.7-.15,7.94,7.94,0,0,1-3.27-1.79,10,10,0,0,1-.9-1Z"/><path d="M181.78,100.81a5.21,5.21,0,0,0-.65,3.22,5,5,0,0,0,2,3.33,7.63,7.63,0,0,0,4.44,1.51,8.46,8.46,0,0,0,4.48-1.13,5.81,5.81,0,0,0,2.52-2.86,4.86,4.86,0,0,0,.26-2.46,6.57,6.57,0,0,0-.21-.83,5.75,5.75,0,0,1-1.14,2.67c-1,1.33-3.32,2.17-5.84,2.09a8.13,8.13,0,0,1-3.34-.76,4.18,4.18,0,0,1-1.95-1.9A6.67,6.67,0,0,1,181.78,100.81Z"/><path d="M177.5,99.64a2.82,2.82,0,0,0-.08.33,2.86,2.86,0,0,0-.07.9,2.81,2.81,0,0,0,.47,1.34,2.56,2.56,0,0,0,3.66.59,2.69,2.69,0,0,0,.88-1.14,2.51,2.51,0,0,0,.21-.9c0-.22,0-.34,0-.34a7.06,7.06,0,0,1-1.07.33,3.54,3.54,0,0,1-1.57,0,2.81,2.81,0,0,1-.63-.13,4.21,4.21,0,0,1-.83-.4,7.64,7.64,0,0,1-.67-.45Z"/><path d="M152.24,100.42a7.05,7.05,0,0,1,3.6-.56c1.14.06,2.52.36,4.23.47.42,0,.87,0,1.33,0l.69.34a2.3,2.3,0,0,0,1.15.27,1.7,1.7,0,0,0,.61-.11,2.64,2.64,0,0,0,.52-.17l.18-.09h0v0s0,0,0,0l.19.28a5.57,5.57,0,0,0,.5.59,4.8,4.8,0,0,0,1.29,1,3.51,3.51,0,0,0,1.69.3,2.89,2.89,0,0,0,1.39-.55,3.28,3.28,0,0,0,1.1-1.36,1.59,1.59,0,0,0,.12-.35v0h0l-.73-.13h0v.07h0v-.07h0l.66.09-.66-.09a.74.74,0,0,1-.07.42c-.06.06,0,0,0,0a.75.75,0,0,1,.14.08,2.14,2.14,0,0,1,.44.31c.19.15.39.34.58.51l.27.24.13.12s.09-.08.14-.11l.53-.48a3.33,3.33,0,0,1,.48-.38,2.73,2.73,0,0,1,.62-.35,8.27,8.27,0,0,1,2.32-.48c1.27-.11,1.79-.21,1.79-.21s-.51-.1-1.78-.28a7.29,7.29,0,0,0-2.63,0,3.57,3.57,0,0,0-.88.31,1.41,1.41,0,0,0-.26.13l-.19.11s-.06,0-.09,0l-.08-.1a2.61,2.61,0,0,0-.17-.2,2.12,2.12,0,0,0-.39-.35,2.22,2.22,0,0,0-.32-.21,1.24,1.24,0,0,0-.23-.11,2.29,2.29,0,0,0-.36-.07l-.66.38.66-.38h.06s0,0,0,0,0,0,0,0h0l-.74.42h0a1,1,0,0,0-.21.16,3.24,3.24,0,0,1-.72.55.77.77,0,0,1-.78-.07,2.94,2.94,0,0,1-.57-.49c-.09-.11-.19-.23-.28-.36l-.16-.25c-.13-.2-.21-.4-.31-.59-.43-.85-.8-1.67-.74-1.51l-1.23.79c-.2.14-.4.26-.6.38l-.42.26-.13.07-.05,0s0,0-.16,0l-.31-.12a2.55,2.55,0,0,0-.39-.13l-.5-.14a2,2,0,0,0-.6,0c-.39,0-.77.12-1.16.15-1.53.14-3,.13-4.27.37a9.74,9.74,0,0,0-1.63.45,7.74,7.74,0,0,0-1.11.6Z"/><path d="M245.71,305.05l2.4.09c1.55.05,3.79.12,6.56.1a155.69,155.69,0,0,0,21.62-1.37c2.09-.34,4.14-.64,6.11-1s3.85-.81,5.63-1.24c3.57-1,6.72-1.85,9.37-2.74a31.65,31.65,0,0,0,6.07-2.6,12.31,12.31,0,0,0,1.51-1l.51-.36-.57.27a13.53,13.53,0,0,1-1.62.71,39.15,39.15,0,0,1-6.24,1.74l-9.48,1.87-5.6,1-6,.9c-8.29,1.17-15.85,2-21.34,2.62l-6.51.76Z"/><path d="M263.54,299.59a74.4,74.4,0,0,0,14.23-.39c7.75-1,14-3.19,13.74-3.63.15.46-6.33.18-14.05,1.14A89,89,0,0,0,263.54,299.59Z"/><path d="M266.6,296.7a22,22,0,0,0,8.26-.26,32.53,32.53,0,0,0,5.45-1.86,22.43,22.43,0,0,0,2.2-1.1,22.92,22.92,0,0,0-2.46-.13,24.47,24.47,0,0,0-5.75.64,40.68,40.68,0,0,0-5.45,1.71A22.6,22.6,0,0,0,266.6,296.7Z"/><path d="M231.73,304.89a9,9,0,0,0,1.46.77,9.8,9.8,0,0,0,3.74.83,11.79,11.79,0,0,0,5.24-1.28A12.71,12.71,0,0,0,237,304a15.3,15.3,0,0,0-3.65.44A13,13,0,0,0,231.73,304.89Z"/><path d="M219.67,304.41a6.6,6.6,0,0,0,1.12.78,6.4,6.4,0,0,0,3,.86,6.54,6.54,0,0,0,3-.75,7,7,0,0,0,1.15-.73,8.65,8.65,0,0,0-1.25-.52,9.11,9.11,0,0,0-2.84-.52,9.67,9.67,0,0,0-2.83.41A9.09,9.09,0,0,0,219.67,304.41Z"/><path d="M207.62,303.45a9.17,9.17,0,0,0,1.26.93,8.35,8.35,0,0,0,3.4,1.2,7.73,7.73,0,0,0,3.61-.59,8.49,8.49,0,0,0,1.37-.74,11.5,11.5,0,0,0-1.46-.52,17.3,17.3,0,0,0-3.27-.65,13.7,13.7,0,0,0-3.38.07A9.75,9.75,0,0,0,207.62,303.45Z"/><path d="M155.07,293.16l1.27.81c.83.5,2,1.3,3.55,2.1A60.32,60.32,0,0,0,172.54,301a71.8,71.8,0,0,0,13.4,2c1.73.1,3.14.09,4.11.1h1.5s-2.08-.55-5.43-1.34l-13-3.21c-5-1.33-9.52-2.62-12.79-3.66-1.65-.5-2.94-1-3.87-1.29Z"/><path d="M162.47,291.88s1.18.76,3.16,1.81a51.86,51.86,0,0,0,8,3.46,35.27,35.27,0,0,0,8.64,1.57c2.26.12,3.65.07,3.65.07s-1.31-.58-3.4-1.3-4.92-1.84-8.13-2.74a78.2,78.2,0,0,0-8.35-2.24C163.86,292.05,162.47,291.88,162.47,291.88Z"/><path d="M169.54,290.59a15.89,15.89,0,0,0,5.51,3.15,13.41,13.41,0,0,0,4.46.58,14.77,14.77,0,0,0,1.92-.19,15.38,15.38,0,0,0-1.62-1,21.35,21.35,0,0,0-4-1.76A17.44,17.44,0,0,0,169.54,290.59Z"/><path d="M177.09,285l.86.41c.56.25,1.36.67,2.39,1.05a46.51,46.51,0,0,0,8.3,2.31,80,80,0,0,0,8.52,1c2.19.15,3.55.19,3.55.19s-1.32-.35-3.46-.82-5.11-1-8.39-1.62-6.21-1.18-8.33-1.68Z"/><path d="M184.32,285.45a20.36,20.36,0,0,0,4.75,1.68,19.92,19.92,0,0,0,5.05.08,28.55,28.55,0,0,0-9.8-1.76Z"/><path d="M188.18,284.8a2.5,2.5,0,0,0,1.29.94,2.41,2.41,0,0,0,1.6-.29,2.45,2.45,0,0,0-1.29-.93A2.37,2.37,0,0,0,188.18,284.8Z"/><path d="M252.46,289.79s2,0,5.32,0c1.64,0,3.6-.05,5.77-.14s4.57-.2,7.07-.48c5-.36,9.5-1.49,12.69-1.94a12.76,12.76,0,0,0,3.8-1,5.19,5.19,0,0,0,1.18-.81,5.75,5.75,0,0,1-1.26.63,13.68,13.68,0,0,1-3.78.56c-3.35.16-7.76.95-12.76,1.32-2.48.28-4.85.48-7,.67l-5.73.57C254.48,289.53,252.46,289.79,252.46,289.79Z"/><path d="M262.26,286.41a29.15,29.15,0,0,0,6.42.37,19.4,19.4,0,0,0,4.49-.85c1.12-.36,1.78-.64,1.78-.64s-.74,0-1.89,0-2.74,0-4.47.21A38.18,38.18,0,0,0,262.26,286.41Z"/><path d="M242.33,290.11a9.9,9.9,0,0,0,7.56,0,14.26,14.26,0,0,0-7.56,0Z"/><path d="M233.82,290.11a6.94,6.94,0,0,0,5.78,0,6.94,6.94,0,0,0-5.78,0Z"/><path d="M227.87,290.11a3.85,3.85,0,0,0,2.13.59,3.24,3.24,0,0,0,1.5-.49,3.53,3.53,0,0,0,.55-.42,4.78,4.78,0,0,0-.66-.2,5.29,5.29,0,0,0-1.46-.15A4.63,4.63,0,0,0,227.87,290.11Z"/><path d="M223.05,290.11a2.79,2.79,0,0,0,3.53,0,2.79,2.79,0,0,0-3.53,0Z"/><path d="M218.55,290a2.84,2.84,0,0,0,1.56.71,2.73,2.73,0,0,0,1.65-.55,2.81,2.81,0,0,0-1.56-.71A2.66,2.66,0,0,0,218.55,290Z"/><path d="M300.5,282.72s1.05-.12,2.73-.44a37.08,37.08,0,0,0,6.41-1.82,25.1,25.1,0,0,0,5.83-3.29,18.17,18.17,0,0,0,1.53-1.34c.35-.32.54-.51.54-.51l-2.41,1.32c-1.5.77-3.6,1.7-6,2.65l-6.12,2.39C301.47,282.29,300.5,282.72,300.5,282.72Z"/><path d="M295.36,283.84a3,3,0,0,0,1.78.38,3,3,0,0,0,1.6-.86A3,3,0,0,0,297,283,3,3,0,0,0,295.36,283.84Z"/><path d="M218.7,317.2s1.38.2,3.61.43,5.32.5,8.75.54a51.57,51.57,0,0,0,8.76-.7c1.11-.18,2-.43,2.61-.57l.95-.23-3.62.17c-2.24.08-5.3.08-8.7.07s-6.48,0-8.73.09S218.7,317.2,218.7,317.2Z"/><path d="M209.05,317.2a7,7,0,0,0,1,.36,9.27,9.27,0,0,0,2.54.36,10.82,10.82,0,0,0,2.53-.3c.59-.11,1-.24,1-.24a6.42,6.42,0,0,0-1-.39,11.46,11.46,0,0,0-2.54-.33,13.47,13.47,0,0,0-2.52.28C209.47,317.07,209.05,317.2,209.05,317.2Z"/><path d="M201.36,316a5.34,5.34,0,0,0,2.34,1,5.55,5.55,0,0,0,2.49-.27,5.27,5.27,0,0,0-2.35-1A5.43,5.43,0,0,0,201.36,316Z"/><path d="M184.57,260.11l7.43-.82,4-.45c1.46-.16,3.05-.24,4.75-.39l5.44-.43,3-.22,3.14-.15c4.29-.18,9-.48,14-.49,2.52,0,5.13-.11,7.82-.11l8.29.1c11.33.24,23.8.78,36.83,2,3.28.24,6.45.58,9.58,1.07a50.85,50.85,0,0,1,8.95,2,12.63,12.63,0,0,1,1.93.85,3.2,3.2,0,0,1,1.22,1c.07.07,0,.11.07.17a.38.38,0,0,0,0,.15,1.23,1.23,0,0,0-.09.23,3,3,0,0,0-.19.3,6.21,6.21,0,0,1-1.42,1.21,31,31,0,0,1-7.67,3.36A100.75,100.75,0,0,1,276,272.63c-5,.64-9.67,1-14,1.35-8.57.59-15.53.77-20.33.86l-7.47.07,1.93.1c1.26.07,3.13.14,5.53.22,4.81.15,11.78.28,20.4,0,4.31-.15,9-.39,14.09-.89a97,97,0,0,0,16.06-2.75,31.78,31.78,0,0,0,8.33-3.49,8,8,0,0,0,2-1.68c.15-.21.3-.43.43-.65a5.09,5.09,0,0,0,.31-.83,3.93,3.93,0,0,0,0-1,3.18,3.18,0,0,0-.3-.9,5.31,5.31,0,0,0-2.12-2,15.36,15.36,0,0,0-2.28-1,51.84,51.84,0,0,0-9.4-2.24c-3.19-.52-6.47-.88-9.74-1.12-13.1-1.23-25.65-1.62-37.05-1.63l-8.33.09c-2.7.08-5.32.22-7.85.33-5.06.16-9.77.62-14.06,1l-3.14.26-3,.35-5.44.65c-1.7.22-3.28.37-4.73.6l-4,.64Z"/><path d="M276.39,265.05l-6.11-.59-7.17-.67-4.49-.4-2.45-.21-2.58-.13L242,262.52l-6.45-.27-6.83,0c-4.68,0-9.59-.06-14.69,0l-15.75.55c-2.7.09-5.37.21-8,.44s-5.23.48-7.8.91c-.65.12-1.29.24-1.94.4l-.49.12-.71.22a5,5,0,0,0-1.5.74,1.83,1.83,0,0,0-.72,1.07,1.58,1.58,0,0,0,.3,1.25,3.3,3.3,0,0,0,1.17.93c.26.12.52.25.77.34l.38.14.24.08a34.85,34.85,0,0,0,3.64.94l3.56.57c1.18.21,2.33.29,3.48.41l3.37.32,6.46.37,6,.19,5.55.06c7.08,0,12.8-.12,16.75-.24l6.14-.25-6.14-.14c-4-.12-9.67-.27-16.71-.63l-5.53-.3-6-.4-6.38-.58-3.32-.42c-1.11-.15-2.26-.26-3.38-.49l-3.42-.63a33.44,33.44,0,0,1-3.37-.94l-.2-.07,0,0-.05,0-.06,0s0-.09.05-.09c-.4.09,1.36-.35,2.46-.5,2.45-.38,5-.61,7.6-.81s5.25-.32,7.94-.41l15.69-.65,14.63-.3,6.82-.15,6.43.06,11.54.06,2.58,0,2.45.09,4.49.18,7.19.26Z"/><path d="M280.76,252.42l6.71,1.14c4.13.74,9.83,1.73,15.92,3.29a46.1,46.1,0,0,1,8.28,2.81,13.74,13.74,0,0,1,3.13,1.92,5.83,5.83,0,0,1,1.86,2.4,4.68,4.68,0,0,1,.3,2.52c0,.19-.06.38-.08.56a1.15,1.15,0,0,1-.18.45,4.11,4.11,0,0,1-.47.81,7.22,7.22,0,0,1-.85,1l-.34.33.4-.25a5.17,5.17,0,0,0,1.08-.85,4.38,4.38,0,0,0,.68-.77c.09-.15.28-.3.33-.53l.21-.61a5.54,5.54,0,0,0,.13-3.06,7.09,7.09,0,0,0-1.88-3.27,14,14,0,0,0-3.32-2.56,33.89,33.89,0,0,0-8.65-3.37,74.9,74.9,0,0,0-16.42-2.1C283.37,252.2,280.76,252.42,280.76,252.42Z"/><path d="M175.55,256.44l-1.44-.1c-.92-.07-2.26-.17-3.92-.23a43.86,43.86,0,0,0-13,1.19,13.62,13.62,0,0,0-6.64,3.7,5.94,5.94,0,0,0-1.47,3.29,6.3,6.3,0,0,0,.45,3,4.71,4.71,0,0,0,3.07,2.79,4.33,4.33,0,0,0,1.47.08,5,5,0,0,1-1.33-.45,4.13,4.13,0,0,1-2-2.79,4.57,4.57,0,0,1,1.36-4.45,14.39,14.39,0,0,1,5.79-2.74,113.9,113.9,0,0,1,12.41-2.36c1.63-.25,3-.46,3.87-.63S175.55,256.44,175.55,256.44Z"/><path d="M153.33,279.61a14,14,0,0,0-1-1.24,20.38,20.38,0,0,0-2.57-2.37c-1-.79-2-1.36-2.63-1.95a7.56,7.56,0,0,1-.79-.74L146,273a3.85,3.85,0,0,0-.05.44,3.45,3.45,0,0,0,.07,1.24A5.94,5.94,0,0,0,148.2,278a8.2,8.2,0,0,0,3.51,1.49A8.58,8.58,0,0,0,153.33,279.61Z"/><path d="M280.51,12.57s.55-.09,1.54-.21a28.26,28.26,0,0,1,4.18-.24,17.5,17.5,0,0,1,5.84,1,9.57,9.57,0,0,1,2.82,1.63A9.65,9.65,0,0,1,297,17.57a10.48,10.48,0,0,0,1.23,1.86A7.79,7.79,0,0,0,299.88,21a14.67,14.67,0,0,0,3.6,1.69c2.29.77,4.24,1.3,5.54,2.3a6.17,6.17,0,0,1,2.19,3.24,10.28,10.28,0,0,1,.3,1.1c.06.26.1.4.1.4v-.41a8,8,0,0,0,0-1.17A6.48,6.48,0,0,0,309.87,24c-1.35-1.47-3.51-2.39-5.6-3.34a15.41,15.41,0,0,1-3-1.68,7.27,7.27,0,0,1-2.14-2.65,10.7,10.7,0,0,0-2.73-3.46,10.36,10.36,0,0,0-3.7-1.79,15.83,15.83,0,0,0-6.58-.22A21.68,21.68,0,0,0,282,12C281,12.33,280.51,12.57,280.51,12.57Z"/><path d="M244.75,8.69,246.2,9a17.29,17.29,0,0,0,4.08,0c1.7-.16,3.71-.57,5.79-.74l.79-.06c.26,0,.5,0,.76,0a6.15,6.15,0,0,1,1.52.23,14.42,14.42,0,0,1,3.17,1.31A18.49,18.49,0,0,0,266,11.34a9.43,9.43,0,0,0,1.94.35,16,16,0,0,0,1.76.1l3.15.06c1,0,1.9,0,2.71.09s1.58.09,2.24.17l1.69.26,1.46.2L279.54,12l-1.61-.65c-.64-.23-1.39-.41-2.23-.64a23.6,23.6,0,0,0-2.74-.56c-1-.18-2-.33-3.14-.47-.52-.09-1.16-.11-1.64-.24a8.86,8.86,0,0,1-1.53-.4,21.16,21.16,0,0,1-3.2-1.47,14,14,0,0,0-3.79-1.42,8.48,8.48,0,0,0-2-.16c-.32,0-.65,0-1,0l-.89.15A55.6,55.6,0,0,0,250,7.8a23.28,23.28,0,0,1-3.83.81Z"/><path d="M220.65,8.69a24.53,24.53,0,0,0,3.79-1.33c2.27-.89,5.32-2.54,8.5-2.31.4,0,.79.11,1.17.16s.76.17,1.13.32a6.74,6.74,0,0,1,1.92.94c1.14.82,2.16,2.07,3.43,2.7a4.31,4.31,0,0,0,3.13.28,5.32,5.32,0,0,0,.77-.27l.26-.1h-.28a7.27,7.27,0,0,1-.79,0,4,4,0,0,1-2.4-.94c-.82-.7-1.44-1.95-2.73-3.26a7.77,7.77,0,0,0-2.44-1.58,12,12,0,0,0-1.43-.49,11.52,11.52,0,0,0-1.56-.25,10.55,10.55,0,0,0-5.61,1.3,26.23,26.23,0,0,0-3.69,2.43C221.88,7.78,220.65,8.69,220.65,8.69Z"/><path d="M210.15,8.3l.48-.23.53-.26.69-.28c.24-.1.53-.14.79-.23a4.91,4.91,0,0,1,.85-.09,5.85,5.85,0,0,1,1.84.28,37.75,37.75,0,0,0,4.13,1.1,6.91,6.91,0,0,0,2,.1L220,7.45a10.83,10.83,0,0,0-4-2.39,4.78,4.78,0,0,0-3,.08,4.5,4.5,0,0,0-1.15.63,5,5,0,0,0-.76.76,8.45,8.45,0,0,0-.49.7c-.11.22-.2.42-.26.57C210.21,8.12,210.15,8.3,210.15,8.3Z"/><path d="M201.21,11l.34-.28a8.07,8.07,0,0,1,.84-.68,4.47,4.47,0,0,1,1.18-.58A7.21,7.21,0,0,1,205,9.17c1.07-.15,2.31-.27,3.24-.46a9.06,9.06,0,0,0,1.55-.41,10.06,10.06,0,0,0-1.36-.83,6.34,6.34,0,0,0-3.8-.79,4.1,4.1,0,0,0-2.21,1,3.66,3.66,0,0,0-1.05,1.65A4.47,4.47,0,0,0,201.21,11Z"/><path d="M192.27,13.74l.38-.25a9.34,9.34,0,0,1,.95-.59,19.65,19.65,0,0,1,2.91-1.26,7,7,0,0,1,2.85-.57,3.42,3.42,0,0,1,1,.2l.42.14a2.93,2.93,0,0,0-.91-1.48,3.7,3.7,0,0,0-1.82-.87,4.71,4.71,0,0,0-2.42.21,5.28,5.28,0,0,0-3,2.81,4,4,0,0,0-.33,1.21A3.68,3.68,0,0,0,192.27,13.74Z"/><path d="M183.33,18l.33-.32c.18-.2.49-.46.82-.75a11.65,11.65,0,0,1,2.63-1.61,8.52,8.52,0,0,1,2.85-.86,5,5,0,0,1,1.09,0l.45,0s-.08-.14-.25-.38a3.1,3.1,0,0,0-.94-.87,4.46,4.46,0,0,0-4.26-.21,4.82,4.82,0,0,0-2.66,3.25,4,4,0,0,0-.1,1.26C183.31,17.86,183.33,18,183.33,18Z"/><path d="M173.62,21.9l.32-.41c.18-.26.49-.62.83-1a8.84,8.84,0,0,1,2.91-2.17,7.49,7.49,0,0,1,1.77-.54,7.58,7.58,0,0,1,1.7-.06,7.69,7.69,0,0,1,1.29.21L183,18l-.29-.44a4.49,4.49,0,0,0-1-1,5,5,0,0,0-7.16,1.33,5.4,5.4,0,0,0-.84,2.06,5.93,5.93,0,0,0-.07,1.45C173.59,21.72,173.62,21.9,173.62,21.9Z"/><path d="M167.4,24.62l.93-.91a14.73,14.73,0,0,1,1.83-1.47,3.58,3.58,0,0,1,1.81-.76,5.12,5.12,0,0,1,.88,0l.38,0a3.45,3.45,0,0,0-.15-.35,2.66,2.66,0,0,0-.64-.85,2.83,2.83,0,0,0-1.57-.69,3.14,3.14,0,0,0-2.12.54,3.76,3.76,0,0,0-1.59,3.09,4,4,0,0,0,.13,1A2.81,2.81,0,0,0,167.4,24.62Z"/><path d="M160.4,30.06l.16-.47a7.87,7.87,0,0,1,.44-1.17,10.25,10.25,0,0,1,2-2.86c.91-.84,1.73-1.42,2.55-1.26A3.76,3.76,0,0,1,167,25s0-.17-.09-.5a1.64,1.64,0,0,0-.2-.59,2.19,2.19,0,0,0-.53-.71,2.83,2.83,0,0,0-1-.61,3.52,3.52,0,0,0-1.35-.11,4.59,4.59,0,0,0-2.59,1.28,5.35,5.35,0,0,0-1.49,4.51,4.06,4.06,0,0,0,.42,1.34A4.14,4.14,0,0,0,160.4,30.06Z"/><path d="M286.34,24.62a5.47,5.47,0,0,1,1.4-1.52c.94-.62,2.23-.36,3.85.41a17.91,17.91,0,0,1,4,2.56,5.8,5.8,0,0,1,1,1.13,3.54,3.54,0,0,1,.26.53,2,2,0,0,0,.12-.62,4.41,4.41,0,0,0-.33-1.73,8,8,0,0,0-3.95-4.14,5.85,5.85,0,0,0-3.38-.58,3.46,3.46,0,0,0-2.49,1.61A3.78,3.78,0,0,0,286.34,24.62Z"/><path d="M288.28,15.68s.53.35,1.2.75a12.65,12.65,0,0,1,2,1.69,8.89,8.89,0,0,1,1.39,2.08c.25.72.49,1.31.49,1.31a5,5,0,0,0,.77-1.31,7,7,0,0,0,.15-.79,2.18,2.18,0,0,0,0-.95,3.52,3.52,0,0,0-.29-1.05,6.66,6.66,0,0,0-.64-1,4.23,4.23,0,0,0-3.6-1.23A5.15,5.15,0,0,0,288.28,15.68Z"/><path d="M279.34,17.63a11,11,0,0,0,1,.67,15.1,15.1,0,0,0,2.08,1.12c.71.33,1.42.52,2.05.8l1.07.52a2.55,2.55,0,0,0,0-.35,3.3,3.3,0,0,0-.1-.95,3.7,3.7,0,0,0-2-2.32,4.12,4.12,0,0,0-3-.07A4.86,4.86,0,0,0,279.34,17.63Z"/><path d="M272.35,13.74s.56.37,1.43.82,2.06,1,3.13,1.49a4.63,4.63,0,0,1,2.23,1.7,8.29,8.29,0,0,1,.59,1.43,3.53,3.53,0,0,0,.65-1.64,3.42,3.42,0,0,0-.47-2.08A4.52,4.52,0,0,0,278,13.78a6.83,6.83,0,0,0-4-.46A7.53,7.53,0,0,0,272.35,13.74Z"/><path d="M264.18,21.13l.52.12c.33.07.79.21,1.32.37a15.57,15.57,0,0,1,3.59,1.62,4.53,4.53,0,0,1,2.12,2.66,13.28,13.28,0,0,1,.23,1.83s.12-.14.33-.42A4.12,4.12,0,0,0,273,26a4.06,4.06,0,0,0-.08-2.45A4.75,4.75,0,0,0,271,21.13a6.46,6.46,0,0,0-4.93-.77,5.88,5.88,0,0,0-1.4.5A4.8,4.8,0,0,0,264.18,21.13Z"/><path d="M262.24,24.62s.25-.06.71-.2a5.47,5.47,0,0,0,1.87-1,5.07,5.07,0,0,0,1.72-2.89,6.49,6.49,0,0,0-.66-4.08,8.42,8.42,0,0,0-5.5-4.24,6.38,6.38,0,0,0-2.07-.15c-.48.05-.73.1-.73.1l.67.29a9.09,9.09,0,0,1,1.64.92,12.1,12.1,0,0,1,3.75,4.23,6.84,6.84,0,0,1,.78,2.7,4.58,4.58,0,0,1-.55,2.3c-.19.31-.4.58-.58.85a4.93,4.93,0,0,1-.55.61Z"/><path d="M248.64,22.29a4,4,0,0,0,1.6-.31,3.4,3.4,0,0,0,1.49-1.26,3.34,3.34,0,0,0,.44-2.59,3.6,3.6,0,0,0-1.39-2.07,4.15,4.15,0,0,0-1.69-.76,4.3,4.3,0,0,0-1.19-.06,3.83,3.83,0,0,0-.43,0l.29.32c.2.18.44.47.72.79a6.1,6.1,0,0,1,1.24,2.32,3,3,0,0,1,.07,1.12,3.73,3.73,0,0,1-.37,1.19,8.33,8.33,0,0,1-.55.9Z"/><path d="M244.75,11l.21.28a7,7,0,0,1,.52.67,6.49,6.49,0,0,1,.91,1.68,5.86,5.86,0,0,1,.48,1.76,1.66,1.66,0,0,1-.18,1.05.8.8,0,0,0,.37,0A1.86,1.86,0,0,0,248,16a3,3,0,0,0,.75-3.28,3,3,0,0,0-2.7-1.89,3.1,3.1,0,0,0-.95.09Z"/><path d="M224.54,23.46l.4-.48a12.06,12.06,0,0,1,1.11-1.16A17.39,17.39,0,0,1,230,19.06a9.92,9.92,0,0,1,2.28-.83,4.83,4.83,0,0,1,2,.06,8.21,8.21,0,0,1,1.95.89s-.08-.2-.25-.57a4.2,4.2,0,0,0-1.1-1.43,4.81,4.81,0,0,0-2.63-1.07,6.56,6.56,0,0,0-3.36.7A8.14,8.14,0,0,0,225,21.14a6,6,0,0,0-.41,1.69C224.54,23.24,224.54,23.46,224.54,23.46Z"/><path d="M215.21,25.4l.32-.38c.11-.11.21-.26.36-.41l.5-.45a6.08,6.08,0,0,1,3.11-1.1,23.38,23.38,0,0,1,3.7-.19,10.51,10.51,0,0,1,1.24.11l.48.09s-.08-.15-.27-.43a5.2,5.2,0,0,0-1-1,6.44,6.44,0,0,0-4.46-1.11,4.94,4.94,0,0,0-2.53,1.07,4.11,4.11,0,0,0-.83.9,5.87,5.87,0,0,0-.47.94,3.81,3.81,0,0,0-.17,1.42A4.93,4.93,0,0,0,215.21,25.4Z"/><path d="M206.66,21.51l.36-.78a4.32,4.32,0,0,1,.49-.85,5.33,5.33,0,0,1,.74-1,14.26,14.26,0,0,1,2.33-2.2,21.87,21.87,0,0,1,3.31-1.95,16.76,16.76,0,0,1,3.61-1.13,10.16,10.16,0,0,1,1.63-.08c.25,0,.51,0,.75,0l.69.14a9,9,0,0,1,2.8,1.24s-.17-.27-.49-.74a3.21,3.21,0,0,0-.69-.8,5.16,5.16,0,0,0-1.14-.87l-.75-.41c-.28-.12-.57-.19-.88-.29a9.06,9.06,0,0,0-2-.34,11.11,11.11,0,0,0-4.54,1,12.4,12.4,0,0,0-3.7,2.67,10.28,10.28,0,0,0-2,3.14,6.38,6.38,0,0,0-.4,1.36,3.77,3.77,0,0,0-.12,1C206.65,21.2,206.66,21.51,206.66,21.51Z"/><path d="M198.49,21.51l.35-.22a4.52,4.52,0,0,1,.84-.46,6.41,6.41,0,0,1,2.49-.24c1,0,2.15,0,3-.06a12.76,12.76,0,0,0,1.47-.18,7,7,0,0,0-1.1-1,5.76,5.76,0,0,0-3.34-1.26,4.11,4.11,0,0,0-2.16.54A3.25,3.25,0,0,0,198.78,20,3.15,3.15,0,0,0,198.49,21.51Z"/><path d="M188.78,26.18s.37-.48,1-1a7.46,7.46,0,0,1,1-.77,8.6,8.6,0,0,1,1.1-.54,4.72,4.72,0,0,1,2.29-.38,3.19,3.19,0,0,1,.91.22l.37.16a2.44,2.44,0,0,0-.62-1.45,3.46,3.46,0,0,0-3.87-.89A3.79,3.79,0,0,0,189.12,23a3.89,3.89,0,0,0-.54,1.68,3.3,3.3,0,0,0,.09,1.13C188.73,26,188.78,26.18,188.78,26.18Z"/><path d="M180.61,27l.37-.22c.22-.14.56-.3.93-.48a8.24,8.24,0,0,1,2.73-.51,28.34,28.34,0,0,1,3-.05c.87,0,1.5.09,1.5.09a4.26,4.26,0,0,0-1-1.25,5.18,5.18,0,0,0-3.68-1.3A4.19,4.19,0,0,0,181,25.37a3.36,3.36,0,0,0-.36,1.16C180.62,26.81,180.61,27,180.61,27Z"/><path d="M194.61,18.4,195,18c.19-.23.5-.54.86-.89a7.44,7.44,0,0,1,2.86-1.73,16.36,16.36,0,0,1,3.51-.72l1.75-.18a6,6,0,0,0-1.51-1,5.84,5.84,0,0,0-4.57-.43,4.73,4.73,0,0,0-2.23,1.58,4.82,4.82,0,0,0-.91,1.92,4.58,4.58,0,0,0-.13,1.37C194.59,18.23,194.61,18.4,194.61,18.4Z"/><path d="M210.15,28.51a2.82,2.82,0,0,0,.83-1.25,3.79,3.79,0,0,0-.83-3.57,4.37,4.37,0,0,0-3.22-1.47,2,2,0,0,0-1.44.46s.15.06.34.16a4.92,4.92,0,0,1,.69.58c.54.51,1.13,1.24,1.74,1.93a9.9,9.9,0,0,1,1.46,1.93,4.47,4.47,0,0,1,.32.86Z"/><path d="M241.64,29.29a4.61,4.61,0,0,0,.22-.44,6.35,6.35,0,0,0,.42-1.28,5.84,5.84,0,0,0-.81-4.49,4,4,0,0,0-2.39-1.67,3.4,3.4,0,0,0-2.29.36,3.85,3.85,0,0,0-1.07.91l-.3.39A10.44,10.44,0,0,1,237.1,23a2.86,2.86,0,0,1,1.3.43,4.49,4.49,0,0,1,1,1.09A17.08,17.08,0,0,1,241,27.66Z"/><path d="M301.5,89.54a5.1,5.1,0,0,0-.1.58,4.46,4.46,0,0,0,.07,1.67,6,6,0,0,0,3.79,4.13,4.75,4.75,0,0,0,3.42,0,3.3,3.3,0,0,0,1.9-2.15,3.44,3.44,0,0,0,0-1.71c-.08-.38-.14-.57-.14-.57l-.25.53a4.07,4.07,0,0,1-.73,1.19,2.24,2.24,0,0,1-1.4.68,4.61,4.61,0,0,1-2-.34,8.52,8.52,0,0,1-3.49-2.3,7.09,7.09,0,0,1-.83-1.19Z"/><path d="M305.39,155.62s-.15-6.12-.39-16-.12-23.52-.1-38.6-.28-28.76-.77-38.64c-.22-5-.56-8.94-.75-11.7s-.33-4.29-.33-4.29-.07,6.12-.18,16-.46,23.53-.49,38.62.58,28.78,1.36,38.66c.36,4.93.88,8.92,1.16,11.67S305.39,155.62,305.39,155.62Z"/><path d="M300.33,144.73s.12-4.62.12-12.1-.62-17.81-1.19-29.14c-.14-2.83-.27-5.6-.4-8.27s-.08-5.26-.15-7.72c-.12-4.94-.22-9.39-.52-13.13-.15-1.87-.21-3.56-.42-5s-.35-2.75-.49-3.79l-.45-3.21s0,1.15.06,3.25c0,1,.05,2.31.09,3.79s0,3.17-.05,5c0,3.72-.22,8.16-.34,13.09,0,2.48-.19,5.07-.14,7.77s.2,5.48.3,8.34c.58,11.42,1.69,21.67,2.44,29.1S300.33,144.73,300.33,144.73Z"/><path d="M293.34,103.53a64.72,64.72,0,0,0,1.35-12.64,47.23,47.23,0,0,0-.89-9c-.45-2.28-.85-3.66-.85-3.66s-.23,1.45-.4,3.74-.43,5.43-.37,8.89A64.44,64.44,0,0,0,293.34,103.53Z"/><path d="M303.44,184.77s.21-1.4.37-3.63.39-5.27.31-8.61c.09-3.35-.2-6.4-.3-8.63s-.38-3.62-.38-3.62-.41,1.34-.88,3.54a44.38,44.38,0,0,0-1,8.7,43.82,43.82,0,0,0,.95,8.71C303,183.43,303.44,184.77,303.44,184.77Z"/><path d="M304.22,196.43a8.41,8.41,0,0,0,.73-1.3,8.27,8.27,0,0,0-.34-8,10.06,10.06,0,0,0-1.31,4.63,9.43,9.43,0,0,0,.39,3.27A10.63,10.63,0,0,0,304.22,196.43Z"/><path d="M304.61,213.53a16.93,16.93,0,0,0,0-12.82,16.93,16.93,0,0,0,0,12.82Z"/><path d="M201.6,41.34s6.39.25,16.72.47c5.16.12,11.31.2,18.14.24s14.34-.06,22.23-.29,15.39-.81,22.21-1.29c3.41-.26,6.66-.53,9.64-.82s5.84-.41,8.43-.66A48.65,48.65,0,0,0,311,36.64a17.29,17.29,0,0,0,1.79-.73,10.84,10.84,0,0,0,1.27-.62l1-.56L314,35.2a13.24,13.24,0,0,1-1.31.5,16.05,16.05,0,0,1-1.82.56,52,52,0,0,1-12,1.48l-8.44.19-9.7.42c-6.81.25-14.27.79-22.15.9s-15.34.54-22.17.68-13,.42-18.12.62C208,41,201.6,41.34,201.6,41.34Z"/><path d="M186.83,40.56a11.59,11.59,0,0,0,4.94,1.76,11,11,0,0,0,3.67-.43,10.16,10.16,0,0,0,1.5-.55,10.62,10.62,0,0,0-1.47-.71,11.79,11.79,0,0,0-3.49-.82A11.54,11.54,0,0,0,186.83,40.56Z"/><path d="M177.11,39.78a4.84,4.84,0,0,0,.86.87,4.57,4.57,0,0,0,2.5,1.06,5.15,5.15,0,0,0,2.6-.53,5.91,5.91,0,0,0,1-.62,7.29,7.29,0,0,0-3.42-1.36,7.84,7.84,0,0,0-2.42.23A8.05,8.05,0,0,0,177.11,39.78Z"/><path d="M214.43,46.39l2.59.06c1.67,0,4.08,0,7,.1,6,.12,14.14.39,23.23.37a204.12,204.12,0,0,0,23.28-1.33c3-.34,5.34-.82,7-1.08l2.55-.45-9.63.27c-5.94.1-14.13,0-23.2.07s-17.31.38-23.26.89c-3,.24-5.38.58-7,.77Z"/><path d="M237,50.67a53.71,53.71,0,0,0,11.49,1.11,54,54,0,0,0,11.45-1.11,47.36,47.36,0,0,0-22.94,0Z"/><path d="M240.08,57.27a8.56,8.56,0,0,0,8.94,0,8.62,8.62,0,0,0-8.94,0Z"/><path d="M240.47,62.72a5.51,5.51,0,0,0,1.06.55,5.93,5.93,0,0,0,2.61.45,6.32,6.32,0,0,0,3.33-1.78,6.3,6.3,0,0,0-3.64-.72,5.54,5.54,0,0,0-2.35.8A6.89,6.89,0,0,0,240.47,62.72Z"/><path d="M239.31,72a9.18,9.18,0,0,0,1.3.37,11.21,11.21,0,0,0,2.8.26,10,10,0,0,0,2.8-.51,9.29,9.29,0,0,0,1.26-.5,6.91,6.91,0,0,0-1.14-.76,6.26,6.26,0,0,0-3-.74,5.86,5.86,0,0,0-3,1A6.33,6.33,0,0,0,239.31,72Z"/><path d="M218.32,243.46s3.49.3,9.12.59,13.41.72,22,.7c3.71,0,7.27-.11,10.51-.22,1.62,0,3.16-.17,4.6-.31l4-.39c4.89-.51,7.87-1,7.66-1.08l0-.13a4.8,4.8,0,0,1-2.29.51c-.6,0-1,0-1.31,0H272l.64,0c.29,0,.7.07,1.31.09a4.72,4.72,0,0,0,2.35-.46l0-.12c.18-.14-2.84-.29-7.73-.31h-4c-1.44,0-3,.05-4.59,0-3.23-.07-6.77-.1-10.46-.07-8.59,0-16.38.15-22,.55S218.32,243.46,218.32,243.46Z"/><path d="M219.87,237.24l2.07.37c1.34.19,3.27.6,5.69.82a138.39,138.39,0,0,0,18.9.55c7.36-.26,14-.74,18.79-1,2.4-.15,4.35-.17,5.7-.25l2.1-.11-2.08-.28c-1.34-.15-3.29-.45-5.71-.62a174.53,174.53,0,0,0-18.88-.26c-7.35.25-14,.6-18.77.71Z"/><path d="M236.59,231.8s1.62.4,4.29.86a65.13,65.13,0,0,0,10.47.89,88.58,88.58,0,0,0,14.78-1.36A88.9,88.9,0,0,0,251.35,231c-4.06-.06-7.74.26-10.41.37S236.59,231.8,236.59,231.8Z"/><path d="M241.25,223.25a21.43,21.43,0,0,0,2.36.77,26.69,26.69,0,0,0,5.75.92,38,38,0,0,0,5.77-.16,23.84,23.84,0,0,0,2.45-.36,21.19,21.19,0,0,0-2.32-.9,23,23,0,0,0-5.77-1.09,30,30,0,0,0-5.81.33A23.52,23.52,0,0,0,241.25,223.25Z"/><path d="M246.3,216.64a5.32,5.32,0,0,0,.94.63,5.92,5.92,0,0,0,2.12.75,9,9,0,0,0,2.08-.11,6.27,6.27,0,0,1,.76-.07l.32,0a1.61,1.61,0,0,0-.1-.3,2.86,2.86,0,0,0-.45-.74,3.58,3.58,0,0,0-2.3-1.25,4.13,4.13,0,0,0-2.42.5A5.53,5.53,0,0,0,246.3,216.64Z"/><path d="M245.14,212.37a7.57,7.57,0,0,0,.94.67,5.59,5.59,0,0,0,4.54.82,7.46,7.46,0,0,0,1.13-.33,5.22,5.22,0,0,0-.78-.88,4.6,4.6,0,0,0-2.26-1.19,4.49,4.49,0,0,0-2.55.32A5,5,0,0,0,245.14,212.37Z"/><path d="M249.8,206.53a6.61,6.61,0,0,0,.48.69,1.77,1.77,0,0,0,1.06.75,2,2,0,0,0,1.42-.47,2.66,2.66,0,0,0,.54-.58,7.19,7.19,0,0,0-.48-.68,1.77,1.77,0,0,0-1.06-.75,2,2,0,0,0-1.42.47A2.76,2.76,0,0,0,249.8,206.53Z"/><path d="M171.28,142.4l2.48.62c1.6.36,3.9,1,6.8,1.52a138.43,138.43,0,0,0,22.89,2.27,196,196,0,0,0,22.93-1.23c5.84-.66,9.43-1.24,9.43-1.24s-3.64-.05-9.5,0-13.94.06-22.83,0-16.92-.55-22.75-1Z"/><path d="M176.73,149.79s2.4.3,6.26.6,9.19.71,15.08.83a135,135,0,0,0,15.15-.39c3.88-.33,6.26-.66,6.26-.66s-2.4-.3-6.26-.6-9.19-.75-15.08-.86a131.89,131.89,0,0,0-15.16.42C179.11,149.46,176.73,149.79,176.73,149.79Z"/><path d="M183,155.23a32.89,32.89,0,0,0,3.42,1.15,38.08,38.08,0,0,0,8.57,1.46,28.33,28.33,0,0,0,8.7-.93,8,8,0,0,0,1.45-.47c.42-.17.77-.32,1.07-.43l.88-.39h-1l-1.13,0a10.26,10.26,0,0,1-1.47,0c-2.18,0-5.14-.21-8.42-.33s-6.3-.2-8.51-.19S183,155.23,183,155.23Z"/><path d="M186.83,161.45a17.67,17.67,0,0,0,2,.65,18.2,18.2,0,0,0,4.87.64,12.73,12.73,0,0,0,4.87-1.11,13.53,13.53,0,0,0,1.87-1,19.49,19.49,0,0,0-2.08-.27,46,46,0,0,0-4.73-.17,21.88,21.88,0,0,0-4.79.61A16,16,0,0,0,186.83,161.45Z"/><path d="M187.22,166.5a11.65,11.65,0,0,0,10.49-1.17,11.75,11.75,0,0,0-10.49,1.17Z"/><path d="M187.22,170.78a6.76,6.76,0,0,0,7.77-1.17,7.38,7.38,0,0,0-4.06-.66A7.54,7.54,0,0,0,187.22,170.78Z"/><path d="M187.22,176.22a7.16,7.16,0,0,0,1.06.51,5,5,0,0,0,2.36.35,5.3,5.3,0,0,0,2.31-.9,5.73,5.73,0,0,0,.88-.74,6.64,6.64,0,0,0-1.06-.51,5,5,0,0,0-2.36-.35,5.57,5.57,0,0,0-3.19,1.64Z"/><path d="M139.61,223.12a33.46,33.46,0,0,0,9.94-8.28,33.46,33.46,0,0,0-9.94,8.28Z"/><path d="M142.29,222.87a7.75,7.75,0,0,0,1.06-.15,8.1,8.1,0,0,0,2.38-.85,5.78,5.78,0,0,0,1.92-1.73,3.25,3.25,0,0,0,.39-.7l.11-.27-.92.51c-.55.3-1.31.63-2.12,1.1a14.77,14.77,0,0,0-2,1.37A9,9,0,0,0,142.29,222.87Z"/><path d="M144.32,226.05a7.3,7.3,0,0,0,3-1.05,6.09,6.09,0,0,0,1.62-1.57,5.26,5.26,0,0,0,.49-.82,9.45,9.45,0,0,0-.89.33,12,12,0,0,0-1.9,1A9.32,9.32,0,0,0,144.32,226.05Z"/><path d="M160.5,223.35s-.08-3.86-.22-10.1c-.09-3.12-.19-6.84-.37-11s-.45-8.63-.75-13.38c-.12-2.37-.36-4.69-.41-6.92s-.06-4.38-.06-6.44c0-4.12,0-7.85-.14-11a63.24,63.24,0,0,0-.76-7.37l-.5-2.66s.11,1,.3,2.69a73.4,73.4,0,0,1,.33,7.35c0,3.12-.14,6.81-.29,10.94-.06,2.06-.12,4.23-.08,6.49s.23,4.57.36,6.95c.3,4.75.62,9.28.94,13.39s.58,7.81.8,10.92C160.18,219.5,160.5,223.35,160.5,223.35Z"/><path d="M162.25,203.81s.09-1.64.13-4.28.12-6.29,0-10.31a101.29,101.29,0,0,0-.73-10.31c-.33-2.63-.59-4.25-.59-4.25s-.05,1.65,0,4.29,0,6.28.1,10.3.32,7.67.61,10.31S162.25,203.81,162.25,203.81Z"/><path d="M165.75,198a66,66,0,0,0,.48-9,64.63,64.63,0,0,0-.78-9A66.29,66.29,0,0,0,165,189,65.06,65.06,0,0,0,165.75,198Z"/><path d="M169,198.57s.18-.93.36-2.43.42-3.57.49-5.87a32.06,32.06,0,0,0-.39-5.91c-.25-1.5-.46-2.41-.46-2.41s-.1,1-.17,2.45-.23,3.56-.24,5.84a50,50,0,0,0,.15,5.89C168.81,197.64,169,198.57,169,198.57Z"/><path d="M194,93.62s.76-9.53.92-21.27-.33-21.3-.33-21.3-.76,9.53-.93,21.27S194,93.62,194,93.62Z"/><path d="M190.82,86s.76-6.38.92-14.28-.34-14.29-.34-14.29-.76,6.39-.92,14.27S190.82,86,190.82,86Z"/><path d="M187.61,79s.25-.94.56-2.48a44.24,44.24,0,0,0,.8-6.08,30.81,30.81,0,0,0-.33-6.13c-.24-1.56-.45-2.51-.45-2.51s-.1,1-.18,2.54-.25,3.69-.3,6-.14,4.51-.16,6.08S187.61,79,187.61,79Z"/><path d="M185.57,76.13a29.81,29.81,0,0,0,1-5.93,29.43,29.43,0,0,0-.08-6,28.91,28.91,0,0,0-1.18,5.92A28.92,28.92,0,0,0,185.57,76.13Z"/><path d="M162,130.93s0-.74-.11-2.09-.25-3.27-.29-5.67c-.14-4.8-.07-11.42,0-18.75s-.07-14-.47-18.81c-.17-2.4-.5-4.33-.65-5.66s-.27-2.07-.27-2.07,0,.74.08,2.08.2,3.29.21,5.69c.09,4.8-.05,11.42-.16,18.75a182.9,182.9,0,0,0,.59,18.81c.2,2.4.55,4.32.72,5.66Z"/><path d="M165.16,122.77s.09-1.21.22-3.17.49-4.62.66-7.62a30.15,30.15,0,0,0-.5-7.72,16.5,16.5,0,0,0-.68-2.26l-.28-.8s0,.3.09.85.23,1.32.24,2.29c.12,2,0,4.61-.12,7.58a61.92,61.92,0,0,0,0,7.68c.05,1,.21,1.78.28,2.33S165.16,122.77,165.16,122.77Z"/><path d="M168.66,121a35.21,35.21,0,0,0,.92-6.52,34.84,34.84,0,0,0-.34-6.6,35.21,35.21,0,0,0-.92,6.52A34.75,34.75,0,0,0,168.66,121Z"/><path d="M172.74,119.85s.16-.4.35-1a11.3,11.3,0,0,0,.49-2.56,6.8,6.8,0,0,0-.34-2.66,3.91,3.91,0,0,0-.34-.75l-.16-.26s-.05.42-.12,1.09-.24,1.52-.3,2.51a11.46,11.46,0,0,0,.14,2.6A7.27,7.27,0,0,0,172.74,119.85Z"/><path d="M271,198s.1-3.64.28-9.52.32-14,.06-23c-.1-4.5-.24-8.77-.38-12.66s-.11-7.38-.2-10.33a68.48,68.48,0,0,0-.55-7c-.25-1.63-.38-2.53-.38-2.53s.06.91.18,2.55.1,4,.12,6.95-.18,6.44-.23,10.35.08,8.17.18,12.65c.22,9,.42,17.11.57,23S271,198,271,198Z"/><path d="M266.9,180.2s.15-2.1.39-5.5.54-8.1.65-13.3a112.31,112.31,0,0,0-.54-13.33c-.17-1.7-.42-3.07-.55-4s-.24-1.47-.24-1.47l.16,5.51c.05,3.41,0,8.09-.09,13.28s-.11,9.89,0,13.3S266.9,180.2,266.9,180.2Z"/><path d="M264.28,167.67a48.12,48.12,0,0,0,1.1-8.14,29.79,29.79,0,0,0-.35-5.82c-.25-1.48-.46-2.37-.46-2.37s-.1.93-.17,2.41-.24,3.5-.27,5.73A59.73,59.73,0,0,0,264.28,167.67Z"/><path d="M259.62,163.29a16.08,16.08,0,0,0,1.13-5.06,18.44,18.44,0,0,0-.55-5.14,25.2,25.2,0,0,0-.7,5.09c-.1,1.39,0,2.66,0,3.59S259.62,163.29,259.62,163.29Z"/><path d="M256.12,161.54a10.48,10.48,0,0,0,.59-3.52,10.31,10.31,0,0,0-.88-3.47,11.91,11.91,0,0,0,.29,7Z"/><path d="M251.75,161.25a6,6,0,0,0,.37-.91,8.14,8.14,0,0,0,.47-2.3,8.81,8.81,0,0,0-.84-3.2,8.73,8.73,0,0,0-.42,3.21,9.22,9.22,0,0,0,.17,2.23A6.57,6.57,0,0,0,251.75,161.25Z"/><path d="M245.91,162.42a7.66,7.66,0,0,0,1-3.16,6.16,6.16,0,0,0-.32-2.34,7.12,7.12,0,0,0-.38-.92,9.42,9.42,0,0,0-.25,1,16.52,16.52,0,0,0-.31,2.21A10.82,10.82,0,0,0,245.91,162.42Z"/><path d="M280.42,10.4l1.69.27c1.07.17,2.64.39,4.47.76a21,21,0,0,1,5.81,2,7.66,7.66,0,0,1,2.28,1.9l.23.27.27.41.56.83c.4.59.82,1.2,1.32,1.84A11.7,11.7,0,0,0,301,22a15.28,15.28,0,0,0,2.15.94l1.64.6a12.07,12.07,0,0,1,4.82,3.28,5.21,5.21,0,0,1,.75,1,5.75,5.75,0,0,1,.61,1,16.46,16.46,0,0,1,.8,1.73l.55,1.6s.1-.58.22-1.71a10.79,10.79,0,0,0-.76-4.86,12.52,12.52,0,0,0-5-5.73l-1.89-1.07c-.48-.31-1.06-.55-1.48-.88a9.28,9.28,0,0,1-2.4-2.3l-1.25-1.66-.68-.88-.35-.44c-.14-.16-.32-.33-.48-.49A10.58,10.58,0,0,0,294,9.47a14.6,14.6,0,0,0-4-.7,19.77,19.77,0,0,0-3.36.15,28.93,28.93,0,0,0-4.62,1C281,10.19,280.42,10.4,280.42,10.4Z"/><path d="M240.86,7s.63.29,1.86.77a15.56,15.56,0,0,0,5.55.65c2.35-.1,5-.62,7.64-.59a11.28,11.28,0,0,1,3.74.7c1.27.44,2.65,1.15,4.22,1.89l1.18.53,1.35.53a22,22,0,0,0,2.64.7,32.35,32.35,0,0,0,4.87.58,42,42,0,0,0,4.35,0,14.83,14.83,0,0,0,4-.85,48.33,48.33,0,0,1,5-1.62,6.45,6.45,0,0,1,1.4-.15l.5,0-.45-.26a5.92,5.92,0,0,0-1.46-.43,27.9,27.9,0,0,0-5.46-.07,15.11,15.11,0,0,1-3.31-.1c-1.25-.23-2.62-.47-4-.78s-2.84-.62-4.26-1.05c-.72-.2-1.39-.45-2.07-.7l-1-.42L266,5.86a29.39,29.39,0,0,0-5-1.95,13.61,13.61,0,0,0-5.43-.32,45.5,45.5,0,0,0-7.78,2.35,18.91,18.91,0,0,1-5,1Z"/><path d="M217.68,7.43l.33.18a3.4,3.4,0,0,0,1,.43,9,9,0,0,0,4.17,0,48.32,48.32,0,0,0,5.57-1.62,19.94,19.94,0,0,1,5.74-1.32,6.74,6.74,0,0,1,1.21.07c.19,0,.36.12.55.16l.43.12c.1,0,.18,0,.45.34s.6.9,1.07,1.45a6.93,6.93,0,0,0,3.38,2.19,10.21,10.21,0,0,0,1.58.31,5.05,5.05,0,0,0,1.73,0,7,7,0,0,0,2.31-1.05c.56-.38,1-.72,1.38-1s.66-.48.86-.61l.31-.21h-.37a9.18,9.18,0,0,0-1.09.09l-1.66.24a6.08,6.08,0,0,1-1.9,0,.66.66,0,0,1-.34-.13,1.58,1.58,0,0,1-.16-.07L244,6.82a9.19,9.19,0,0,1-1-.59,3.73,3.73,0,0,1-1.31-1.51c-.15-.31-.3-.71-.62-1.35a5.45,5.45,0,0,0-1.87-2.11A6.22,6.22,0,0,0,238,.69a9,9,0,0,0-1.13-.41A9.56,9.56,0,0,0,234.47,0a12.14,12.14,0,0,0-4.24.88A23.71,23.71,0,0,0,227,2.51c-1.9,1.15-3.41,2.29-4.7,3.14a10.73,10.73,0,0,1-3.23,1.61,3.26,3.26,0,0,1-1,.14Z"/><path d="M209.65,7.66s.21,0,.58,0a8.86,8.86,0,0,0,1.51-.28l1.89-.48a6.22,6.22,0,0,1,1.59-.09,17.52,17.52,0,0,1,3.63.51c.58.13,1.1.24,1.46.3s.58.08.58.08-.07-.2-.22-.54A9.14,9.14,0,0,0,220,5.75a5.35,5.35,0,0,0-.66-.86,4.9,4.9,0,0,0-1-.87,4.67,4.67,0,0,0-1.35-.7A4.6,4.6,0,0,0,215.31,3a6.85,6.85,0,0,0-.91,0q-.45.11-.87.24a5.27,5.27,0,0,0-1.41.78,7,7,0,0,0-1.49,1.77c-.33.54-.56,1-.73,1.31Z"/><path d="M191,12.69a5.15,5.15,0,0,0,1-.31,12.26,12.26,0,0,0,2.41-1.61,1.51,1.51,0,0,1,1.15-.34,5.06,5.06,0,0,1,1.39.47,9,9,0,0,0,.76.55,3.18,3.18,0,0,0,.41.25,5.22,5.22,0,0,0,.54.24,3.56,3.56,0,0,0,1.17.21,3.38,3.38,0,0,0,2.25-.8,3.08,3.08,0,0,0,.76-1c.19-.34.33-1,.32-.85s0,0,0,0l.05-.06c.1-.1.21-.22.31-.34a.92.92,0,0,1,.28-.28c.09-.06.17-.17.25-.22a2.06,2.06,0,0,1,1.26-.26c.64,0,1.36.16,2.12.24a6.63,6.63,0,0,0,1.21.05,4.72,4.72,0,0,0,1.13-.22,6.23,6.23,0,0,0,2.57-1.74,8,8,0,0,0,.68-.82l-1,.32a6.67,6.67,0,0,1-2.52.37,3.22,3.22,0,0,1-.7-.14,7.17,7.17,0,0,1-.74-.32A16.42,16.42,0,0,0,206,5.17a5,5,0,0,0-3.48.16,6,6,0,0,0-.81.48,3.37,3.37,0,0,0-.7.56l-.6.61-.17.18c-.06.08-.12.19-.18.28a3.19,3.19,0,0,0-.29.54c-.21.51-.14.35-.15.39h0a.1.1,0,0,1,0,.07s0,0,0,0h0l-.13,0a11.64,11.64,0,0,0-1.34-.56,6,6,0,0,0-2.94,0,3.53,3.53,0,0,0-1.3.69,4.85,4.85,0,0,0-.76.9,25,25,0,0,1-1.39,2.42,4,4,0,0,1-.49.57Z"/><path d="M171.71,27a5,5,0,0,1,1.42-.55c.8-.21,1.8-.32,2.69-.63s1.55-.78,2.25-1a1.63,1.63,0,0,1,.52-.09,1.11,1.11,0,0,1,.46,0l.46.09a2.18,2.18,0,0,0-.64-1.74,3.6,3.6,0,0,0-1.87-1,4.55,4.55,0,0,0-5.29,3.09,3,3,0,0,0-.12,1.33A2.8,2.8,0,0,0,171.71,27Z"/><path d="M208.21,197.65a5.73,5.73,0,0,0-1.19-.3,4.26,4.26,0,0,0-3.29.86,5.72,5.72,0,0,0-1.9,4.77,5.58,5.58,0,0,0,1,3,4.72,4.72,0,0,0,3,1.85,6,6,0,0,0,3.41-.37,4.57,4.57,0,0,0,2.38-2.19,5.71,5.71,0,0,0-.27-5.14,5.31,5.31,0,0,0-2.51-2.3,5.06,5.06,0,0,0-.86-.29l-.31-.08.29.13a4.18,4.18,0,0,1,.79.42,5.31,5.31,0,0,1,1.93,6.77,4.36,4.36,0,0,1-4.61,1.81,4.07,4.07,0,0,1-3.19-3.71,5.2,5.2,0,0,1,1.27-4.21,4,4,0,0,1,2.86-1.13A6.92,6.92,0,0,1,208.21,197.65Z"/><path d="M209.57,201l-.32,0a1,1,0,0,0-.81.41,1.92,1.92,0,0,0-.31,1.34,1.66,1.66,0,0,0,1,1.43,1.25,1.25,0,0,0,1.6-.78,2.28,2.28,0,0,0-.07-1.37,2.33,2.33,0,0,0-.44-.76c-.14-.16-.24-.21-.23-.22a2.31,2.31,0,0,1,.36,1.06,2,2,0,0,1-.12,1.1.7.7,0,0,1-.9.37,1.24,1.24,0,0,1-.71-.92,1.79,1.79,0,0,1,.06-1.09.87.87,0,0,1,.55-.48Z"/><path d="M207,200.26a.83.83,0,0,0,.23.42,1.08,1.08,0,0,0,1.17.25.89.89,0,0,0,.54-.55.75.75,0,0,0-.07-.59,1,1,0,0,0-.34-.34,2.28,2.28,0,0,1,0,.42.54.54,0,0,1-.4.48,1.51,1.51,0,0,1-.78.07A1.54,1.54,0,0,1,207,200.26Z"/><path d="M205.33,205.58l-.52-.43a3.42,3.42,0,0,1-.75-1.27c-.17-.58-.33-1.11-.46-1.52s-.25-.65-.25-.65,0,.27-.06.69a5,5,0,0,0,.18,1.69,2.27,2.27,0,0,0,1.16,1.32A4.14,4.14,0,0,0,205.33,205.58Z"/><path d="M205.42,204.59s-.25-.59-.46-1.15c-.07-.32-.23-.58-.28-.81a2.94,2.94,0,0,0-.16-.38,1.83,1.83,0,0,0-.15,1.4A1.6,1.6,0,0,0,205.42,204.59Z"/><path d="M206.32,204.05a4.77,4.77,0,0,0-.3-.89,8.32,8.32,0,0,0-.42-.82,1.08,1.08,0,0,0-.15,1.07A1.19,1.19,0,0,0,206.32,204.05Z"/><path d="M207,203.33a1.66,1.66,0,0,0,0-.64,1.39,1.39,0,0,0-.38-.53.86.86,0,0,0-.15.19.65.65,0,0,0-.07.51A.75.75,0,0,0,207,203.33Z"/><path d="M206.23,199.09a.92.92,0,0,0,.56,0c.21-.12.25-.51.25-.51a.7.7,0,0,0-.59,0A.66.66,0,0,0,206.23,199.09Z"/><path d="M205.69,198.91a3.39,3.39,0,0,0,.43-.07,3.64,3.64,0,0,0,.2-.38.39.39,0,1,0-.63.45Z"/><path d="M204.88,199.18a2,2,0,0,0,.51-.37,1.38,1.38,0,0,0,.21-.62.76.76,0,0,0-.71.23A.7.7,0,0,0,204.88,199.18Z"/><path d="M169.87,258.47a5.73,5.73,0,0,0-1.19-.3,4.26,4.26,0,0,0-3.29.86,5.76,5.76,0,0,0-1.91,4.77,5.68,5.68,0,0,0,1.05,3,4.67,4.67,0,0,0,3,1.84,5.88,5.88,0,0,0,3.41-.36,4.64,4.64,0,0,0,2.38-2.19A5.71,5.71,0,0,0,173,261a5.31,5.31,0,0,0-2.51-2.3,5.06,5.06,0,0,0-.86-.29l-.31-.08.29.13a4.18,4.18,0,0,1,.79.42,5.31,5.31,0,0,1,1.93,6.77,4.37,4.37,0,0,1-4.61,1.81,4.07,4.07,0,0,1-3.19-3.71,5.15,5.15,0,0,1,1.27-4.21,4,4,0,0,1,2.86-1.14A7.43,7.43,0,0,1,169.87,258.47Z"/><path d="M171.22,261.8l-.31-.05a1,1,0,0,0-.81.41,1.87,1.87,0,0,0-.31,1.34,1.66,1.66,0,0,0,1,1.43,1.23,1.23,0,0,0,1.59-.78,2.21,2.21,0,0,0-.06-1.37,2.53,2.53,0,0,0-.44-.76,1.73,1.73,0,0,0-.24-.22,2.24,2.24,0,0,1,.37,1.06,2.11,2.11,0,0,1-.12,1.1.7.7,0,0,1-.9.37,1.24,1.24,0,0,1-.71-.92,1.72,1.72,0,0,1,.06-1.09.87.87,0,0,1,.55-.48Z"/><path d="M168.7,261.08a.85.85,0,0,0,.22.42,1.11,1.11,0,0,0,1.18.25.85.85,0,0,0,.53-.55.71.71,0,0,0-.06-.59,1.06,1.06,0,0,0-.34-.34,1.88,1.88,0,0,1,0,.42.52.52,0,0,1-.39.48,1.4,1.4,0,0,1-.78.06A1.35,1.35,0,0,1,168.7,261.08Z"/><path d="M167,266.4l-.53-.43a3.55,3.55,0,0,1-.74-1.27c-.18-.58-.33-1.11-.46-1.52a6.63,6.63,0,0,0-.26-.66s0,.27-.05.7a4.85,4.85,0,0,0,.17,1.68,2.31,2.31,0,0,0,1.17,1.33A4.14,4.14,0,0,0,167,266.4Z"/><path d="M167.08,265.41s-.26-.59-.46-1.16c-.07-.31-.23-.57-.28-.8a2.94,2.94,0,0,0-.16-.38,1.8,1.8,0,0,0-.16,1.4A1.61,1.61,0,0,0,167.08,265.41Z"/><path d="M168,264.87a4.77,4.77,0,0,0-.3-.89,8.32,8.32,0,0,0-.42-.82,1.08,1.08,0,0,0-.15,1.07A1.19,1.19,0,0,0,168,264.87Z"/><path d="M168.61,264.15a1.66,1.66,0,0,0,0-.64,1.39,1.39,0,0,0-.38-.53.62.62,0,0,0-.15.19.65.65,0,0,0-.07.51A.74.74,0,0,0,168.61,264.15Z"/><path d="M167.89,259.91a.92.92,0,0,0,.56,0c.21-.12.25-.51.25-.51a.72.72,0,0,0-.6,0A.64.64,0,0,0,167.89,259.91Z"/><path d="M167.35,259.73s.35,0,.42-.07.18-.37.21-.38a.39.39,0,1,0-.63.45Z"/><path d="M166.54,260a2.25,2.25,0,0,0,.51-.37,1.38,1.38,0,0,0,.21-.62.76.76,0,0,0-.71.23A.7.7,0,0,0,166.54,260Z"/><path d="M167.37,232.52a5.73,5.73,0,0,0-1.19-.3,4.18,4.18,0,0,0-3.29.86,5.72,5.72,0,0,0-1.9,4.77,5.58,5.58,0,0,0,1,3,4.67,4.67,0,0,0,3,1.84,5.88,5.88,0,0,0,3.41-.36,4.61,4.61,0,0,0,2.38-2.19,5.71,5.71,0,0,0-.27-5.14,5.31,5.31,0,0,0-2.51-2.3,3.73,3.73,0,0,0-.86-.29l-.31-.08.29.13a4.66,4.66,0,0,1,.79.41,5.33,5.33,0,0,1,1.93,6.78,4.37,4.37,0,0,1-4.61,1.81,4.07,4.07,0,0,1-3.19-3.72,5.14,5.14,0,0,1,1.27-4.2,4,4,0,0,1,2.86-1.14A7.43,7.43,0,0,1,167.37,232.52Z"/><path d="M168.72,235.85a2.38,2.38,0,0,0-.31-.06,1,1,0,0,0-.81.42,1.91,1.91,0,0,0-.31,1.34,1.67,1.67,0,0,0,1,1.43,1.25,1.25,0,0,0,1.6-.78,2.28,2.28,0,0,0-.07-1.37,2.23,2.23,0,0,0-.44-.76c-.14-.16-.24-.21-.23-.22a2.31,2.31,0,0,1,.36,1.06,2,2,0,0,1-.12,1.1.7.7,0,0,1-.9.37,1.24,1.24,0,0,1-.71-.92,1.78,1.78,0,0,1,.06-1.09.87.87,0,0,1,.55-.48Z"/><path d="M166.2,235.13a.89.89,0,0,0,.22.42,1.12,1.12,0,0,0,1.18.25.85.85,0,0,0,.53-.55.71.71,0,0,0-.06-.59,1,1,0,0,0-.34-.34,1.8,1.8,0,0,1,0,.42.52.52,0,0,1-.39.48,1.4,1.4,0,0,1-.78.06A1.35,1.35,0,0,1,166.2,235.13Z"/><path d="M164.49,240.45,164,240a3.42,3.42,0,0,1-.75-1.27c-.17-.58-.33-1.12-.46-1.53s-.25-.65-.25-.65,0,.27-.06.7a4.85,4.85,0,0,0,.17,1.68,2.31,2.31,0,0,0,1.17,1.33A4.14,4.14,0,0,0,164.49,240.45Z"/><path d="M164.58,239.46s-.25-.59-.46-1.16c-.07-.31-.23-.57-.28-.81a4,4,0,0,0-.16-.38,1.88,1.88,0,0,0-.16,1.4A1.64,1.64,0,0,0,164.58,239.46Z"/><path d="M165.48,238.92a4.77,4.77,0,0,0-.3-.89,9.07,9.07,0,0,0-.42-.83,1.11,1.11,0,0,0-.15,1.08A1.23,1.23,0,0,0,165.48,238.92Z"/><path d="M166.11,238.2a1.72,1.72,0,0,0,0-.65,1.49,1.49,0,0,0-.38-.53.77.77,0,0,0-.15.2.65.65,0,0,0-.07.51A.74.74,0,0,0,166.11,238.2Z"/><path d="M165.39,234a.87.87,0,0,0,.56,0c.21-.11.25-.5.25-.5a.7.7,0,0,0-.59,0A.66.66,0,0,0,165.39,234Z"/><path d="M164.85,233.78s.35,0,.42-.07.18-.37.21-.38a.39.39,0,1,0-.63.45Z"/><path d="M164,234.05a2.25,2.25,0,0,0,.51-.37,1.38,1.38,0,0,0,.21-.62.76.76,0,0,0-.71.23A.7.7,0,0,0,164,234.05Z"/><path d="M209.57,238.38a6,6,0,0,0-1.19-.3,4.17,4.17,0,0,0-3.29.86,6,6,0,0,0-.86,7.78,4.67,4.67,0,0,0,3,1.84,5.88,5.88,0,0,0,3.41-.36A4.64,4.64,0,0,0,213,246a5.68,5.68,0,0,0-.28-5.14,5.25,5.25,0,0,0-2.5-2.3,3.77,3.77,0,0,0-.87-.29l-.3-.08.29.13a4.5,4.5,0,0,1,.79.42,5.31,5.31,0,0,1,1.93,6.77,4.37,4.37,0,0,1-4.61,1.81,4.06,4.06,0,0,1-3.19-3.72,5.14,5.14,0,0,1,1.27-4.2,4,4,0,0,1,2.85-1.14A7.48,7.48,0,0,1,209.57,238.38Z"/><path d="M210.92,241.71a2.38,2.38,0,0,0-.31-.06,1,1,0,0,0-.81.42,1.86,1.86,0,0,0-.31,1.34,1.67,1.67,0,0,0,1,1.43,1.24,1.24,0,0,0,1.6-.78,2.13,2.13,0,0,0-.07-1.37,2.08,2.08,0,0,0-.44-.76,1.43,1.43,0,0,0-.23-.22,2.24,2.24,0,0,1,.37,1.06,2.22,2.22,0,0,1-.12,1.1.71.71,0,0,1-.91.37,1.23,1.23,0,0,1-.7-.92,1.71,1.71,0,0,1,.06-1.09.84.84,0,0,1,.55-.48Z"/><path d="M208.4,241a.89.89,0,0,0,.22.42,1.12,1.12,0,0,0,1.18.25.88.88,0,0,0,.53-.55.71.71,0,0,0-.07-.59,1,1,0,0,0-.33-.34,1.8,1.8,0,0,1,0,.42.52.52,0,0,1-.39.48,1.4,1.4,0,0,1-.78.06A1.35,1.35,0,0,1,208.4,241Z"/><path d="M206.69,246.31l-.53-.43a3.55,3.55,0,0,1-.74-1.27c-.18-.58-.34-1.12-.46-1.53a7,7,0,0,0-.26-.65,6.28,6.28,0,0,0,0,.7,4.85,4.85,0,0,0,.17,1.68,2.31,2.31,0,0,0,1.17,1.33A4.14,4.14,0,0,0,206.69,246.31Z"/><path d="M206.78,245.32s-.26-.59-.47-1.16c-.06-.31-.23-.57-.28-.81a4,4,0,0,0-.16-.38,1.86,1.86,0,0,0-.15,1.4A1.64,1.64,0,0,0,206.78,245.32Z"/><path d="M207.68,244.78a5.75,5.75,0,0,0-.3-.89,8.12,8.12,0,0,0-.43-.83,1.17,1.17,0,0,0-.15,1.08A1.24,1.24,0,0,0,207.68,244.78Z"/><path d="M208.31,244.06a1.72,1.72,0,0,0,0-.65,1.49,1.49,0,0,0-.38-.53.77.77,0,0,0-.15.2.7.7,0,0,0-.08.51A.75.75,0,0,0,208.31,244.06Z"/><path d="M207.59,239.82a.87.87,0,0,0,.56,0c.21-.11.25-.5.25-.5a.72.72,0,0,0-.6,0A.61.61,0,0,0,207.59,239.82Z"/><path d="M207,239.64a2.91,2.91,0,0,0,.43-.07c.07,0,.18-.37.21-.38a.43.43,0,0,0-.57-.13A.44.44,0,0,0,207,239.64Z"/><path d="M206.24,239.91a2.27,2.27,0,0,0,.5-.37,1.38,1.38,0,0,0,.21-.62.74.74,0,0,0-.7.23A.68.68,0,0,0,206.24,239.91Z"/><path d="M194.85,213.3a7,7,0,0,0-1.2-.3,4.26,4.26,0,0,0-3.29.86,6,6,0,0,0-.86,7.78,4.7,4.7,0,0,0,3,1.85,5.89,5.89,0,0,0,3.41-.37,4.54,4.54,0,0,0,2.37-2.19,5.71,5.71,0,0,0-.27-5.14,5.27,5.27,0,0,0-2.5-2.29,4.51,4.51,0,0,0-.87-.3l-.3-.08.28.13a4.49,4.49,0,0,1,.79.42,5.3,5.3,0,0,1,1.94,6.77,4.39,4.39,0,0,1-4.62,1.81,4,4,0,0,1-3.18-3.71,5.2,5.2,0,0,1,1.26-4.21,4,4,0,0,1,2.86-1.13A7.14,7.14,0,0,1,194.85,213.3Z"/><path d="M196.2,216.63l-.32,0a1,1,0,0,0-.8.41,1.93,1.93,0,0,0-.32,1.34,1.66,1.66,0,0,0,1,1.43,1.24,1.24,0,0,0,1.6-.78,2.17,2.17,0,0,0-.07-1.36,2.29,2.29,0,0,0-.44-.77,2.23,2.23,0,0,0-.23-.22,2.37,2.37,0,0,1,.36,1.06,2,2,0,0,1-.12,1.1.69.69,0,0,1-.9.37,1.24,1.24,0,0,1-.71-.92,1.83,1.83,0,0,1,.06-1.08.91.91,0,0,1,.55-.49Z"/><path d="M193.67,215.91a1,1,0,0,0,.23.43,1.11,1.11,0,0,0,1.18.25.93.93,0,0,0,.53-.55.73.73,0,0,0-.07-.6,1.11,1.11,0,0,0-.33-.34,3,3,0,0,1,0,.42.53.53,0,0,1-.39.48,1.45,1.45,0,0,1-.79.07A1.21,1.21,0,0,1,193.67,215.91Z"/><path d="M192,221.23l-.52-.43a3.65,3.65,0,0,1-.75-1.26c-.17-.59-.33-1.12-.45-1.53a5.76,5.76,0,0,0-.26-.65s0,.27-.06.69a5,5,0,0,0,.18,1.69,2.29,2.29,0,0,0,1.17,1.32A4,4,0,0,0,192,221.23Z"/><path d="M192.05,220.24s-.25-.59-.46-1.15c-.06-.31-.23-.58-.28-.81a2.94,2.94,0,0,0-.16-.38,1.84,1.84,0,0,0-.15,1.4A1.6,1.6,0,0,0,192.05,220.24Z"/><path d="M193,219.7a4.41,4.41,0,0,0-.29-.89,7.5,7.5,0,0,0-.43-.82,1.11,1.11,0,0,0-.15,1.07A1.19,1.19,0,0,0,193,219.7Z"/><path d="M193.58,219a1.33,1.33,0,0,0,0-.64,1.39,1.39,0,0,0-.38-.53,1,1,0,0,0-.14.19.7.7,0,0,0-.08.51A.75.75,0,0,0,193.58,219Z"/><path d="M192.86,214.74s.38.1.56,0,.25-.51.25-.51a.69.69,0,0,0-.59,0A.66.66,0,0,0,192.86,214.74Z"/><path d="M192.32,214.56s.35,0,.43-.06a2.92,2.92,0,0,0,.2-.39.42.42,0,0,0-.56-.13A.43.43,0,0,0,192.32,214.56Z"/><path d="M191.51,214.83a1.8,1.8,0,0,0,.51-.37,1.38,1.38,0,0,0,.21-.62.74.74,0,0,0-.7.23A.68.68,0,0,0,191.51,214.83Z"/><path d="M197.76,270.23a5.73,5.73,0,0,0-1.19-.3,4.18,4.18,0,0,0-3.29.86,6,6,0,0,0-.86,7.78,4.67,4.67,0,0,0,3,1.84,5.88,5.88,0,0,0,3.41-.36,4.64,4.64,0,0,0,2.38-2.19,5.71,5.71,0,0,0-.27-5.14,5.31,5.31,0,0,0-2.51-2.3,3.63,3.63,0,0,0-.87-.29l-.3-.08.29.13a4.18,4.18,0,0,1,.79.42,5.31,5.31,0,0,1,1.93,6.77,4.37,4.37,0,0,1-4.61,1.81,4.07,4.07,0,0,1-3.19-3.72,5.14,5.14,0,0,1,1.27-4.2,4,4,0,0,1,2.86-1.14A7.43,7.43,0,0,1,197.76,270.23Z"/><path d="M199.11,273.56a2.38,2.38,0,0,0-.31-.06,1,1,0,0,0-.81.42,1.86,1.86,0,0,0-.31,1.34,1.67,1.67,0,0,0,1,1.43,1.23,1.23,0,0,0,1.59-.78,2.21,2.21,0,0,0-.06-1.37,2.41,2.41,0,0,0-.44-.76,1.73,1.73,0,0,0-.24-.22,2.24,2.24,0,0,1,.37,1.06,2.11,2.11,0,0,1-.12,1.1.71.71,0,0,1-.91.37,1.23,1.23,0,0,1-.7-.92,1.71,1.71,0,0,1,.06-1.09.87.87,0,0,1,.55-.48Z"/><path d="M196.59,272.84a.89.89,0,0,0,.22.42,1.12,1.12,0,0,0,1.18.25.85.85,0,0,0,.53-.55.71.71,0,0,0-.06-.59,1.06,1.06,0,0,0-.34-.34,1.8,1.8,0,0,1,0,.42.52.52,0,0,1-.39.48,1.4,1.4,0,0,1-.78.06A1.35,1.35,0,0,1,196.59,272.84Z"/><path d="M194.88,278.16l-.53-.43a3.55,3.55,0,0,1-.74-1.27c-.18-.58-.34-1.12-.46-1.53a7,7,0,0,0-.26-.65s0,.27,0,.7a4.85,4.85,0,0,0,.17,1.68,2.31,2.31,0,0,0,1.17,1.33A4.14,4.14,0,0,0,194.88,278.16Z"/><path d="M195,277.17s-.26-.59-.46-1.16c-.07-.31-.23-.57-.29-.8s-.15-.39-.15-.39a1.78,1.78,0,0,0-.16,1.4A1.64,1.64,0,0,0,195,277.17Z"/><path d="M195.87,276.63a4.77,4.77,0,0,0-.3-.89,9.07,9.07,0,0,0-.42-.83A1.11,1.11,0,0,0,195,276,1.19,1.19,0,0,0,195.87,276.63Z"/><path d="M196.5,275.91a1.72,1.72,0,0,0,0-.65,1.49,1.49,0,0,0-.38-.53.77.77,0,0,0-.15.2.65.65,0,0,0-.07.51A.74.74,0,0,0,196.5,275.91Z"/><path d="M195.78,271.67a.91.91,0,0,0,.56,0c.21-.12.25-.51.25-.51a.72.72,0,0,0-.6,0A.64.64,0,0,0,195.78,271.67Z"/><path d="M195.24,271.49s.35,0,.42-.07.18-.37.21-.38a.43.43,0,0,0-.57-.13A.42.42,0,0,0,195.24,271.49Z"/><path d="M194.43,271.76a2.25,2.25,0,0,0,.51-.37,1.53,1.53,0,0,0,.21-.62.76.76,0,0,0-.71.23A.7.7,0,0,0,194.43,271.76Z"/><path d="M276.17,266.4a8.46,8.46,0,0,0-1.2-.3,4.24,4.24,0,0,0-3.29.87,6,6,0,0,0-.86,7.77,4.66,4.66,0,0,0,3,1.85,5.9,5.9,0,0,0,3.41-.36,4.62,4.62,0,0,0,2.37-2.19,5.71,5.71,0,0,0-.27-5.14,5.3,5.3,0,0,0-2.5-2.3,3.77,3.77,0,0,0-.87-.29l-.31-.09.29.14a4,4,0,0,1,.79.41,5.21,5.21,0,0,1,2,2.41,5.13,5.13,0,0,1-.11,4.36,4.35,4.35,0,0,1-4.61,1.81,4.06,4.06,0,0,1-3.19-3.71,5.2,5.2,0,0,1,1.27-4.2A4,4,0,0,1,275,266.3,11.35,11.35,0,0,1,276.17,266.4Z"/><path d="M277.52,269.74l-.32-.06a1,1,0,0,0-.81.41,1.94,1.94,0,0,0-.31,1.34,1.64,1.64,0,0,0,1,1.43,1.23,1.23,0,0,0,1.6-.77,2.2,2.2,0,0,0-.07-1.37,2.4,2.4,0,0,0-.44-.77,1.5,1.5,0,0,0-.23-.21,2.3,2.3,0,0,1,.36,1.05,2,2,0,0,1-.12,1.1.7.7,0,0,1-.9.38c-.37-.1-.6-.54-.71-.93a1.76,1.76,0,0,1,.06-1.08.89.89,0,0,1,.55-.48Z"/><path d="M275,269a1.06,1.06,0,0,0,.23.42,1.1,1.1,0,0,0,1.17.25.89.89,0,0,0,.54-.55.73.73,0,0,0-.07-.6,1,1,0,0,0-.33-.33,2.83,2.83,0,0,1,0,.42.53.53,0,0,1-.39.47,1.45,1.45,0,0,1-.79.07A1.35,1.35,0,0,1,275,269Z"/><path d="M273.28,274.34l-.52-.44a3.56,3.56,0,0,1-.75-1.26c-.17-.59-.33-1.12-.45-1.53a5.76,5.76,0,0,0-.26-.65s0,.27-.06.69a4.93,4.93,0,0,0,.18,1.69,2.28,2.28,0,0,0,1.17,1.33A4,4,0,0,0,273.28,274.34Z"/><path d="M273.37,273.34s-.25-.59-.46-1.15c-.06-.31-.23-.58-.28-.81a4,4,0,0,0-.16-.38,1.84,1.84,0,0,0-.15,1.4A1.6,1.6,0,0,0,273.37,273.34Z"/><path d="M274.27,272.8a4.63,4.63,0,0,0-.29-.89c-.17-.38-.42-.8-.43-.82a1.09,1.09,0,0,0-.15,1.07A1.16,1.16,0,0,0,274.27,272.8Z"/><path d="M274.9,272.08a1,1,0,0,0-.36-1.17,1,1,0,0,0-.14.19.73.73,0,0,0-.08.52A.71.71,0,0,0,274.9,272.08Z"/><path d="M274.18,267.85a.87.87,0,0,0,.56,0c.21-.12.25-.51.25-.51a.69.69,0,0,0-.59,0A.68.68,0,0,0,274.18,267.85Z"/><path d="M273.64,267.67s.35,0,.43-.07.18-.38.2-.38a.39.39,0,1,0-.63.45Z"/><path d="M272.83,267.94a2.64,2.64,0,0,0,.51-.37,1.44,1.44,0,0,0,.21-.63.78.78,0,0,0-.71.24A.71.71,0,0,0,272.83,267.94Z"/><path d="M299.8,232.56a8.46,8.46,0,0,0-1.2-.3,4.24,4.24,0,0,0-3.29.87,6,6,0,0,0-.86,7.77,4.7,4.7,0,0,0,3,1.85,6,6,0,0,0,3.41-.36,4.6,4.6,0,0,0,2.37-2.2,5.71,5.71,0,0,0-.27-5.14,5.27,5.27,0,0,0-2.5-2.29,4.51,4.51,0,0,0-.87-.3l-.31-.08.29.14a4,4,0,0,1,.79.41,5.23,5.23,0,0,1,2,2.4,5.16,5.16,0,0,1-.11,4.37,4.35,4.35,0,0,1-4.61,1.81,4,4,0,0,1-3.18-3.71,5.2,5.2,0,0,1,1.26-4.21,4,4,0,0,1,2.86-1.13A8.76,8.76,0,0,1,299.8,232.56Z"/><path d="M301.15,235.9l-.32-.06a1,1,0,0,0-.81.41,1.94,1.94,0,0,0-.31,1.34,1.64,1.64,0,0,0,1,1.43,1.24,1.24,0,0,0,1.6-.78,2.17,2.17,0,0,0-.07-1.36,2.4,2.4,0,0,0-.44-.77,1.5,1.5,0,0,0-.23-.21,2.3,2.3,0,0,1,.36,1,2,2,0,0,1-.12,1.1.69.69,0,0,1-.9.37,1.24,1.24,0,0,1-.71-.92,1.76,1.76,0,0,1,.06-1.08.86.86,0,0,1,.55-.48Z"/><path d="M298.62,235.18a1.06,1.06,0,0,0,.23.42,1.1,1.1,0,0,0,1.17.25.92.92,0,0,0,.54-.55.73.73,0,0,0-.07-.6c-.16-.27-.35-.32-.33-.34a3.2,3.2,0,0,1,0,.42.53.53,0,0,1-.39.48,1.45,1.45,0,0,1-.79.07A1.35,1.35,0,0,1,298.62,235.18Z"/><path d="M296.91,240.49l-.52-.43a3.56,3.56,0,0,1-.75-1.26c-.17-.59-.33-1.12-.45-1.53a5.76,5.76,0,0,0-.26-.65s0,.27-.06.69a5,5,0,0,0,.18,1.69,2.28,2.28,0,0,0,1.17,1.33A4.4,4.4,0,0,0,296.91,240.49Z"/><path d="M297,239.5s-.25-.59-.46-1.15c-.06-.31-.23-.58-.28-.81a4,4,0,0,0-.16-.38,1.84,1.84,0,0,0-.15,1.4A1.6,1.6,0,0,0,297,239.5Z"/><path d="M297.9,239a4.63,4.63,0,0,0-.29-.89c-.17-.38-.42-.8-.43-.82a1.09,1.09,0,0,0-.15,1.07A1.16,1.16,0,0,0,297.9,239Z"/><path d="M298.53,238.24a1.33,1.33,0,0,0,0-.64,1.39,1.39,0,0,0-.38-.53,1,1,0,0,0-.14.19.71.71,0,0,0-.08.51A.75.75,0,0,0,298.53,238.24Z"/><path d="M297.81,234s.38.1.56,0,.25-.51.25-.51a.69.69,0,0,0-.59,0A.66.66,0,0,0,297.81,234Z"/><path d="M297.27,233.82s.35,0,.43-.06a2.92,2.92,0,0,0,.2-.39.44.44,0,0,0-.57-.13A.43.43,0,0,0,297.27,233.82Z"/><path d="M296.46,234.09a1.8,1.8,0,0,0,.51-.37,1.38,1.38,0,0,0,.21-.62.77.77,0,0,0-.7.23A.68.68,0,0,0,296.46,234.09Z"/><path d="M226.14,159.81a7,7,0,0,0-1.2-.3,4.26,4.26,0,0,0-3.29.86,6,6,0,0,0-.86,7.78,4.7,4.7,0,0,0,3,1.85,5.89,5.89,0,0,0,3.41-.37,4.58,4.58,0,0,0,2.37-2.19,5.71,5.71,0,0,0-.27-5.14,5.35,5.35,0,0,0-2.5-2.3,5.1,5.1,0,0,0-.87-.29l-.3-.08.28.13a4.49,4.49,0,0,1,.79.42,5.3,5.3,0,0,1,1.94,6.77,4.39,4.39,0,0,1-4.62,1.81,4,4,0,0,1-3.18-3.71,5.2,5.2,0,0,1,1.26-4.21,4,4,0,0,1,2.86-1.13A7.14,7.14,0,0,1,226.14,159.81Z"/><path d="M227.49,163.14l-.32,0a1,1,0,0,0-.8.41,1.93,1.93,0,0,0-.32,1.34,1.66,1.66,0,0,0,1,1.43,1.24,1.24,0,0,0,1.6-.78,2.2,2.2,0,0,0-.07-1.37,2.33,2.33,0,0,0-.44-.76,2.23,2.23,0,0,0-.23-.22,2.37,2.37,0,0,1,.36,1.06,2,2,0,0,1-.12,1.1.69.69,0,0,1-.9.37,1.24,1.24,0,0,1-.71-.92,1.83,1.83,0,0,1,.06-1.08.91.91,0,0,1,.55-.49Z"/><path d="M225,162.42a.94.94,0,0,0,.23.42,1.1,1.1,0,0,0,1.18.26.93.93,0,0,0,.53-.55.73.73,0,0,0-.07-.6,1.11,1.11,0,0,0-.33-.34,3,3,0,0,1,0,.42.53.53,0,0,1-.39.48,1.29,1.29,0,0,1-1.18-.09Z"/><path d="M223.25,167.74l-.52-.43A3.71,3.71,0,0,1,222,166l-.45-1.52a5.76,5.76,0,0,0-.26-.65s0,.27-.06.69a5,5,0,0,0,.18,1.69,2.29,2.29,0,0,0,1.17,1.32A4,4,0,0,0,223.25,167.74Z"/><path d="M223.34,166.75s-.25-.59-.46-1.15c-.06-.31-.23-.58-.28-.81a2.94,2.94,0,0,0-.16-.38,1.83,1.83,0,0,0-.15,1.4A1.6,1.6,0,0,0,223.34,166.75Z"/><path d="M224.24,166.21a4.41,4.41,0,0,0-.29-.89,7.5,7.5,0,0,0-.43-.82,1.11,1.11,0,0,0-.15,1.07A1.19,1.19,0,0,0,224.24,166.21Z"/><path d="M224.87,165.49a1.33,1.33,0,0,0,0-.64,1.39,1.39,0,0,0-.38-.53,1,1,0,0,0-.14.19.7.7,0,0,0-.08.51A.75.75,0,0,0,224.87,165.49Z"/><path d="M224.15,161.25a.92.92,0,0,0,.56,0c.21-.12.25-.51.25-.51a.69.69,0,0,0-.59,0A.66.66,0,0,0,224.15,161.25Z"/><path d="M223.61,161.07s.35,0,.43-.06a2.92,2.92,0,0,0,.2-.39.42.42,0,0,0-.56-.13A.43.43,0,0,0,223.61,161.07Z"/><path d="M222.8,161.34a1.8,1.8,0,0,0,.51-.37,1.38,1.38,0,0,0,.21-.62.74.74,0,0,0-.7.23A.68.68,0,0,0,222.8,161.34Z"/><path d="M283.7,218.37a7.46,7.46,0,0,0-1.19-.29,4.18,4.18,0,0,0-3.29.86,5.72,5.72,0,0,0-1.9,4.77,5.58,5.58,0,0,0,1,3,4.67,4.67,0,0,0,3,1.84,5.88,5.88,0,0,0,3.41-.36,4.61,4.61,0,0,0,2.38-2.19,5.71,5.71,0,0,0-.27-5.14,5.31,5.31,0,0,0-2.51-2.3,3.73,3.73,0,0,0-.86-.29l-.31-.09.29.14a4.66,4.66,0,0,1,.79.41,5.32,5.32,0,0,1,1.93,6.77,4.35,4.35,0,0,1-4.61,1.82,4.07,4.07,0,0,1-3.19-3.72,5.16,5.16,0,0,1,1.27-4.2,4,4,0,0,1,2.86-1.14A10.94,10.94,0,0,1,283.7,218.37Z"/><path d="M285.06,221.71l-.32-.06a1,1,0,0,0-.81.41,2,2,0,0,0-.31,1.35,1.64,1.64,0,0,0,1,1.42,1.23,1.23,0,0,0,1.6-.77,2.27,2.27,0,0,0-.07-1.37,2.23,2.23,0,0,0-.44-.76,2.08,2.08,0,0,0-.23-.22,2.3,2.3,0,0,1,.36,1,2,2,0,0,1-.12,1.11.71.71,0,0,1-.9.37c-.37-.1-.6-.54-.71-.93a1.76,1.76,0,0,1,.06-1.08.87.87,0,0,1,.55-.48Z"/><path d="M282.53,221a.87.87,0,0,0,.23.42,1.1,1.1,0,0,0,1.17.25.92.92,0,0,0,.54-.55.74.74,0,0,0-.07-.59.85.85,0,0,0-.34-.34,2.14,2.14,0,0,1,0,.42.52.52,0,0,1-.4.47,1.41,1.41,0,0,1-.78.07A1.35,1.35,0,0,1,282.53,221Z"/><path d="M280.82,226.31l-.52-.43a3.42,3.42,0,0,1-.75-1.27c-.17-.59-.33-1.12-.46-1.53a4.93,4.93,0,0,0-.25-.65s0,.27-.06.69a4.93,4.93,0,0,0,.18,1.69,2.27,2.27,0,0,0,1.16,1.33A4.14,4.14,0,0,0,280.82,226.31Z"/><path d="M280.91,225.32s-.25-.59-.46-1.16c-.07-.31-.23-.58-.28-.81A4,4,0,0,0,280,223a1.86,1.86,0,0,0-.15,1.4A1.67,1.67,0,0,0,280.91,225.32Z"/><path d="M281.81,224.77a5,5,0,0,0-.3-.89,8.32,8.32,0,0,0-.42-.82,1.11,1.11,0,0,0-.15,1.08A1.17,1.17,0,0,0,281.81,224.77Z"/><path d="M282.44,224.05a1.46,1.46,0,0,0,0-.64,1.49,1.49,0,0,0-.38-.53,1.18,1.18,0,0,0-.15.2.65.65,0,0,0-.07.51A.71.71,0,0,0,282.44,224.05Z"/><path d="M281.72,219.82a.87.87,0,0,0,.56,0c.21-.12.25-.5.25-.5a.7.7,0,0,0-.59,0A.66.66,0,0,0,281.72,219.82Z"/><path d="M281.18,219.64s.35,0,.43-.07.18-.38.2-.38a.39.39,0,1,0-.63.45Z"/><path d="M280.37,219.91a2.64,2.64,0,0,0,.51-.37,1.42,1.42,0,0,0,.21-.62.76.76,0,0,0-.71.23A.71.71,0,0,0,280.37,219.91Z"/><path d="M282.07,150.26a6,6,0,0,0-1.19-.3,4.17,4.17,0,0,0-3.29.86,6,6,0,0,0-.86,7.78,4.67,4.67,0,0,0,3,1.84,5.88,5.88,0,0,0,3.41-.36,4.64,4.64,0,0,0,2.38-2.19,5.68,5.68,0,0,0-.28-5.14,5.25,5.25,0,0,0-2.5-2.3,3.77,3.77,0,0,0-.87-.29l-.3-.08.29.13a5.07,5.07,0,0,1,.79.41,5.33,5.33,0,0,1,1.93,6.78,4.37,4.37,0,0,1-4.61,1.81,4.06,4.06,0,0,1-3.19-3.72,5.13,5.13,0,0,1,1.27-4.2,4,4,0,0,1,2.85-1.14A7.48,7.48,0,0,1,282.07,150.26Z"/><path d="M283.42,153.59a2.38,2.38,0,0,0-.31-.06,1,1,0,0,0-.81.42,1.86,1.86,0,0,0-.31,1.34,1.65,1.65,0,0,0,1,1.42,1.23,1.23,0,0,0,1.6-.77,2.13,2.13,0,0,0-.07-1.37,2.24,2.24,0,0,0-.43-.76,1.16,1.16,0,0,0-.24-.22,2.23,2.23,0,0,1,.37,1,2.26,2.26,0,0,1-.12,1.11.72.72,0,0,1-.91.37,1.25,1.25,0,0,1-.7-.93,1.69,1.69,0,0,1,.06-1.08.84.84,0,0,1,.55-.48Z"/><path d="M280.9,152.87a.89.89,0,0,0,.22.42,1.12,1.12,0,0,0,1.18.25.88.88,0,0,0,.53-.55.7.7,0,0,0-.07-.59,1,1,0,0,0-.33-.34,1.8,1.8,0,0,1,0,.42.52.52,0,0,1-.39.48,1.5,1.5,0,0,1-.78.06A1.35,1.35,0,0,1,280.9,152.87Z"/><path d="M279.19,158.19l-.53-.43a3.55,3.55,0,0,1-.74-1.27c-.18-.59-.34-1.12-.46-1.53a7,7,0,0,0-.26-.65s0,.27-.05.7a4.85,4.85,0,0,0,.17,1.68,2.31,2.31,0,0,0,1.17,1.33A4.14,4.14,0,0,0,279.19,158.19Z"/><path d="M279.28,157.2s-.26-.59-.47-1.16c-.06-.31-.23-.58-.28-.81a4,4,0,0,0-.16-.38,1.86,1.86,0,0,0-.15,1.4A1.68,1.68,0,0,0,279.28,157.2Z"/><path d="M280.18,156.66a5.72,5.72,0,0,0-.3-.9c-.16-.37-.41-.8-.42-.82a1.11,1.11,0,0,0-.15,1.08A1.21,1.21,0,0,0,280.18,156.66Z"/><path d="M280.81,155.93a1.64,1.64,0,0,0,0-.64,1.49,1.49,0,0,0-.38-.53.77.77,0,0,0-.15.2.7.7,0,0,0-.08.51A.72.72,0,0,0,280.81,155.93Z"/><path d="M280.09,151.7a.87.87,0,0,0,.56,0c.21-.12.25-.5.25-.5a.72.72,0,0,0-.6,0A.61.61,0,0,0,280.09,151.7Z"/><path d="M279.55,151.52s.35,0,.42-.07.18-.38.21-.38a.43.43,0,0,0-.57-.13A.42.42,0,0,0,279.55,151.52Z"/><path d="M278.74,151.79a2.27,2.27,0,0,0,.5-.37,1.45,1.45,0,0,0,.22-.62.76.76,0,0,0-.71.23A.68.68,0,0,0,278.74,151.79Z"/><path d="M250.08,187.27a3.36,3.36,0,0,0-.72-.19,2.56,2.56,0,0,0-2,.53,3.59,3.59,0,0,0-.52,4.68,2.83,2.83,0,0,0,1.78,1.11,3.68,3.68,0,0,0,2.06-.22,2.8,2.8,0,0,0,1.43-1.32,3.42,3.42,0,0,0-.17-3.09,3.23,3.23,0,0,0-1.5-1.39,2.08,2.08,0,0,0-.53-.17l-.18-.05.17.08a2.23,2.23,0,0,1,.48.25,3.16,3.16,0,0,1,1.23,1.45,3.09,3.09,0,0,1-.07,2.62,2.6,2.6,0,0,1-2.77,1.09,2.42,2.42,0,0,1-1.92-2.23,3.09,3.09,0,0,1,.76-2.53,2.4,2.4,0,0,1,1.72-.69A4,4,0,0,1,250.08,187.27Z"/><path d="M250.89,189.27l-.19,0a.6.6,0,0,0-.49.25,1.14,1.14,0,0,0-.18.8,1,1,0,0,0,.62.86.74.74,0,0,0,1-.46,1.34,1.34,0,0,0,0-.83,1.68,1.68,0,0,0-.27-.46c-.08-.09-.14-.12-.14-.13a1.44,1.44,0,0,1,.22.64,1.26,1.26,0,0,1-.07.66.43.43,0,0,1-.54.22.72.72,0,0,1-.43-.55,1,1,0,0,1,0-.65.48.48,0,0,1,.33-.29Z"/><path d="M249.37,188.84a.67.67,0,0,0,.14.25.63.63,0,0,0,.7.15.54.54,0,0,0,.33-.33.51.51,0,0,0,0-.36.57.57,0,0,0-.21-.2.83.83,0,0,1,0,.25.31.31,0,0,1-.23.29.83.83,0,0,1-.71,0Z"/><path d="M248.34,192l-.31-.26a2,2,0,0,1-.45-.76c-.11-.35-.2-.67-.28-.92a3,3,0,0,0-.15-.39,3.18,3.18,0,0,0,0,.42,2.78,2.78,0,0,0,.11,1,1.38,1.38,0,0,0,.7.8A2.75,2.75,0,0,0,248.34,192Z"/><path d="M248.39,191.44s-.15-.35-.27-.69c0-.19-.14-.35-.17-.49s-.1-.23-.1-.23a1.15,1.15,0,0,0-.09.85A1,1,0,0,0,248.39,191.44Z"/><path d="M248.94,191.12a3.45,3.45,0,0,0-.18-.54,3.9,3.9,0,0,0-.26-.49.67.67,0,0,0-.09.64A.77.77,0,0,0,248.94,191.12Z"/><path d="M249.32,190.68a1,1,0,0,0,0-.38.79.79,0,0,0-.23-.32.38.38,0,0,0-.09.12.37.37,0,0,0,0,.3A.4.4,0,0,0,249.32,190.68Z"/><path d="M248.88,188.13s.23.06.34,0,.15-.3.15-.3a.43.43,0,0,0-.36,0A.4.4,0,0,0,248.88,188.13Z"/><path d="M248.56,188s.21,0,.25,0,.11-.23.13-.24a.27.27,0,0,0-.34-.07A.26.26,0,0,0,248.56,188Z"/><path d="M248.07,188.19a1.15,1.15,0,0,0,.31-.23.81.81,0,0,0,.12-.37.44.44,0,0,0-.42.14A.42.42,0,0,0,248.07,188.19Z"/><path d="M194,181.78a3.61,3.61,0,0,0-.72-.18,2.51,2.51,0,0,0-2,.52,3.46,3.46,0,0,0-1.14,2.87,3.36,3.36,0,0,0,.63,1.81,2.8,2.8,0,0,0,1.78,1.11,3.55,3.55,0,0,0,2-.22,2.78,2.78,0,0,0,1.44-1.32,3.45,3.45,0,0,0-.17-3.09,3.2,3.2,0,0,0-1.51-1.39,2,2,0,0,0-.52-.17l-.18-.05.17.08a2.23,2.23,0,0,1,.48.25,3.2,3.2,0,0,1,1.16,4.07,2.62,2.62,0,0,1-2.78,1.09,2.44,2.44,0,0,1-1.92-2.23,3.13,3.13,0,0,1,.77-2.53,2.37,2.37,0,0,1,1.72-.69A3.92,3.92,0,0,1,194,181.78Z"/><path d="M194.84,183.78l-.19,0a.6.6,0,0,0-.49.25,1.14,1.14,0,0,0-.19.8,1,1,0,0,0,.62.86.74.74,0,0,0,1-.46,1.34,1.34,0,0,0,0-.83,1.47,1.47,0,0,0-.26-.46c-.08-.09-.15-.12-.14-.13a1.44,1.44,0,0,1,.22.64,1.26,1.26,0,0,1-.07.66.43.43,0,0,1-.55.23c-.22-.06-.36-.33-.42-.56a1,1,0,0,1,0-.65.5.5,0,0,1,.33-.29Z"/><path d="M193.32,183.35a.5.5,0,0,0,.13.25.65.65,0,0,0,.71.15.5.5,0,0,0,.32-.33.43.43,0,0,0,0-.36.73.73,0,0,0-.2-.2,1.55,1.55,0,0,1,0,.25c0,.16-.09.23-.24.29a.85.85,0,0,1-.47,0A.73.73,0,0,1,193.32,183.35Z"/><path d="M192.29,186.55l-.32-.26a2.09,2.09,0,0,1-.45-.76c-.1-.35-.2-.67-.27-.92s-.16-.39-.16-.39,0,.16,0,.42a3,3,0,0,0,.1,1,1.39,1.39,0,0,0,.71.8A2.75,2.75,0,0,0,192.29,186.55Z"/><path d="M192.34,186s-.15-.35-.28-.69c0-.19-.14-.35-.17-.49a1.67,1.67,0,0,0-.09-.23,1.09,1.09,0,0,0-.09.85A.93.93,0,0,0,192.34,186Z"/><path d="M192.88,185.63a2.34,2.34,0,0,0-.18-.54c-.1-.22-.24-.48-.25-.49a.64.64,0,0,0-.09.64A.71.71,0,0,0,192.88,185.63Z"/><path d="M193.26,185.2a.89.89,0,0,0,0-.39.81.81,0,0,0-.22-.32.38.38,0,0,0-.09.12.43.43,0,0,0-.05.31A.45.45,0,0,0,193.26,185.2Z"/><path d="M192.83,182.64s.23.06.33,0,.16-.3.16-.3a.44.44,0,0,0-.36,0A.37.37,0,0,0,192.83,182.64Z"/><path d="M192.5,182.54s.21,0,.26,0,.11-.23.12-.23a.25.25,0,0,0-.34-.08A.26.26,0,0,0,192.5,182.54Z"/><path d="M192,182.7a1.57,1.57,0,0,0,.3-.22,1,1,0,0,0,.13-.38.46.46,0,0,0-.43.14A.41.41,0,0,0,192,182.7Z"/><path d="M192.26,124.62a3.61,3.61,0,0,0-.71-.18,2.5,2.5,0,0,0-2,.52,3.43,3.43,0,0,0-1.15,2.87,3.36,3.36,0,0,0,.63,1.81,2.8,2.8,0,0,0,1.78,1.11,3.47,3.47,0,0,0,2-.22,2.78,2.78,0,0,0,1.44-1.32,3.45,3.45,0,0,0-.17-3.09,3.2,3.2,0,0,0-1.51-1.39,2.54,2.54,0,0,0-.52-.17l-.18,0,.17.08a2.23,2.23,0,0,1,.48.25,3.21,3.21,0,0,1,1.16,4.08A2.62,2.62,0,0,1,191,130a2.42,2.42,0,0,1-1.91-2.23,3.09,3.09,0,0,1,.76-2.53,2.39,2.39,0,0,1,1.72-.69A3.76,3.76,0,0,1,192.26,124.62Z"/><path d="M193.08,126.62l-.19,0a.6.6,0,0,0-.49.25,1.16,1.16,0,0,0-.19.81,1,1,0,0,0,.62.86.75.75,0,0,0,1-.47,1.33,1.33,0,0,0-.05-.83,1.47,1.47,0,0,0-.26-.46c-.08-.09-.14-.12-.14-.13a1.44,1.44,0,0,1,.22.64,1.26,1.26,0,0,1-.07.66.43.43,0,0,1-.55.23c-.22-.06-.36-.33-.42-.56a1.08,1.08,0,0,1,0-.65.5.5,0,0,1,.34-.29Z"/><path d="M191.56,126.19a.5.5,0,0,0,.13.25.65.65,0,0,0,.71.15.5.5,0,0,0,.32-.33.4.4,0,0,0,0-.35.58.58,0,0,0-.2-.21,1.55,1.55,0,0,1,0,.25c0,.16-.09.23-.24.29a.85.85,0,0,1-.47,0A.73.73,0,0,1,191.56,126.19Z"/><path d="M190.53,129.39l-.32-.26a2.09,2.09,0,0,1-.45-.76c-.1-.35-.2-.67-.27-.92a2.77,2.77,0,0,0-.16-.39s0,.16,0,.42a2.78,2.78,0,0,0,.11,1,1.38,1.38,0,0,0,.7.8A2.75,2.75,0,0,0,190.53,129.39Z"/><path d="M190.58,128.8s-.15-.36-.28-.7c0-.19-.13-.35-.16-.49s-.1-.23-.1-.23a1.15,1.15,0,0,0-.09.85A1,1,0,0,0,190.58,128.8Z"/><path d="M191.12,128.47a2.65,2.65,0,0,0-.17-.54,4.91,4.91,0,0,0-.26-.49.64.64,0,0,0-.09.64A.71.71,0,0,0,191.12,128.47Z"/><path d="M191.5,128a.84.84,0,0,0,0-.39.9.9,0,0,0-.23-.32.38.38,0,0,0-.09.12.44.44,0,0,0,0,.31A.47.47,0,0,0,191.5,128Z"/><path d="M191.07,125.49a.53.53,0,0,0,.34,0c.12-.07.15-.3.15-.3a.43.43,0,0,0-.36,0A.38.38,0,0,0,191.07,125.49Z"/><path d="M190.74,125.38s.22,0,.26,0,.11-.23.12-.23a.25.25,0,0,0-.34-.08C190.6,125.17,190.75,125.4,190.74,125.38Z"/><path d="M190.26,125.54a1.31,1.31,0,0,0,.3-.22,1,1,0,0,0,.13-.38.44.44,0,0,0-.42.14A.4.4,0,0,0,190.26,125.54Z"/><path d="M228,111a4.79,4.79,0,0,0-.72-.18,2.54,2.54,0,0,0-2,.52,3.43,3.43,0,0,0-1.14,2.87,3.33,3.33,0,0,0,.63,1.81,2.74,2.74,0,0,0,1.78,1.11,3.56,3.56,0,0,0,2-.21,2.8,2.8,0,0,0,1.43-1.32,3.44,3.44,0,0,0-.16-3.1,3.17,3.17,0,0,0-1.51-1.38,3,3,0,0,0-.52-.18l-.18,0,.17.09a2.32,2.32,0,0,1,.47.24,3.2,3.2,0,0,1,1.17,4.08,2.64,2.64,0,0,1-2.78,1.09,2.44,2.44,0,0,1-1.92-2.24,3.15,3.15,0,0,1,.76-2.53,2.43,2.43,0,0,1,1.72-.68C227.75,111,228,111.05,228,111Z"/><path d="M228.82,113l-.19,0a.61.61,0,0,0-.48.25,1.17,1.17,0,0,0-.19.81,1,1,0,0,0,.62.86.74.74,0,0,0,1-.47,1.3,1.3,0,0,0,0-.82,1.43,1.43,0,0,0-.26-.46,1.61,1.61,0,0,0-.14-.13,1.37,1.37,0,0,1,.22.63,1.31,1.31,0,0,1-.08.67.42.42,0,0,1-.54.22.73.73,0,0,1-.42-.56,1,1,0,0,1,0-.65.54.54,0,0,1,.33-.29Z"/><path d="M227.3,112.61a.67.67,0,0,0,.14.25.68.68,0,0,0,.71.15.52.52,0,0,0,.32-.33.46.46,0,0,0,0-.36.57.57,0,0,0-.2-.2,1.55,1.55,0,0,1,0,.25.33.33,0,0,1-.24.29.85.85,0,0,1-.47,0A.87.87,0,0,1,227.3,112.61Z"/><path d="M226.27,115.81l-.31-.26a2.13,2.13,0,0,1-.45-.76c-.1-.36-.2-.68-.28-.93a4,4,0,0,0-.15-.39s0,.17,0,.42a3,3,0,0,0,.1,1,1.39,1.39,0,0,0,.71.8A2.83,2.83,0,0,0,226.27,115.81Z"/><path d="M226.33,115.21s-.15-.35-.28-.7c0-.18-.14-.34-.17-.48s-.09-.23-.09-.23a1,1,0,0,0-.1.84A1,1,0,0,0,226.33,115.21Z"/><path d="M226.87,114.89a2.58,2.58,0,0,0-.18-.54c-.1-.23-.25-.49-.25-.5a.67.67,0,0,0-.09.65A.74.74,0,0,0,226.87,114.89Z"/><path d="M227.25,114.45a.89.89,0,0,0,0-.39.88.88,0,0,0-.23-.32l-.09.12a.39.39,0,0,0,.31.59Z"/><path d="M226.82,111.9a.48.48,0,0,0,.33,0c.13-.07.15-.31.15-.31a.41.41,0,0,0-.35,0A.36.36,0,0,0,226.82,111.9Z"/><path d="M226.49,111.79a1.66,1.66,0,0,0,.26,0s.11-.23.12-.23a.26.26,0,0,0-.34-.08A.26.26,0,0,0,226.49,111.79Z"/><path d="M226,112a1,1,0,0,0,.31-.22.88.88,0,0,0,.13-.37.46.46,0,0,0-.43.14A.4.4,0,0,0,226,112Z"/><path d="M212.43,130a3.89,3.89,0,0,0-.72-.18,2.54,2.54,0,0,0-2,.52,3.59,3.59,0,0,0-.52,4.68,2.83,2.83,0,0,0,1.79,1.11,3.49,3.49,0,0,0,2.05-.22,2.78,2.78,0,0,0,1.43-1.31,3.44,3.44,0,0,0-.17-3.1,3.2,3.2,0,0,0-1.5-1.38,2.75,2.75,0,0,0-.53-.18l-.18,0,.18.08a4.72,4.72,0,0,1,.47.25,3.22,3.22,0,0,1,1.23,1.45,3.11,3.11,0,0,1-.07,2.63,2.63,2.63,0,0,1-2.77,1.09,2.43,2.43,0,0,1-1.92-2.24,3.09,3.09,0,0,1,.76-2.53,2.43,2.43,0,0,1,1.72-.68A3.59,3.59,0,0,1,212.43,130Z"/><path d="M213.24,132l-.19,0a.63.63,0,0,0-.49.25,1.17,1.17,0,0,0-.18.81,1,1,0,0,0,.61.86.75.75,0,0,0,1-.47,1.3,1.3,0,0,0,0-.82,1.26,1.26,0,0,0-.27-.46.49.49,0,0,0-.14-.13,1.24,1.24,0,0,1,.22.63,1.3,1.3,0,0,1-.07.67.42.42,0,0,1-.54.22.72.72,0,0,1-.43-.56,1,1,0,0,1,0-.65.54.54,0,0,1,.33-.29Z"/><path d="M211.72,131.55a.6.6,0,0,0,.14.26.67.67,0,0,0,.7.15.59.59,0,0,0,.33-.33.46.46,0,0,0,0-.36.48.48,0,0,0-.21-.2.83.83,0,0,1,0,.25.32.32,0,0,1-.23.29.86.86,0,0,1-.47,0A.73.73,0,0,1,211.72,131.55Z"/><path d="M210.69,134.75l-.31-.25a2.09,2.09,0,0,1-.45-.77c-.11-.35-.2-.67-.28-.92a4,4,0,0,0-.15-.39s0,.17,0,.42a3.34,3.34,0,0,0,.11,1,1.36,1.36,0,0,0,.7.79A1.89,1.89,0,0,0,210.69,134.75Z"/><path d="M210.74,134.16s-.15-.36-.27-.7c0-.18-.14-.34-.17-.48a1.69,1.69,0,0,0-.1-.23,1.11,1.11,0,0,0-.09.84A1,1,0,0,0,210.74,134.16Z"/><path d="M211.29,133.83a3.91,3.91,0,0,0-.18-.53,4.41,4.41,0,0,0-.26-.5.7.7,0,0,0-.09.65A.7.7,0,0,0,211.29,133.83Z"/><path d="M211.67,133.4a1.09,1.09,0,0,0,0-.39.88.88,0,0,0-.23-.32.73.73,0,0,0-.09.12.39.39,0,0,0,0,.31A.45.45,0,0,0,211.67,133.4Z"/><path d="M211.23,130.85a.58.58,0,0,0,.34,0c.13-.07.15-.31.15-.31a.43.43,0,0,0-.36,0A.42.42,0,0,0,211.23,130.85Z"/><path d="M210.91,130.74a1.41,1.41,0,0,0,.25,0c.05,0,.11-.23.13-.23a.23.23,0,1,0-.38.27Z"/><path d="M210.42,130.9a1,1,0,0,0,.31-.22.81.81,0,0,0,.12-.37.44.44,0,0,0-.42.14A.4.4,0,0,0,210.42,130.9Z"/><path d="M254.66,110.53s1.35.32,3.52.65a46.56,46.56,0,0,0,8.56.6,30.22,30.22,0,0,0,8.53-1.55,21,21,0,0,0,2.43-1l.87-.42-1,0c-.63,0-1.49.15-2.58.18-2.17.1-5.11.14-8.37.26s-6.27.38-8.46.66S254.66,110.53,254.66,110.53Z"/><path d="M255.83,114.61a20.94,20.94,0,0,0,7.33,1.19,17.86,17.86,0,0,0,2.86-.32,11.84,11.84,0,0,0,2.32-.6,16.25,16.25,0,0,0,2.06-.86,20.59,20.59,0,0,0-2.19-.39l-2.3-.27a25.59,25.59,0,0,0-2.82-.08A24.35,24.35,0,0,0,255.83,114.61Z"/><path d="M178.28,97.7l.14-.41c0-.13.08-.29.14-.47l.27-.56a3.48,3.48,0,0,1,1-1.1,3.75,3.75,0,0,1,1.62-.55,3.49,3.49,0,0,1,3,1,2.52,2.52,0,0,1,.5,1.36l.13-.41a1.09,1.09,0,0,0,.06-.53,2.11,2.11,0,0,0,0-.35l-.13-.38a3.49,3.49,0,0,0-3.62-1.89,3.66,3.66,0,0,0-2.19,1,3.34,3.34,0,0,0-.88,1.69c0,.27-.07.5-.08.7s0,.38.06.52Z"/><path d="M170.9,96.92a6.48,6.48,0,0,1,2-1.67,2.14,2.14,0,0,1,1.51-.18,5.59,5.59,0,0,1,.8.3,2.43,2.43,0,0,0-.46-.84,2,2,0,0,0-2.38-.42,2.42,2.42,0,0,0-1,.9,3.26,3.26,0,0,0-.37,1A4.39,4.39,0,0,0,170.9,96.92Z"/><path d="M228,96.53s0-.22-.07-.62c0-.2-.07-.44-.11-.71s0-.59,0-.94A9,9,0,0,1,228,93.2a3.37,3.37,0,0,1,.56-1,3.3,3.3,0,0,1,2.27-1,6.19,6.19,0,0,1,2.73.38,8.42,8.42,0,0,1,2.1,1.09,8.08,8.08,0,0,1,1.23,1.1l.43.46s-.09-.2-.27-.57a6.35,6.35,0,0,0-1-1.46,7.39,7.39,0,0,0-2.12-1.6,6,6,0,0,0-3.26-.66,3.93,3.93,0,0,0-3,1.68A3.82,3.82,0,0,0,227.2,93a6.53,6.53,0,0,0,0,1.27c.09.37.17.7.23,1s.22.5.31.68Z"/><path d="M221,96.53s.22-.19.48-.47a4.69,4.69,0,0,1,.91-.74,10.69,10.69,0,0,1,1.72-.73,3,3,0,0,0-.59-.4,2.79,2.79,0,0,0-.76-.2,1.88,1.88,0,0,0-1,.26,1.85,1.85,0,0,0-.84,1.58A2.72,2.72,0,0,0,221,96.53Z"/><path d="M266.9,87.59a4.6,4.6,0,0,0,1-.24,3,3,0,0,0,1.71-1.93,3.32,3.32,0,0,0-.49-2.5,6.17,6.17,0,0,0-.66-.77,8.67,8.67,0,0,0,.07,1,8.22,8.22,0,0,1-.14,2,5.31,5.31,0,0,1-.87,1.73C267.15,87.26,266.9,87.59,266.9,87.59Z"/><path d="M258.74,86.43a3.16,3.16,0,0,0,.65.27,2.18,2.18,0,0,0,1.69-.28,1.64,1.64,0,0,0,.74-1.69,1.48,1.48,0,0,0-.24-.49,1.22,1.22,0,0,0-.12-.15,5.12,5.12,0,0,1-.27.58,2.61,2.61,0,0,1-.8.7c-.34.25-.76.48-1.08.7S258.74,86.43,258.74,86.43Z"/><path d="M272.74,73.6a6.44,6.44,0,0,0,1-.39,3.14,3.14,0,0,0,1.6-2.23,6,6,0,0,0,0-.85c-.08-.25-.16-.49-.25-.72a4.87,4.87,0,0,0-.71-1,7,7,0,0,0-.86-.65,8,8,0,0,1,.59,3.06,5.15,5.15,0,0,1-.78,1.92C273,73.23,272.74,73.6,272.74,73.6Z"/><path d="M261.85,73.21a3.53,3.53,0,0,0,1,0,3.09,3.09,0,0,0,2.21-1.29,2.16,2.16,0,0,0,.32-1.55,2.61,2.61,0,0,0-.47-1.1,3.89,3.89,0,0,0-.53-.54l-.22-.16c-.06,0,.56,1.7-.16,2.68a6.27,6.27,0,0,1-1.39,1.38Z"/><path d="M292.17,35.12l.33.29a4.94,4.94,0,0,0,1,.68,6.07,6.07,0,0,0,4.08.59,4.18,4.18,0,0,0,2.1-1.21,3.37,3.37,0,0,0,.81-1.78,3.5,3.5,0,0,0-.08-1.25c-.06-.28-.1-.43-.1-.43a7.27,7.27,0,0,1-.43,1.51,3.37,3.37,0,0,1-.94,1.19,4.56,4.56,0,0,1-1.65.74,10,10,0,0,1-4.72-.21Z"/><path d="M226.48,24.23s.43.18,1.06.4,1.47.59,2.36,1a18.5,18.5,0,0,1,2.28,1.08,3.55,3.55,0,0,1,.66.44l.25.19-.09-.29a2.23,2.23,0,0,0-.38-.79,5,5,0,0,0-2.22-1.78,5.84,5.84,0,0,0-2.77-.47A7.31,7.31,0,0,0,226.48,24.23Z"/><path d="M56.42,317.51s32,1.22,71.48,1.51c19.74.15,37.6.07,50.54.09s21,.18,20.83.73c.18-.55-7.9-1.34-20.8-2s-30.81-1.2-50.55-1.36C88.43,316.21,56.42,317.51,56.42,317.51Z"/><path d="M130.47,314a190.34,190.34,0,0,0,43.73,0,190.34,190.34,0,0,0-43.73,0Z"/><path d="M136.88,308.18a103.19,103.19,0,0,0,25.57,2.19,19.24,19.24,0,0,0,4.17-.42h0c.09.09.27.24.22.25a2.72,2.72,0,0,0-.31,0,.89.89,0,0,0-.34.16l-.13.12.14-.11a.86.86,0,0,1,.34-.14,1.42,1.42,0,0,1,.31,0s.06-.08,0-.09l-.06-.08-.15-.16h0a18.12,18.12,0,0,0-4.07-1,92.19,92.19,0,0,0-10.08-1.2A97.29,97.29,0,0,0,136.88,308.18Z"/><path d="M34.27,302.35s28.58,1.26,63.84,1.26S162,302.35,162,302.35s-28.59-1.26-63.85-1.26S34.27,302.35,34.27,302.35Z"/><path d="M88.49,291.27s3.42.38,9,.8,13.2.84,21.65,1c8.43.33,16.09.17,21.62.45s9,.11,9,.11-3.38-.59-8.89-1.36a187.41,187.41,0,0,0-21.66-1.71c-8.47-.13-16.14.08-21.68.28S88.49,291.27,88.49,291.27Z"/><path d="M115.89,283.69a72,72,0,0,0,26.82,0,72,72,0,0,0-26.82,0Z"/><path d="M99.57,284.86a7.24,7.24,0,0,0,8.16,0,7.24,7.24,0,0,0-8.16,0Z"/><path d="M88.49,284.28a3.07,3.07,0,0,0,2,1.25,3.07,3.07,0,0,0,2-1.25,3.07,3.07,0,0,0-2-1.26A3.07,3.07,0,0,0,88.49,284.28Z"/><path d="M77.41,283.69a4,4,0,0,0,5.83,0,4,4,0,0,0-5.83,0Z"/><path d="M60.5,284.28a11.65,11.65,0,0,0,10.5,0,11.57,11.57,0,0,0-10.5,0Z"/><path d="M37.77,295.35a205.74,205.74,0,0,0,45.47-.58,205.74,205.74,0,0,0-45.47.58Z"/><path d="M138.63,325.09s5.8.49,15.19,1.1,22.39.92,36.74.83c7.17,0,14-.14,20.2-.28s11.86-.72,16.52-1.07a96.85,96.85,0,0,1,11.08-.35c1.31,0,2.31.21,3,.25l1.06.1-1-.21c-.68-.11-1.68-.38-3-.53a82.22,82.22,0,0,0-11.16-.52c-4.73,0-10.29.36-16.47.21s-13-.15-20.21-.12l-36.7.43C144.46,325,138.63,325.09,138.63,325.09Z"/><path d="M149.71,337.33s8,.3,21,.58,30.92.33,50.73,0c19.79-.11,37.71-.75,50.68-.51,13,0,21-.1,21-.1s-8-.51-21-1.15c-13-.88-30.93-.87-50.75-.76-19.8.3-37.72,1-50.69,1.24S149.71,337.33,149.71,337.33Z"/><path d="M326.38,325.67l-4.45-.23c-2.86-.12-7-.35-12.13-.48-10.24-.3-24.4-.42-40-.33s-29.73.05-40-.17l-16.57-.54,4.42.53,5.19.59c2,.22,4.33.52,6.89.67,10.22.86,24.4,1.5,40,1.44s29.77-.6,40-.93Z"/><path d="M287.31,329.17s-16.52-1.1-36.84-.9c-10.17.11-19.35.48-26.05.91a49.94,49.94,0,0,1-7.83.15,8.5,8.5,0,0,1-2.07-.43,2.18,2.18,0,0,1-.5-.23l-.17-.08.15.11a3.51,3.51,0,0,0,.48.3,8.09,8.09,0,0,0,2.05.72,41.93,41.93,0,0,0,7.92.72c6.64.2,15.87.46,26,.35C270.85,330.59,287.31,329.17,287.31,329.17Z"/><path d="M176,332.67s2.09.32,5.46.69,8,.85,13.2.93a74.41,74.41,0,0,0,13.26-1c1.69-.27,3-.64,4-.84l1.43-.36-1.48,0c-.95,0-2.32,0-4,0l-13.13-.27c-5.13-.07-9.82.09-13.21.34S176,332.67,176,332.67Z"/><path d="M206.27,343.75l19.3.61c11.92.41,28.38,1.09,46.59,1.37s34.73-.32,46.65-1.21c3-.15,5.67-.48,8-.72l6.05-.64,5.15-.58-5.19.19-6.07.24c-2.36.09-5,.26-8,.25-11.92.27-28.37.19-46.56,0s-34.67-.34-46.61-.12c-6,.09-10.8.33-14.13.43Z"/><path d="M215.6,353.66s2.8.31,7.35.61,10.83.53,17.78.42a151.11,151.11,0,0,0,17.73-1.57c4.51-.67,7.28-1.21,7.28-1.21s-2.84-.09-7.38,0-10.8,0-17.7.3c-6.92.11-13.17.55-17.72.84S215.6,353.66,215.6,353.66Z"/><path d="M219.09,364.15s1.4.2,3.66.29a76.56,76.56,0,0,0,8.67-.2c3.34-.21,6.33-.51,8.54-.59l3.62-.08-.91-.36a19.29,19.29,0,0,0-2.58-.81,30,30,0,0,0-8.84-.67,52.06,52.06,0,0,0-8.63,1.46C220.44,363.73,219.09,364.15,219.09,364.15Z"/><path d="M222,370s1.32.33,3.43.7a45.83,45.83,0,0,0,8.37.78,24.35,24.35,0,0,0,8.38-1.58,7.08,7.08,0,0,0,1.35-.62l1-.54.81-.49-.94.12-1.08.15a10.79,10.79,0,0,1-1.41.16c-2.1.2-5,.21-8.14.28a78.33,78.33,0,0,0-8.28.48C223.33,369.68,222,370,222,370Z"/><path d="M346.45,318.06l7.37-.05,7.16.08,13.53.22c6.1.11,11.75.26,16.85.43-.93.51-1.86,1-2.78,1.56l-14.09.14L361,320.5h-7.15l-7.36.07-28,.08c-8.61.12-16.37.18-22.89.21-3.26,0-6.21,0-8.8,0s-4.83,0-6.66-.11a32.59,32.59,0,0,1-3.32-.38C284.74,320.64,312.9,317.9,346.45,318.06Z"/><path d="M390.51,312.26s-4.93-.3-12.91-.57-19-.47-31.15-.61-23.13-.48-31.09-.9l-12.89-.83,3.42.6,4,.69c1.57.26,3.35.59,5.34.79a282,282,0,0,0,31.17,2.16c12.2.14,23.22-.28,31.19-.64S390.51,312.26,390.51,312.26Z"/><path d="M353.78,304.1s-2.56-.21-6.7-.31-9.83-.05-16.09.21-11.9.52-16,.6l-6.68.08,1.76.36c1.14.2,2.79.59,4.85.82a98.81,98.81,0,0,0,16.18.65c6.31-.26,12-.93,16.06-1.47S353.78,304.1,353.78,304.1Z"/><path d="M349.11,300s-1.87-.38-4.93-.79a103.44,103.44,0,0,0-12-.91c-4.64-.22-8.87,0-11.91-.13s-5,.08-5,.08,1.83.52,4.86,1.17a66.81,66.81,0,0,0,12,1.4c4.68.09,8.93-.16,12-.36S349.11,300,349.11,300Z"/><path d="M339.79,293a14.79,14.79,0,0,0-2.26-.56,24.19,24.19,0,0,0-5.41-.27c-2.06.1-3.88.45-5.23.59-.69.13-1.23.11-1.63.17l-.63.07.54.31a7.62,7.62,0,0,0,1.58.7,15,15,0,0,0,5.51.67,24.5,24.5,0,0,0,5.33-1C338.93,293.34,339.79,293,339.79,293Z"/><path d="M340.37,288.36a14.77,14.77,0,0,0-2-.6,21.47,21.47,0,0,0-4.74-.52,44.63,44.63,0,0,0-4.65.32c-.62.08-1.11.09-1.47.14l-.56.07.47.31a8.48,8.48,0,0,0,1.36.72,12.92,12.92,0,0,0,4.84,1,17.45,17.45,0,0,0,4.78-.74A17.7,17.7,0,0,0,340.37,288.36Z"/><path d="M377.68,305.85a21.23,21.23,0,0,0-2.49-.6,32.84,32.84,0,0,0-6-.52c-2.3,0-4.36.21-5.9.32-.77.09-1.39.09-1.83.14l-.69.08.61.31a14.12,14.12,0,0,0,1.75.72,19.36,19.36,0,0,0,6.07.95,28,28,0,0,0,6-.74C376.73,306.17,377.68,305.85,377.68,305.85Z"/><path d="M396.34,305.85a19.87,19.87,0,0,0-6.67-1.35,19.38,19.38,0,0,0-4.72.28,17.29,17.29,0,0,0-2,.49,16.52,16.52,0,0,0,1.9.77,19.79,19.79,0,0,0,4.75,1A18.74,18.74,0,0,0,396.34,305.85Z"/><path d="M411.5,306.43a9.86,9.86,0,0,0-4.32-1.33,10.65,10.65,0,0,0-3.06.32,8.73,8.73,0,0,0-1.36.43,7.71,7.71,0,0,0,1.17.82,7.32,7.32,0,0,0,3.12.94A8.31,8.31,0,0,0,411.5,306.43Z"/><path d="M34.85,260.37S60,262.32,91,263.24c15.51.57,29.56.76,39.73.82h12a30.2,30.2,0,0,1,3.26.07,2.51,2.51,0,0,0,.86,0c.1-.06,0-.16,0-.18l0-.06,0,.05s.11.12,0,.17A2.62,2.62,0,0,1,146,264a28.14,28.14,0,0,0-3.27-.36l-12-.87c-10.16-.68-24.18-1.51-39.67-2.08C60,259.81,34.85,260.37,34.85,260.37Z"/><path d="M71.58,273.78s14.54.78,32.38.31c8.92,0,17-.53,22.85-.55s9.49-.34,9.49-.34-3.6-.43-9.46-.91a226.57,226.57,0,0,0-22.93-.72C86,272.05,71.58,273.78,71.58,273.78Z"/><path d="M327.1,261.28h-.2c-2,0-3.64,0-4.71-.18l-1.64-.15,1.62.26a46.47,46.47,0,0,0,4.71.47h.19C327.07,261.55,327.09,261.42,327.1,261.28Z"/><path d="M171.77,39.61a27.22,27.22,0,0,0-2.89-.87c-1.79-.44-4.25-.93-6.9-1.36A44.2,44.2,0,0,1,155.32,36a6.48,6.48,0,0,1-1.1-.43,5.19,5.19,0,0,1-.82-.41l-.69-.42s.13.25.42.71a4.13,4.13,0,0,0,.61.76,6.46,6.46,0,0,0,1,.89,15.18,15.18,0,0,0,6.86,2.79,27.9,27.9,0,0,0,7.23.14C170.63,39.81,171.77,39.61,171.77,39.61Z"/><path d="M50.16,329.89c5.77.5,9.38,1,9.38,1s-.78.11-2.19.28Q53.78,330.44,50.16,329.89Z"/><polygon class="cls-4" points="38.21 226.32 61.48 231.23 88.44 227.66 106.2 221.55 116.87 211.44 116.48 192.85 118.41 188.46 124.57 184.32 127.8 167.59 120.74 155.22 127.59 148.7 137.72 154.21 146.3 151.97 148.01 149.85 149.38 130.35 149.9 123.1 153.99 103.7 152.09 91.36 142.02 81.9 131.24 76.79 120.36 74.41 117.91 73.54 114.37 69.79 96.84 67.7 84.9 66.51 76.4 65.2 60.71 63.22 46.2 62.17 34.75 62.63 25.21 67.06 16.34 80.69 11.49 96.82 10.39 106.91 10.85 118.36 4.52 132.37 1.41 138.01 2.45 153.02 8.57 162.41 10.89 173.43 11.91 182.04 15.27 190.11 21.86 199.4 24.92 204.09 25.4 210.38 28.4 219.02 31.42 222.5 38.21 226.32"/><polygon class="cls-5" points="16.51 176.37 18.22 184.95 22.27 190.52 26.62 189.94 26.67 182.69 23.7 176.15 20.39 173.15 16.51 176.37"/><polygon class="cls-5" points="6.63 148.85 13.82 154.27 16.84 151.68 16.45 144.39 12.54 136.33 12.4 132.01 9.24 133.33 6.21 142.72 6.63 148.85"/><polygon class="cls-5" points="38.16 217.08 33.25 215.91 30.68 207.96 35.21 204.45 41.98 208.66 39.42 215.05 38.16 217.08"/><polygon class="cls-4" points="38.21 226.32 61.48 231.23 88.44 227.66 106.2 221.55 116.87 211.44 116.48 192.85 118.41 188.46 124.57 184.32 127.8 167.59 120.74 155.22 127.59 148.7 137.72 154.21 146.3 151.97 148.01 149.85 149.15 133.6 130.06 132.29 131.47 121.29 131.75 107.21 133.6 99.88 132.03 93.14 128.02 87.58 124.57 89.85 114.75 95.28 106.29 98.5 99.54 97.36 95.4 90.37 99.23 79.86 104.07 75.17 100.08 74.95 84.54 80.05 79.9 72.77 74.07 66.75 60.71 63.22 57.06 62.96 65.73 67.16 73.93 73.62 76.03 84.42 70.69 100.1 62.89 111.54 49.55 114.44 36.17 110.86 24.11 102.85 17.84 93.89 22.99 75.86 30.68 64.52 25.21 67.06 16.34 80.69 11.49 96.82 10.39 106.91 10.85 118.36 6.29 128.45 18.34 118.53 31.71 121.03 41.18 127.18 55.84 125.14 73.3 122.09 92.63 121.56 101.46 125.36 104.45 136.38 102.18 148.2 94.19 153.41 66.71 156.67 49.51 153.78 38.6 150.04 29.6 153.6 26.44 162.5 36.01 169.47 46.16 171.71 61.02 166.37 83.07 165.83 100.45 166.8 105.77 170.79 106.28 179.25 101.29 188.36 92.44 191.68 72.34 193.43 56.4 192.33 46.69 191.04 40.86 193.86 39.1 201.59 44.58 205.34 51.63 206 61.57 199.29 82.04 201.84 97.09 200.01 101.93 203.69 100.94 215.64 93.05 221.24 69.6 225.66 47.88 224.02 41.73 219.18 32.54 219.23 27.96 217.75 28.4 219.02 31.42 222.5 38.21 226.32"/><polygon class="cls-4" points="38.21 226.32 61.48 231.23 88.44 227.66 106.2 221.55 116.87 211.44 116.48 192.85 118.41 188.46 124.57 184.32 127.8 167.59 120.74 155.22 126.58 149.66 125.3 146.23 127.54 119.33 129.46 111.69 127.98 104.4 129.37 98.19 128.99 96.54 125.17 99.83 124.31 98.94 126.12 95.47 124.4 93.69 117.47 98.57 108.6 105.43 97.36 103.03 89.7 92.61 92.67 78.19 93.39 77.14 84.54 80.05 83.83 78.93 84.28 84.28 82.33 96.51 71.51 112.76 69.46 118.91 87.59 118.17 103.8 122.24 114.73 130.81 113.72 146.09 107.53 153.2 90.03 155.75 68.26 157.77 51.65 156.63 39.58 154.42 34.56 156.25 34.86 163.15 41.74 167.44 51.38 163.88 62.03 160.96 90.58 159.98 110.18 160.87 115.29 169.7 112.33 184.13 102.96 190.67 80.5 194.37 58.82 193.97 46.41 194.03 42.54 197.99 45.7 203.13 51.49 201.78 57.55 196.01 77.1 197.56 102.14 196.53 109.53 201.13 110.19 211.44 104.57 218.19 91.5 223.85 71.21 227.49 57.65 228.25 41.35 223.77 35.46 224.78 38.21 226.32"/><polygon class="cls-4" points="5.78 127.72 5.5 128.39 0.18 137.75 0 138.07 1.11 152.74 1.14 153.07 7.17 162.2 9.91 174.06 10.44 180.8 10.45 181 13.79 189.41 13.83 189.53 21.75 200.7 24.1 204.78 24.29 210.35 25.27 212.87 25.66 213.1 29.8 206.95 28.96 198.61 19.93 190.88 15.26 181.96 14.43 173.62 19.23 166.38 17.89 159.82 6.18 152.54 4.1 142.82 7.78 129.16 5.78 127.72"/><polygon class="cls-5" points="134.26 126.57 131.07 139.74 130.01 148.81 136.05 153.14 145.95 152.86 148.36 148.06 149.03 130.89 147.25 125.92 139.5 123.67 134.26 126.57"/><polygon class="cls-6" points="130.43 145.21 130.01 148.81 136.05 153.14 145.95 152.86 148.29 148.2 141.87 148.61 135.87 147.45 131.03 144.87 130.43 145.21"/><path class="cls-7" d="M153.63,89.84,143.32,80.7l-7.86-4.09-6.75-1.73-8-.61-2.49,0a11.59,11.59,0,0,1,.58,2.15l2.09,0,11.27,2.9,4,2.75,1.41,3-4.06,1.72-.15.62,6.16-.81,3.05.42,1.15.7-4.58.28-4.4,1.76-2.64,1.77.11.59,3-1.07,3.9-.55,5.05.32,4.15,1.43.9.84,2.37,5.67-.69,12.6-2.23,9.88-2.09.84-6.34-1.26-3.57.27-3.1,2.14-1.52,5.33-.78,5.12-1.47,9.64-1.28-1.57,0-4,.25-5.52.1-2.12.1-5,.82-10.66-3.22-6.91-.1,0-.43-4.06-1.68-.23-.4,3.54-1.74.28-.53-3.83a10.67,10.67,0,0,1-5.64,3.67l-.09.19-10.24,2.5-1.84-.2c-4.08,1.56-8.16,3.5-12.42,4s-7.95-1.07-12-1c-3.25,0-6.61,1-9.92,1.48l-.91,1.1-3.2,3.87,8.88-.61,5.33-.37,23.39-.29,2.72,0L116.68,119l3.73,2.74,2.09,6.9v0l.12,12.08L121,145l-1.8,4.69-5,3.39-5.95,1.69L96,157l-7.36.53-18.31,1.33-15.4-.48-8.76.07-8-1.3-.27.7,7.79,3.32,5.74-.29.12,1.89-6.58,2.85-2.21,1,.16.87,3.71-.88L61.46,163l9.36,1.12L95.7,163l2-.24,11.1-1.34L115,160l4.36.68,3.77,4.11,1.38,8.9-1.26,3.71-2.16,6.39L114.56,189l-11.14,3.46-9,1.61L87,195.38,70,196l-13.6-.56-9.69,2.53-1.6.42,0,1,4.22.08,3.79.07-1.37,1.32-3.08,2.94.62.93,4.28-2.83,3.59-2.37,2.5-1.82,10.63,1.26L87,200.23l13.67-2.54,3-.55,5.65-1.69,3.92,2.42,1.63,5.85-.38,1.89-1.34,6.68L103.43,221l-10.07,3.73-2.62,1-27.08,4.7-23.61-5.49-2.95-5.78v-4.75l-.64,0-.86,4.51L37,224l-2.36-1.65-2.26-7.46.8-6.7-.75-.42-2.09,7.07,1.1,5.84-.64-.43-4-10.35-.2-5.76-2.7-4.67,0-.05-7.79-11-3.16-8-.16-2-.36-4.61v-.1L9.52,161.43l0-.21-5.93-9-.83-10.88-.21-2.72,5.18-9.12.05-.08,4.17-10,.08-.21.11-5.65.08-3.79.25-10.85,4.23-17.82,9.25-14.4-1.49-1.94L14.25,80.38,10.13,98.09l-.35,10.16-.09,3.9-.15,6.5-4,9.74L.18,137.75l-.18.32.14,1.81,1,12.86,0,.33,6,9.13,2.74,11.86.22,2.83.31,3.91v.2l3.34,8.41,0,.12,7.92,11.17,2.35,4.08.19,5.57,4.43,11.5,7.1,4.73,27.53,7.31.28.08,28.29-4.08,6.58-2.21,6.85-2.28.29-.08,12.29-12,.38-.36.62-4.76.77-6-.92-10.69,7.67-5.6.35-.25,1.47-5.33,1.83-6.63-.95-9.42-3.59-7.13,2.23-2.18L138.53,156l1.26-.22,4.86-.82,3.72-2.26,1.42-8.35.35-2,.86-15.46,1.75-5.15,1.81-9.45L156,98.75Zm-6.06,52.35-.16.81-1.47,7.35-2.8.72-3.38,0-5-1.14-3.12-2.24,2.11-12.53.4-2.39,1.33-4.31,1.92-1.77,3.31-.16,5.56,1.65,1.62,2.77,0,3Z"/><polygon class="cls-7" points="9.06 135.78 5.55 141.67 5.49 141.87 5.53 142.98 5.72 148.82 10.57 155.57 11.36 155.24 8.17 148.25 8.04 144.42 7.96 142.19 9.92 135.81 9.06 135.78"/><polygon class="cls-7" points="115.15 141.64 113.98 147.7 114.72 147.85 116.7 142.53 118.32 138.19 117.87 130.99 114.21 124.41 113.6 124.67 115.44 131.42 115.85 138.02 115.15 141.64"/><polygon class="cls-7" points="107.06 130.55 107.02 136.97 106.99 140.57 106.66 148.72 107.33 148.82 109.45 140.63 109.47 138.37 109.52 130.75 108.37 125.78 107.72 125.58 107.06 130.55"/><polygon class="cls-7" points="10.7 145.95 13.78 152.02 14.3 151.94 13.22 147.4 12.73 145.31 13.06 138.8 12.41 138.79 10.48 145.52 10.7 145.95"/><polygon class="cls-7" points="17.26 176.28 16.5 180.55 16.04 183.2 19.31 190.32 19.83 190.02 18.09 182.78 18.06 181.44 17.95 176.26 17.26 176.28"/><polygon class="cls-7" points="110.37 170.02 110.45 173.66 110.21 178.79 108.26 186.96 109.04 186.99 112.02 179.37 112.91 173.82 112.49 171.24 111.21 163.4 110.21 163.59 110.37 170.02"/><polygon class="cls-7" points="117.23 178.25 115.44 182.87 115.9 182.94 118.57 178.81 119.42 175.22 119.91 173.15 117.25 164.04 116.55 164.16 117.43 173.01 117.39 174.06 117.23 178.25"/><polygon class="cls-7" points="109.52 206.26 109.28 211.81 110.39 211.97 111.78 206.12 110.65 203.4 109.73 201.21 108.83 201.5 108.97 202.44 109.52 206.26"/><polygon class="cls-7" points="20.27 183.61 22.16 187.32 22.91 187 22.12 183.78 22.04 183.44 21.64 179.98 20.88 179.97 20.41 182.79 20.27 183.61"/><polygon class="cls-7" points="102.3 198.87 103.93 204.06 104.4 209.41 103.16 215.86 104.41 216.36 106.87 209.54 106.36 203.58 103.31 199.19 103.02 198.77 102.67 198.82 102.3 198.87"/><polygon class="cls-8" points="24.3 87.02 24.69 77.74 31.04 71.46 31.77 71.88 27.32 78.91 24.92 87.26 24.3 87.02"/><polygon class="cls-9" points="133.64 147.25 136.78 148.66 139.6 130.33 140.09 128.08 137.93 128.92 136.06 132.51 133.64 147.25"/><polygon class="cls-8" points="14.66 110.7 18.36 115.05 26.24 117.44 43.56 120.45 38.46 117.27 25.37 115.53 19.5 113.94 14.66 110.7"/><polygon class="cls-5" points="50.28 216.35 54.9 220.92 79.76 220.78 93.56 217.15 96.99 209.44 94.72 203.28 77.37 203.35 61.43 204.97 51.67 209.75 50.28 216.35"/><polygon class="cls-5" points="44.74 179.99 49.61 187.43 70.41 190.53 91.85 188.26 100.26 181.28 100.15 172.73 91.32 168.93 73.88 168.6 56.94 171.29 46.99 175.28 44.74 179.99"/><polygon class="cls-5" points="35.28 141.19 40 146.16 55.77 151.9 79.68 152.19 95.31 148.34 98.68 138.56 98.2 128.42 87.59 124.19 65.67 126.16 48.02 129.44 38.84 132.21 35.28 141.19"/><polygon class="cls-5" points="138.79 116.47 145.26 118.15 148.46 112.63 149.43 101.25 147.12 94.41 141.32 93.15 137.38 97.98 136.35 110.96 138.79 116.47"/><polygon class="cls-5" points="101.88 81.06 101.33 84.95 114.7 87.63 121.84 84.08 124.19 79.91 118.8 77.26 108.76 78.3 103.92 79.28 101.88 81.06"/><path class="cls-7" d="M125.66,90.57a44.39,44.39,0,0,1,.66-8.32,80.76,80.76,0,0,1-6.19-11.79c-.44-.62-.86-1.25-1.25-1.89-.25-.42-.48-.85-.71-1.27-1.32-.24-2.64-.52-3.94-.86l-.74.11-6.13-1.42L96.26,63.8l-2.05-.25L69.33,62.44l-18.76-.22c0,.13-13.64.07-15.76.46-2.7.49-10.17,2.17-10.17,2.17a15.53,15.53,0,0,1,1.14,2.05c0,.94,12.59-2.22,12.34-1.25l33.7.22,18.85,1.26,9.13,1.26,10.63,1.71,2.29,3.37,5,3.39,1.8,4.7,1.62,4.21L121,97.85v0l-2.09,6.9-3.73,2.75-10.91,1.57-2.72,0-23.39-.3-5.33-.36L64,107.78l3.2,3.88,2.48,3a12.6,12.6,0,0,1,1.39-.06c14.12.08,28.1,2.08,42.23.73l.79-.07.56-.1c.73-.12,1.47-.25,2.2-.4,1.75-.36,3.45-.84,5.17-1.35.31-.09.63-.2,1-.31s.89-.41,1.16-.58c.52-.33,1.06-.64,1.58-1a8.72,8.72,0,0,0,.72-.63l.17-.16c.2-.32.38-.65.56-1-.54.83.14-1.74.19-.91C127.71,102.79,125.75,96.65,125.66,90.57Z"/><polygon class="cls-7" points="113.66 84.93 112.49 78.86 113.24 78.72 115.22 84.03 116.83 88.38 116.38 95.58 112.72 102.16 112.11 101.9 113.95 95.15 114.36 88.55 113.66 84.93"/><polygon class="cls-7" points="105.58 96.01 105.53 89.6 105.5 85.99 105.17 77.84 105.85 77.75 107.96 85.94 107.98 88.2 108.03 95.82 106.88 100.79 106.23 100.98 105.58 96.01"/><path d="M148.09,94c-4-10.73-9.86-12-22.41-11a21.67,21.67,0,0,0-2.83.43A16.32,16.32,0,0,1,125,87.78c.35,0,.7-.1,1.06-.13,11.39-.93,14.66-.09,17.66,8,3.44,9.26,6.59,11.07,7.48,11.4l1.64-4.37a.94.94,0,0,1,.19.09S150.83,101.37,148.09,94Z"/><path d="M111.55,68,153,64.46l-.39-4.65L108.6,63.58l-.41,0C109.34,65,110.45,66.51,111.55,68Z"/><path d="M148.41,70.63c-2.07.09-5.07.05-8.78.06-1.85,0-3.88,0-6.07,0s-4.52.07-7,.23-5.06.43-7.74.73c-1.33.26-2.7.49-4.08.77l1.59,2.21c1-.2,1.93-.39,2.87-.6,2.6-.36,5.1-.81,7.53-1s4.73-.45,6.9-.62l6.05-.48c3.7-.33,6.69-.6,8.75-.92l3.19-.46Z"/><path d="M140.17,78.79l.72.49c.47.31,1.13.79,1.9,1.41a25.18,25.18,0,0,1,5.1,5.65,22.06,22.06,0,0,1,3,7,19.24,19.24,0,0,1,.41,2.32l.11.87s0-.31.09-.87a14.22,14.22,0,0,0,0-2.41,16.28,16.28,0,0,0-2.56-7.56,17.44,17.44,0,0,0-5.8-5.48A15.25,15.25,0,0,0,141,79.11Z"/><path d="M142.66,77.05s.57.45,1.47,1.09A27.81,27.81,0,0,1,147.28,81c1.11,1.21,2,2.42,2.73,3.32s1.13,1.45,1.13,1.45-.18-.69-.59-1.76a12.5,12.5,0,0,0-2.35-3.86,10.8,10.8,0,0,0-3.75-2.55A18.4,18.4,0,0,0,142.66,77.05Z"/><path d="M145.9,74.31a11.21,11.21,0,0,0,.79.9,26.43,26.43,0,0,0,2,1.89,21.1,21.1,0,0,1,2,1.77c.46.51.69.93.72.92a4.23,4.23,0,0,0-.17-1.22,5.42,5.42,0,0,0-1.7-2.43A9.09,9.09,0,0,0,147,74.69,9.29,9.29,0,0,0,145.9,74.31Z"/><path d="M134.93,78.05a3.93,3.93,0,0,0,1.9,1,3.74,3.74,0,0,0,2.09-.47,4.12,4.12,0,0,0-1.92-.78A4,4,0,0,0,134.93,78.05Z"/><path d="M129.2,78.3a3.52,3.52,0,0,0,4,0,3.47,3.47,0,0,0-4,0Z"/><path d="M125.46,79.29a2.07,2.07,0,0,0,.48.29,1.93,1.93,0,0,0,1.22.12,2,2,0,0,0,1-.68,2.09,2.09,0,0,0,.29-.48,3.07,3.07,0,0,0-.54-.1,3,3,0,0,0-1.07,0,3.12,3.12,0,0,0-1,.47A3.83,3.83,0,0,0,125.46,79.29Z"/></g></g></svg>