<svg xmlns="http://www.w3.org/2000/svg" xmlns:xlink="http://www.w3.org/1999/xlink" viewBox="0 0 627.54 534.26"><defs><style>.cls-1{fill:#f7d3c0;}.cls-2{fill:#fff5ee;}.cls-3{fill:#fce1d6;}.cls-4{fill:#010101;}.cls-5{fill:url(#Unbenannter_Verlauf_5);}.cls-6{fill:none;}</style><linearGradient id="Unbenannter_Verlauf_5" x1="233.05" y1="478.31" x2="418.16" y2="478.31" gradientUnits="userSpaceOnUse"><stop offset="0" stop-color="#a0b9d7"/><stop offset="1" stop-color="#a9bbd5"/></linearGradient></defs><g id="Ebene_2" data-name="Ebene 2"><g id="Ebene_2-2" data-name="Ebene 2"><path d="M480.41,410.91c-.3,1.13-.94,2.17-.62,2.55,12.66,15,25.4,29.94,38.85,44.41C508.84,440.64,494.85,426.08,480.41,410.91Z"/><path d="M473.9,419.06c-.12.63-.67,1.65-.32,2q20.19,22.32,40.64,44.45C503.17,448.56,490.26,432.81,473.9,419.06Z"/><path d="M445.68,441.76,485,478.61C481.53,470.46,455.17,444.68,445.68,441.76Z"/><path d="M473.92,481c-2.05-6.94-22.91-25.88-35.62-31.47Z"/><path d="M465.17,431.41q15.63,16.84,31.25,33.68l1.16-.84a171.17,171.17,0,0,0-30.94-33.9Z"/><path d="M486.5,406.58l29.62,33.52,1.52-1.08C508.43,427.38,499,415.88,488,405.49Z"/><path d="M484.05,461.34l-25.77-27.43c-.52,2.19-1.46,3.88-1,4.38,8.28,8.18,16.75,16.2,25.17,24.26Z"/><path d="M414.42,463.45l31.69,24.72c-7.87-10.89-19.12-18.46-30.44-25.95Z"/><path d="M435,491.06l-30.54-24.33L403,468.22l30.39,24.39Z"/><path d="M426.75,456.92l24.91,19.83,1.28-1.27-24.64-20.1Z"/><path d="M414.77,490.36l-20.4-16.55-1.85,1.93,21,16Z"/><path d="M492.06,399.34l14.22,15.79,1.51-1.08-14.13-15.79Z"/><path d="M521.39,428.82l-11.94-13.3-1.53,1.06,11.89,13.34Z"/><path d="M497.61,369c1.16-.21,2.24-.78,2.6-.43,14,13.72,28,27.53,41.44,42C525.19,399.56,511.68,384.54,497.61,369Z"/><path d="M506.23,363.13c.63-.07,1.69-.54,2-.17q20.78,21.78,41.36,43.79C533.49,394.49,518.74,380.46,506.23,363.13Z"/><path d="M466.59,372.16c7,1.86,26.48,22.23,32.4,34.78C488.22,395.39,477.46,383.83,466.59,372.16Z"/><path d="M519.18,355.33,550.48,389l-.92,1.09A171,171,0,0,1,518,356.72Z"/><path d="M492.85,374.78l31.26,32-1.19,1.44c-10.93-10-21.72-20.26-31.27-32Z"/><path d="M547.64,376.36l-25.46-27.71c2.22-.36,4-1.18,4.43-.63,7.55,8.85,14.94,17.88,22.36,26.87Z"/><path d="M486.1,420.86q-12.77-15.53-25.54-31c11.09,7.58,18.95,18.63,26.74,29.75Z"/><path d="M461.79,403.31l25.12,29.89-1.46,1.51L460.28,405Z"/><path d="M494.21,416Q484,403.82,473.73,391.63l1.24-1.31,20.75,24.09Z"/><path d="M456.9,418.16q8.53,10,17.08,20L472.1,440l-16.54-20.6Z"/><path d="M485.23,379.8l14.7,15.34-1.19,1.43L484,381.32Z"/><path d="M512.48,411.21l-12.4-12.87,1.17-1.45q6.22,6.41,12.44,12.83C513.28,410.21,512.88,410.71,512.48,411.21Z"/><path class="cls-1" d="M610.84,288.54c-.43-.43-.81-1-1.2-1.41A41,41,0,0,0,604,283l-1.58-.94a28.4,28.4,0,0,0-3.46-1.64,40.27,40.27,0,0,0-6.64-1.9,22.26,22.26,0,0,0-3.64-.39,37.83,37.83,0,0,0-4.62-.29c-1.81.09-3.48.56-5.3.53a9.56,9.56,0,0,0-2.24.41l-3.06.71c-2.54.7-5.31,1.66-7.89,2.59-2,.74-4,1.63-6.06,2.34-1.28.45-2.31.7-3.57,1.2-.65.3-1.5.88-2.27,1.2a19.48,19.48,0,0,0-2.15,1.06c-1.41.8-3,1.27-4.41,2-1.65.84-3.24,1.71-4.91,2.49-1.08.52-2.1,1.07-3.22,1.53-.69.28-1.28.75-1.95,1.07s-1.32.42-2,.67-1.06.54-1.61.77c-.86.35-1.83.48-2.67.86a18.66,18.66,0,0,0-4.08,2.87,44,44,0,0,0-6.54,6.89,19.94,19.94,0,0,0-2.37,3.93c-.21.46-.35,1.4-.88,1.6a.69.69,0,0,1-.91-.48c-.12-.54.5-1.52.73-2a19.82,19.82,0,0,1,1-1.92,28.36,28.36,0,0,1,2.76-3.69c2-2.34-3-2.86-4.14-2.49-1.37.46-2.59,1.16-3.94,1.67-.78.3-1.57.62-2.35.95-1.41.59-2.81,1.19-4.17,1.88-.68.34-1.28.68-1.93,1a7.27,7.27,0,0,1-2.68,1,8.84,8.84,0,0,1-2.64,1.32,21.88,21.88,0,0,0-2.7.88c.13,0,0,0,0,0l.09,0c-.72.19-1.42.81-2.17,1.06a13.39,13.39,0,0,0-2,.69,35,35,0,0,1-5.2,1.93c-2.91.85-5.78,1.77-8.65,2.71a47.73,47.73,0,0,1,5.56,4.14c.52.45,1.93,1.37,1.5,2.17-.53,1-1.4-.28-1.81-.67a28.51,28.51,0,0,0-4.46-3.59A12.45,12.45,0,0,0,474,318c-.79.73,8.66,10.88,7.08,11.76-.79.45-1.18-.79-1.48-1.28-.52-.86-1.08-1.68-1.68-2.48-1.24-1.67-4.1-1.87-4.37-.48a33.78,33.78,0,0,0-.94,4.08,19.06,19.06,0,0,1-1.4,4.77c-.28.78-.35,1.69-.6,2.51-.36,1.13-.79,2.2-1.23,3.3-1.18,3-2.27,6-3.72,8.91-.72,1.45-1.4,2.92-2.17,4.34a12.77,12.77,0,0,1-2.68,3.88,14.14,14.14,0,0,0,1.58-4.14c.44-1.51.79-3,1.22-4.55.88-3,1.49-6.06,2.23-9.11.47-1.93.8-3.81,1.09-5.76.23-1.58.85-2.84.9-4.46a36.7,36.7,0,0,1,.57-4,29.21,29.21,0,0,0,.09-4.77c0-.71-.07-1.43-.16-2.13a17.72,17.72,0,0,0-.79-2.25,30,30,0,0,1-.68-4c-.17-1.34-.21-2.7-.35-4a38.81,38.81,0,0,1,0-4.17,76.9,76.9,0,0,1-.26-8.07c.07-1.08.2-2.07.21-3.17,0-1.4-.13-2.8-.06-4.21.15-2.67.53-5.34.47-8-.06-2.5.2-5,.2-7.46,0-2-3.92-2.27-6.27-1-.35.19-.87.62-1.29.52a.72.72,0,0,1-.52-.92c.15-.41.87-.6,1.21-.78.51-.28,1-.56,1.52-.86a20.07,20.07,0,0,0,3-2.14c.65-.59,1.52-5.64,1.33-6.1-.85-2-1.64-3.93-2.48-5.9s-1.9-3.58-2.72-5.47A23.31,23.31,0,0,0,459,247.2c-1.39-2.26-2.44-4.69-3.77-7-1.09-1.89-2.26-3.73-3.34-5.63-3-5.28-6.21-10.63-8.31-16.36a28.17,28.17,0,0,0-7.27-10.8c-.31-.23-1-.93-1.37-1.23-.94-.74-2.06-1.36-3-2-4.3-2.89-9.85-5.23-15.15-5.26a7.78,7.78,0,0,0-2.42.19,34.71,34.71,0,0,1-3.49.83,3.84,3.84,0,0,0-1.57.67,21.26,21.26,0,0,1-2.24,1,16.29,16.29,0,0,0-1.51,1l-1.48,1a23.17,23.17,0,0,0-5.5,6.34c0,.05-.2.38-.26.49a9.78,9.78,0,0,0-.53,1.19l.06-.1a2.22,2.22,0,0,0-.12,1.75c-.12-.07-.26-.08-.37-.15a15.92,15.92,0,0,1,1.15,3.23,20.46,20.46,0,0,1,.59,2.17c.08.43.09,1.1.18,1.41a24.24,24.24,0,0,1,.82,2.45c.2,1,.46,1.83.72,2.77.2.75.22,1.53.38,2.28.27,1.31.64,2.62,1,3.91,1.12,4.11,6,9.8,6.66,9.24a54.93,54.93,0,0,0,4.05-3.88,43.55,43.55,0,0,0,3.62-4.28c.44-.6,1.95-3.74,2.89-2.68.49.55-.31,1.33-.62,1.77-.54.79-1.1,1.56-1.68,2.32a45.53,45.53,0,0,1-3.78,4.31,40,40,0,0,1-4.16,3.87,20.37,20.37,0,0,0-2.14,1.66c-.44.44-1.15,3.91-1,5.6a39.77,39.77,0,0,0,1.06,5.43,53.37,53.37,0,0,1,.79,6c.22,1.89.84,3.77.81,5.68-.49-1.69-1.4-3.2-2-4.85s-1.19-3.18-1.63-4.8c-.48-1.78-1.25-3.53-1.87-5.27-.36-1-.47-2.06-.81-3.06s-.95-2.3-1.31-3.45c-.22-.75-.35-1.52-.6-2.26-1.57-4.63-3-9.32-4.35-14-.19-.68-.23-1.39-.42-2.07-.29-1-.66-1.89-.9-2.89a18.85,18.85,0,0,0-.79-2.05c-.23-.66-.24-1.61-.42-2.11v0c-.37-1.18-.79-2.33-1.19-3.49,0,0-.27-.38-.39-.5v0c-.75-.53-1.66-1.32-2.37-1.73-.88-.52-2.4-.95-3.48-1.42a20.69,20.69,0,0,0-2.77-1c-2.27-.61-4.64-.81-6.92-1.37-.52,0-1.06.11-1.58.11a33.05,33.05,0,0,1-3.3-.23,16.59,16.59,0,0,0-3,.25,24,24,0,0,0-3.55.64,17.71,17.71,0,0,0-5,1.91c-.6.53-1.07,1.17-1.71,1.69a10.62,10.62,0,0,0-1.7,2.26c2.28-.71,4.62-1,6.9-1.63a46.84,46.84,0,0,1,7.25-1.19,41.44,41.44,0,0,1,6.76-.61c1,0,3.78.09,3.92,1.54.08.79-.7.82-1.16.53a3,3,0,0,0-1.3-.61,17.19,17.19,0,0,0-4.91,0c-2.23.28-4.48.49-6.7.86s-13.06,5.27-13.4,6.33c-.65,2-1.29,4.05-1.74,6.06-.25,1.1-.48,2.7-.69,3.81-.46,2.41-.64,4.87-1,7.29-.11.69-.31,1.39-.37,2.09s.08,1.25,0,1.87c-.06.83-.37,1.59-.4,2.42,0,.45,0,.91,0,1.37,0,1.67-.35,3.34-.31,5s-.21,3.16-.31,4.76c-.29-1.42-.34-2.88-.66-4.31-.4-1.78-.45-3.6-.71-5.41a21.07,21.07,0,0,1-.19-3.46c0-1.21-.34-2.33-.26-3.57.19-2.77.06-5.55.25-8.33.08-1.24-2.78-4-2.58-3.71a25.22,25.22,0,0,0-2.35-2.71l-.13-.13-1-1c-.08-.08-.26-.24-.13-.13a22.75,22.75,0,0,0-10.06-5.64,25.74,25.74,0,0,0-5-.71,35,35,0,0,0-4.21,0c-.73.07-1.44.32-2.17.41-1.35.17-2.49.64-3.82.89,3.6.05,7-.17,10.49.87.62.18,3.89.84,3.05,2-.44.57-1.1.12-1.6-.09a11.77,11.77,0,0,0-2.44-.85c-3.53-.73-17.33,1.51-18.22,2.06a11.1,11.1,0,0,0-2.42,2,26.47,26.47,0,0,0-3.47,3.94c-.33.5-.59,1.05-.91,1.56s-1,1.18-1.11,1.4a31.3,31.3,0,0,0-2.36,5.52c-.77,2.16-1.68,4.25-2.38,6.43-.31,1.44-.93,3-1.15,4.51a40,40,0,0,1-1.34,5.57c-.53,1.83-.69,3.75-1.4,5.53-.58,1.47-.84,3.07-1.3,4.59.36-3.12.64-6.22.9-9.36.13-1.59.34-3.2.55-4.79.15-1.16.12-2.32.26-3.48a35.59,35.59,0,0,1,.83-4.61c.25-1,.32-2,.63-3s.63-2.2.92-3.31c.14-.56.26-1.12.44-1.67.11-.35.52-1,.46-1.32s-.55-.67-.7-.91l.06,0-.07-.06c-.1-.07.12.06.09,0-.23-.34-1.15-.53-1.51-.72s-1-.49-1.51-.7a13.88,13.88,0,0,0-1.32-.51,15.9,15.9,0,0,0-4.92-.18c-.46.07-1.16.33-1.72.45-1.12.23-2.28.35-3.38.66a18.21,18.21,0,0,0-1.77.72c-.72.28-1.48.46-2.17.8a35.64,35.64,0,0,0-3.81,2.08c-2.6,1.71-5.38,3.29-7.6,5.5,3.13-1.75,6.51-3.23,9.78-4.7,1.65-.74,3.31-1.45,5-2.11.66-.25,3.47-1.78,3.89-.79.49,1.15-2.55,1.69-3.2,1.94-1.71.65-3.4,1.37-5.07,2.12-3.35,1.5-17.77,11.3-18.33,12.42a29.61,29.61,0,0,0-2.37,6.65,37.55,37.55,0,0,0-1.06,4.37c-.28,2.5-1.24,4.9-1.45,7.43a46.66,46.66,0,0,1-.94,5.1c-.46,2.33-.89,4.62-1.16,7-.1.85-.37,1.67-.5,2.52-.1.67-.12,1.36-.25,2s-.36,1.11-.46,1.68c-.16.94-.18,1.9-.37,2.85-.51,2.51-.68,5-1,7.56-.17,1.3-.54,2.54-.7,3.83-.2,1.52-.32,3-.56,4.51-.32,2-.35,4-.74,6-.07.36.1,1.15.07,1.62-.05.81-.34,1.56-.41,2.36-.19,2.56-.45,5.11-.74,7.66-.14,1.2-.41,2.44-.44,3.64,0,.59.09,1.18,0,1.77s-.35,1.42-.38,1.93c-.19,2.41-.19,4.84-.44,7.25-.28,2.77-.07,5.5-.19,8.27a66.27,66.27,0,0,0,0,6.76c.07,1.2,0,2.36.12,3.56a36.19,36.19,0,0,1,.19,4c0,1.33.31,2.7.39,4s.28,2.83.37,4.25c0,.63-.05,1.26,0,1.88.07.45.22.89.29,1.34.12.73.13,1.47.2,2.2.63,6.3,1.7,12.49,2.72,18.73.27,1.66.79,3.27,1,4.94a27.33,27.33,0,0,0,.88,4.11c.48,1.59.49,3.26.94,4.84.29,1,.67,2,.93,3,.21.85,1.09-1.56,1.24-3.61s.61-3.74.86-5.64c.28-2.18.52-4.29,1-6.43.52-2.33.79-4.86,1.49-7.14-.07,1.4,0,2.85,0,4.27s-.13,3-.25,4.56,0,3.07,0,4.61-.21,2.86-.21,4.29.09,2.65.06,4c-.05,1.71-.3,3.49-.34,5.16-.06,3-.2,6-.27,9-.06,2.45-.36,4.86-.34,7.32,0,1.55-.22,3.14-.34,4.69-.09,1.18-.07,2.37-.15,3.56-.11,1.6-.37,3.17-.42,4.79,0,1-.29,1.91-.34,2.86,0,.75.13,1.48,0,2.23-.21,1.86-.4,3.71-.54,5.57-.08,1.15-.13,2.29-.21,3.44s-.1,2.42-.12,3.67c0,1.76-.36,3.56-.46,5.32,0,.86-.26,1.68-.37,2.53-.17,1.33,0,2.65-.11,4-.15,1.88-.39,3.73-.48,5.62-.12,2.51-.58,5-.72,7.47a25.1,25.1,0,0,1-.09,2.6c-.1.67-.21,1.34-.31,2,9.42-2.21,15,5.08,24.63,3.84,3.53-.45,30.81-.46,45.17-2.28s37.95-1.65,42.88-1.72,34.63-15.9,39-17.6l.54-2.23c.33-1.37.8-2.71,1.1-4.08.34-1.54.62-3.07,1.06-4.59.7-2.43,1.16-4.94,1.91-7.35a21.49,21.49,0,0,0,.7-3.16c.23-1.54,1.5-18.09,1.57-19.89s-.07-3.81-.1-5.71,0-3.6-.18-5.41c-.06-.88-.14-1.75-.24-2.62-.06-.48-.44-1.74-.13-2.19a.71.71,0,0,1,1-.05c.45.41.35,1.59.42,2.15.23,1.82.4,3.7.45,5.53.23,7.24-.09,14.48.59,21.71a28.29,28.29,0,0,0,3.27-3.56c1.25-1.36,2.65-2.56,3.91-3.91,1-1.13,2.09-2.23,3.16-3.33.51-.53.94-1.05,1.4-1.61.65-.8,1.54-1.32,2.23-2.06s1.64-1.74,2.48-2.5,1.67-1.56,2.5-2.36a23.68,23.68,0,0,1,2.13-1.6c.61-.48,1.28-1.17,2-1.67,1.85-1.33,3.59-2.78,5.43-4.11,1-.72,1.86-1.59,2.91-2.27.56-.37,1.09-.78,1.62-1.18l1.46-1.05c.32-.22.64-.45,1-.65s1-.36,1.27-.62a.18.18,0,0,0-.07.05l0,0a67.28,67.28,0,0,1,6.5-4.27l0,0c3.1-1.92,6.06-4.08,9.3-5.68a26.69,26.69,0,0,0,3.3-2c1.24-.87,2.73-1.32,4-2.08a34.13,34.13,0,0,1,3-1.73c.77-.34,1.56-.68,2.3-1.07,1.32-.71,2.58-1.5,4-2.1,2.82-1.21,5.51-2.72,8.37-3.85.66-.26,1.34-.47,2-.74a4.13,4.13,0,0,0,1.09-.55c.36-.32.63-.76,1-1.09,1.41-1.3,3-2.49,4.31-3.83a19.32,19.32,0,0,0,1.38-1.44c1.15-1.36,2.39-2.58,3.63-3.85a22.6,22.6,0,0,0,1.88-2c.69-.91,1.63-1.55,2.33-2.34l.09-.09c.15-.15.7-1,1-1.37.46-.5,1.12-.94,1.54-1.38l.07-.07,0,0a81.36,81.36,0,0,1,6.41-6.59c1.57-1.43,3.15-2.84,4.75-4.25l0,0a23.71,23.71,0,0,1,4.34-3.88c1.51-1.24,3.07-2.41,4.6-3.61a18.2,18.2,0,0,1,3.14-2.39c2.06-1.66,4-3.5,6.48-4.61a22.54,22.54,0,0,1,3.39-2.23c1.63-1,3.21-1.95,4.88-2.87,1.14-.64,2.19-1.46,3.36-2.09s2.68-1.11,3.72-1.65c.75-.37.23-4.44-.95-6-.5-.68-.88-1.44-1.38-2.12-.33-.46-1.18-1.12-.7-1.74.9-1.16,2.7,2.25,3.13,2.87a43.49,43.49,0,0,1,3.25,5.17,10.59,10.59,0,0,0,1.22-3.32c-.11-.82-.21-1.64-.39-2.44-.1-.46-.44-1.11,0-1.48a.69.69,0,0,1,1,.24,6.3,6.3,0,0,1,.48,2.3c.13.87.22,1.75.36,2.62,2.68-1.94,5.29-4,8.15-5.68s5.51-3.36,8.38-4.84c1.08-.56,2.08-1.25,3.16-1.8.07,0,.47-.16.51-.25a7.08,7.08,0,0,0-.53-1.66c-.29-.9-.58-1.79-.83-2.7-.93-3.29-2-7.42-.22-10.62s6.17-3.84,9.26-4.81a35.19,35.19,0,0,1,5.73-1.39c2-.27,20.83-7.29,20.39-7.73C612,289.28,611.21,288.9,610.84,288.54Z"/><polygon class="cls-2" points="579.76 301.93 577.47 305.52 580.63 313.7 586.6 318.53 604.13 309.15 620.7 303.38 616.83 295.39 602.87 295.39 579.76 301.93"/><path class="cls-3" d="M272.63,272.54s-19.65,2.38-11.36,18.54C261.27,291.08,289,294,272.63,272.54Z"/><path class="cls-3" d="M329.74,267.44s-34,2.38-19.63,18.54C310.11,286,358,288.87,329.74,267.44Z"/><path class="cls-3" d="M370.51,279.93s33.48,6.25,23.67-13C394.18,266.93,348.58,252.09,370.51,279.93Z"/><path class="cls-3" d="M443.38,260.48s-28.21,4.75-14.94,16C428.44,276.51,468.67,274.64,443.38,260.48Z"/><path d="M260.05,412.92c.67-.95,1.08-2.08,1.56-2.11,18.55-1.21,37.1-2.33,55.72-2.65C298.76,412.81,279.76,412.82,260.05,412.92Z"/><path d="M262.39,403.06c.41-.5.85-1.55,1.33-1.56q28.39-.87,56.8-1.45C301.41,403.68,282.15,405.22,262.39,403.06Z"/><path d="M263.08,368.67l50.34,2.67C305.31,374.35,270.76,373.26,263.08,368.67Z"/><path d="M308.82,362.13c-6.38,3.19-32.63,1.37-44.16-3.68Z"/><path d="M266.6,388.9l43.29-.78.05,1.35a160.12,160.12,0,0,1-43.29,1.14Z"/><path d="M260.32,420l42.23-1.8.08,1.76c-14.05,1.36-28.1,2.5-42.23,1.81C260.37,421.15,260.35,420.56,260.32,420Z"/><path d="M299.93,382.11l-35.44.41c1.34-1.8,2.06-3.57,2.73-3.55,10.91.28,21.81.8,32.72,1.26Z"/><path d="M261.27,332.86l36.83,5.45c-12.71,1.78-24.88-.95-37-3.77Z"/><path d="M293.84,328.76,258,323.85l.27-2,35.84,4.77Z"/><path d="M263.5,345.65l29.26,4-.22,1.72-29.3-3.65Z"/><path d="M281.63,315.32l-24.19-3.08c.12-.85.25-1.69.38-2.54L282,313.58Z"/><path d="M258.12,428.57l20-.66.07,1.75-20,.72Z"/><path d="M297.15,429.24l-16.86.59-.09-1.75,16.86-.65Z"/><path class="cls-4" d="M355,249.66c.43.73,1.2,0,1.64-.31a27.61,27.61,0,0,0,7.23-8.59c1.92-3.3,3.76-6.94,4.1-10.79a5.52,5.52,0,0,0-.05-2.59.73.73,0,0,0-1.2-.19c-.31.41,0,1.86-.06,2.38a15,15,0,0,1-.53,3c-1.21,4.4-3.77,8.16-6.38,11.83a16.3,16.3,0,0,1-3.92,3.94C355.36,248.62,354.57,249,355,249.66Z"/><path d="M355,249.66a.55.55,0,0,0,.73.26,2.81,2.81,0,0,0,.72-.45c.46-.35.92-.7,1.35-1.08a21.52,21.52,0,0,0,2.35-2.52,42.18,42.18,0,0,0,6.12-12.12,19.1,19.1,0,0,0,.67-3.21l.16-1.66a4.39,4.39,0,0,0,0-.72c0-.19-.1-.38-.05-.29s.06.08.23.06a.39.39,0,0,0,.21-.12c.11-.17.07-.17.07-.1a3.57,3.57,0,0,0,0,.66l0,.88a5,5,0,0,1-.07,1c0,.31-.1.61-.17.91a14.53,14.53,0,0,1-.47,1.75,27,27,0,0,1-3.18,6.32c-1.28,2-2.71,3.77-4.15,5.58a19.26,19.26,0,0,1-3.8,3.53,3.9,3.9,0,0,0-.69.52A.61.61,0,0,0,355,249.66Zm0,0a.64.64,0,0,1,.08-.8,3.54,3.54,0,0,1,.68-.53c.46-.34.91-.7,1.34-1.08a15.84,15.84,0,0,0,2.26-2.58c1.26-1.93,2.46-3.9,3.51-5.92a28.11,28.11,0,0,0,2.38-6.29,14.82,14.82,0,0,0,.33-1.61c0-.26.07-.53.09-.8a6.48,6.48,0,0,0,0-.7l-.07-.84a4.61,4.61,0,0,1,0-1.06,1.76,1.76,0,0,1,.36-.9,1.61,1.61,0,0,1,.93-.57,1.79,1.79,0,0,1,1.75.7,2.45,2.45,0,0,1,.42,1.34,6.64,6.64,0,0,1,0,1l-.22,1.77a18.61,18.61,0,0,1-.94,3.5,34.91,34.91,0,0,1-3.32,6.22,39.22,39.22,0,0,1-4.22,5.53,25.72,25.72,0,0,1-2.51,2.39c-.44.38-.91.72-1.37,1.06a2.79,2.79,0,0,1-.74.44A.58.58,0,0,1,355,249.66Z"/><path class="cls-4" d="M317.18,242c.44-.92.89-1.82,1.33-2.73.24-.48.43-1.6-.54-1.39-.65.14-1.05,1.61-1.3,2.14-.47,1-.93,2-1.41,2.94a25.34,25.34,0,0,1-7.45,9.2c-1.81,1.37-3.73,2.58-5.64,3.82-.72.46-2.29,1.12-2.74,1.86-.33.54.17,1.45.82,1,3.34-2.3,6.88-4.33,10-6.95S315.39,245.76,317.18,242Z"/><path d="M317.18,242l.79-1.67.4-.83a2.29,2.29,0,0,0,.28-.86c.05-.29,0-.66-.32-.71a.72.72,0,0,0-.73.31,6.91,6.91,0,0,0-.73,1.66l-1.44,3.42a30,30,0,0,1-1.73,3.33,24.75,24.75,0,0,1-4.87,5.8c-2,1.55-4,2.91-6.08,4.34-.62.39-1.15.62-1.64.92a5.08,5.08,0,0,0-.64.42,1.77,1.77,0,0,0-.19.18c0,.08,0,0,0-.07s.06,0-.18-.18a.45.45,0,0,0-.37,0h0l.09-.06.2-.12,1.58-1c2.12-1.28,4.27-2.46,6.3-3.81a22.21,22.21,0,0,0,5.48-4.79A34.37,34.37,0,0,0,317.18,242Zm0,0a48.06,48.06,0,0,1-3.58,6.47,21.53,21.53,0,0,1-2.33,2.91,31.33,31.33,0,0,1-2.77,2.52c-1.93,1.57-4,3-5.95,4.44l-1.49,1.06-.19.14-.09.07-.22.12a1.48,1.48,0,0,1-1.26,0,1.6,1.6,0,0,1-.77-.8,1.71,1.71,0,0,1-.15-.95,1.78,1.78,0,0,1,.38-.9,2.94,2.94,0,0,1,.46-.47,6.59,6.59,0,0,1,.88-.63c.56-.34,1.15-.63,1.56-.91l6.1-4a24.31,24.31,0,0,0,5.11-5,42.58,42.58,0,0,0,3.74-6.29,6.9,6.9,0,0,1,.86-1.66.88.88,0,0,1,.89-.32c.37.11.41.54.37.83a2.45,2.45,0,0,1-.31.87l-.41.83Z"/><path class="cls-4" d="M360,268.7a23.78,23.78,0,0,0-9.49,4.05A50.19,50.19,0,0,0,346,276.1c-.43.37-1.44,1-1.36,1.61s.83.61,1.25.29c1.33-1,2.5-2.25,3.86-3.24a30.7,30.7,0,0,1,4.55-2.77,23.37,23.37,0,0,1,4.92-1.79c.5-.11,1.47-.06,1.57-.7A.72.72,0,0,0,360,268.7Z"/><path d="M360,268.7a19,19,0,0,0-8.59,4.05c-1.25,1-2.49,2-3.67,3.06l-.88.79-.21.2-.27.23-.43.36a1.81,1.81,0,0,0-.28.29c-.06.07,0,.11,0,0s0,0,0-.08a.46.46,0,0,0-.14-.19.65.65,0,0,0-.3-.12l.06,0a1,1,0,0,0,.13-.09l.45-.34.9-.75q.92-.78,1.92-1.53a26,26,0,0,1,4.33-2.41,30.13,30.13,0,0,1,4.62-1.61,13.89,13.89,0,0,1,2.38-.46c.37,0,.84-.24.82-.67A.73.73,0,0,0,360,268.7Zm0,0a.74.74,0,0,1,.85.68.6.6,0,0,1-.27.53,1.78,1.78,0,0,1-.58.22,10.78,10.78,0,0,0-2.3.65,21,21,0,0,0-4.22,2.22,35.65,35.65,0,0,0-3.74,2.88c-.58.5-1.12,1.07-1.72,1.62-.3.27-.61.55-.93.82l-.49.41a2.49,2.49,0,0,1-.38.25,2.19,2.19,0,0,1-.49.21,1.81,1.81,0,0,1-.64.06,1.52,1.52,0,0,1-.81-.31,1.43,1.43,0,0,1-.48-.69,1.66,1.66,0,0,1-.11-.66,1.85,1.85,0,0,1,.46-1.12,3.23,3.23,0,0,1,.57-.55l2-1.46a43.65,43.65,0,0,1,4.19-2.54A29.81,29.81,0,0,1,360,268.7Z"/><path class="cls-4" d="M319.78,247.38a14.55,14.55,0,0,0-1.8,2.29c-.69.86-1.41,1.69-2.09,2.56-1.23,1.59-2.39,3.21-3.65,4.77s-2.55,3.29-3.72,5c-.34.5-1.36,1.54-1.24,2.15a.69.69,0,0,0,1.25.26h0a115.46,115.46,0,0,1,7.31-9.91c1.28-1.6,2.58-3.2,3.84-4.83.34-.43,1.54-1.51,1.35-2.11S320.18,247.07,319.78,247.38Z"/><path d="M319.78,247.38a13,13,0,0,0-1.71,2.24l-1.7,2.25c-1.11,1.53-2.13,3.13-3.18,4.71l-3.07,4.72-.79,1.15c-.32.48-.59.82-.82,1.16a2.38,2.38,0,0,0-.25.43s0,.08,0,0a.34.34,0,0,0,0-.19.25.25,0,0,0-.2-.15.38.38,0,0,0-.33.16l1.69,1.07,0,0h0c.39.2-3.17-2.07-1.69-1.07v0l0-.08.1-.15.2-.3.4-.59.83-1.18c.55-.78,1.16-1.53,1.75-2.27,1.21-1.49,2.49-2.9,3.77-4.3s2.57-2.79,3.82-4.21l.93-1.08c.31-.37.67-.67,1-1a4.57,4.57,0,0,0,.41-.57.75.75,0,0,0,.09-.66.58.58,0,0,0-.55-.36A1.22,1.22,0,0,0,319.78,247.38Zm0,0a1.21,1.21,0,0,1,.65-.27.59.59,0,0,1,.58.36.79.79,0,0,1-.07.7,3.48,3.48,0,0,1-.4.6c-.63.72-1.18,1.47-1.73,2.24-1.11,1.54-2.19,3.11-3.26,4.67l-3.17,4.69-1.56,2.34-.77,1.17-.38.59-.18.3-.09.15,0,.07v0c1.48,1-2.08-1.27-1.69-1.07h0l0,0,1.69,1.07a1.64,1.64,0,0,1-1.53.74,1.71,1.71,0,0,1-1.35-.88,1.67,1.67,0,0,1-.19-.87,1.9,1.9,0,0,1,.17-.65,4,4,0,0,1,.46-.79l1.79-2.2c1.22-1.47,2.44-2.94,3.7-4.35l3.73-4.26c.62-.71,1.26-1.41,1.86-2.13A13,13,0,0,1,319.78,247.38Z"/><path class="cls-4" d="M357.41,235.56c-.28.49-1.53,1.9-.24,2.07.94.12,1.82-2,2.06-2.74.92-2.67,1.92-5.65,1.65-8.5-.05-.54-.31-2.68-1.37-1.84-.41.32-.17.78-.08,1.2a7.43,7.43,0,0,1,.14,2.05,17.72,17.72,0,0,1-.81,4.06A15.62,15.62,0,0,1,357.41,235.56Z"/><path d="M357.41,235.56a3.61,3.61,0,0,0-.78,1.61c0,.31.4.39.65.37a1.11,1.11,0,0,0,.66-.48,8.91,8.91,0,0,0,1.17-3.36,26.56,26.56,0,0,0,.79-6.94,5.65,5.65,0,0,0-.23-1.46c0-.08-.07-.14,0-.11a.63.63,0,0,0,.38.09c.06,0,.07,0,.09,0h0a.41.41,0,0,0,.08-.22,3.14,3.14,0,0,0,.08.66,6.9,6.9,0,0,1,0,1,9.55,9.55,0,0,1-.27,1.94,28.81,28.81,0,0,1-1.18,3.54A20.43,20.43,0,0,1,357.41,235.56Zm0,0a11.09,11.09,0,0,0,1.14-3.46,18.48,18.48,0,0,0,.46-3.58,9.59,9.59,0,0,0-.14-1.72,6.24,6.24,0,0,0-.19-.8,2.89,2.89,0,0,1-.26-1.14,1.45,1.45,0,0,1,.51-1,2.36,2.36,0,0,1,.34-.24,1.58,1.58,0,0,1,.53-.18,1.43,1.43,0,0,1,1.19.41,2.21,2.21,0,0,1,.45.66,6.29,6.29,0,0,1,.46,2.12,15.34,15.34,0,0,1-1.84,7.37,11.77,11.77,0,0,1-1.91,3.23,1.34,1.34,0,0,1-.86.47c-.31,0-.71-.17-.73-.53A4.14,4.14,0,0,1,357.41,235.56Z"/><path class="cls-4" d="M304.35,250.19a23.34,23.34,0,0,1,1.85-1.87,8.93,8.93,0,0,0,1.78-1.8,15.54,15.54,0,0,1,1.25-1.65A13.64,13.64,0,0,0,311.7,241c.21-.49,1.53-2.88.05-2.74-.61.06-.75.85-1,1.31-.34.7-.55,1.43-.87,2.14-.62,1.36-1.88,2.31-2.73,3.52a7.48,7.48,0,0,1-1.46,1.76A17,17,0,0,0,304,248.6c-.35.36-3,2.84-1.13,2.88C303.45,251.49,304,250.56,304.35,250.19Z"/><path d="M304.35,250.19c.5-.51,1-1,1.49-1.55s1-1,1.49-1.53c.77-1.1,1.58-2.46,2.34-3.57a12.17,12.17,0,0,0,.94-1.83c.13-.31.25-.62.36-.94l.36-1a3.07,3.07,0,0,0,.19-.81c0-.1,0-.13,0,0a.49.49,0,0,0,.21.22c0,.05.15.05.12.06s.07,0,.14,0,0,0,0,.06-.09.23-.16.41-.07.18-.13.31l-.1.23c-.26.58-.47,1.26-.84,2a7.58,7.58,0,0,1-1.46,1.9c-.52.53-1.05,1-1.47,1.47a10.73,10.73,0,0,1-1.56,1.63c-.62.45-1.13.85-1.7,1.29a14.38,14.38,0,0,0-1.59,1.42,3.7,3.7,0,0,0-.6.84.41.41,0,0,0,.38.67c.35.09.66-.18.9-.43S304.11,250.45,304.35,250.19Zm0,0c-.23.27-.43.56-.67.83s-.54.55-.93.48a.68.68,0,0,1-.51-.22.66.66,0,0,1,0-.58,3.77,3.77,0,0,1,.54-1,20.24,20.24,0,0,1,1.38-1.66l1.45-1.61a10.52,10.52,0,0,0,1.1-1.71A19.35,19.35,0,0,1,308,243a7.23,7.23,0,0,0,1-1.58c.24-.56.45-1.25.76-2l.12-.26L310,239a4.85,4.85,0,0,1,.25-.59,2.09,2.09,0,0,1,.64-.77,1.7,1.7,0,0,1,1.16-.28,1.59,1.59,0,0,1,.63.19,1.34,1.34,0,0,1,.57.61,1.81,1.81,0,0,1,.12,1.05,5,5,0,0,1-.42,1.24c-.16.35-.37.7-.52,1s-.36.66-.56,1a12.56,12.56,0,0,1-1.37,1.78c-1.08,1.07-1.92,2.05-2.94,3.16-.52.52-1.15.88-1.65,1.39Z"/><path class="cls-4" d="M473.43,381.86a.7.7,0,0,0-1,.55c-.06.64.94.91,1.39,1.13a31,31,0,0,0,4.45,1.76,22.77,22.77,0,0,0,10.49.86c.45-.09.94-.26.85-.84s-.58-.5-1-.47a36.05,36.05,0,0,1-5.3.09A26.26,26.26,0,0,1,473.43,381.86Z"/><path d="M473.43,381.86a.7.7,0,0,0-.95.38c-.16.38.17.72.5.88.69.31,1.43.58,2.14.87a23.69,23.69,0,0,0,4.43,1.16,27.75,27.75,0,0,0,8.86.05,2.39,2.39,0,0,0,.37-.07c.06,0-.06,0-.13.19a.58.58,0,0,0,0,.14l0,.06a.59.59,0,0,0,.22.23c.1.05.14,0,.13,0l-2.21,0a21.52,21.52,0,0,1-4.72-.51A37.3,37.3,0,0,1,473.43,381.86Zm0,0a21,21,0,0,0,8.79,2.45,28.26,28.26,0,0,0,4.5-.21l1.14-.12.57-.07a3.26,3.26,0,0,1,.71,0,1.6,1.6,0,0,1,.67.18,1.41,1.41,0,0,1,.61.65,1.72,1.72,0,0,1,.16.62,1.5,1.5,0,0,1-.09.7,1.75,1.75,0,0,1-1,1,3.59,3.59,0,0,1-.76.2,18.82,18.82,0,0,1-9.47-1.06,35.66,35.66,0,0,1-4.29-1.87l-2.07-1.06c-.33-.16-.68-.56-.49-1A.72.72,0,0,1,473.43,381.86Z"/><path class="cls-4" d="M485.14,378.55c.34.32.66.66,1,1,.82.68,1.6,1.35,2.37,2.1.55.55,1.5,1.87,2.27,2.08.61.17,1.3-.55.73-1.07-1.61-1.44-3.13-2.94-4.77-4.35-.49-.42-1.39-1.71-2.14-1.54s-.65.73-.34,1.14C484.46,378.12,484.91,378.33,485.14,378.55Z"/><path d="M485.14,378.55a18.4,18.4,0,0,0,2.05,1.69l1.11.77a7.86,7.86,0,0,1,1.1.82,11.19,11.19,0,0,0,1,.79,2.32,2.32,0,0,0,.45.25.3.3,0,0,0,.15,0s0,0,0,0,0-.05-.09,0-.13.35,0,.45,0,0,0,0l-.12-.1-.25-.21-.5-.44a32,32,0,0,1-3.58-3.94c-.34-.41-.53-.77-.8-1.11s-.56-.66-.92-.68a.55.55,0,0,0-.49.22.64.64,0,0,0,0,.59C484.35,378.09,484.83,378.25,485.14,378.55Zm0,0c-.32-.29-.79-.42-1-.85a.79.79,0,0,1-.05-.69.81.81,0,0,1,.6-.43,2,2,0,0,1,1.36.52c.38.27.74.6,1,.79a32.65,32.65,0,0,1,4.25,3.21l.49.46.24.23.12.13a1.45,1.45,0,0,1,.25.29,1.48,1.48,0,0,1-.05,1.69,1.65,1.65,0,0,1-1.19.66,1.42,1.42,0,0,1-.69-.1,2,2,0,0,1-.46-.26,4,4,0,0,1-.59-.56,10,10,0,0,1-.8-1.15A26.13,26.13,0,0,0,485.14,378.55Z"/><path class="cls-4" d="M423.2,246.1A35.56,35.56,0,0,0,427,243a26.49,26.49,0,0,0,6-7.57,19,19,0,0,0,1.55-4.4c.11-.5.39-1.22-.12-1.6a.6.6,0,0,0-.95.22,10.58,10.58,0,0,0-.47,2.07,19.9,19.9,0,0,1-.8,2.24,19.09,19.09,0,0,1-2.42,4.08,33.13,33.13,0,0,1-8.29,7.55.71.71,0,0,0-.09,1.09C422,247.18,422.77,246.41,423.2,246.1Z"/><path d="M423.2,246.1a29.81,29.81,0,0,0,4.34-3.75,26.32,26.32,0,0,0,3.49-4.48,20.7,20.7,0,0,0,2.21-5.07c.13-.44.25-.88.34-1.33l.13-.68c.06-.28.1-.47.12-.61s0-.14,0,0a.21.21,0,0,0,.06.08.39.39,0,0,0,.21,0c.25,0,.29-.17.26-.1a1.82,1.82,0,0,0-.11.42,13.56,13.56,0,0,1-.3,1.5l-.53,1.42a13.51,13.51,0,0,1-1.34,2.69,22.17,22.17,0,0,1-3.84,4.49,41,41,0,0,1-4.56,3.58c-.4.28-.8.54-1.21.8l-.61.38c-.2.13-.43.22-.53.43a.7.7,0,0,0,0,.66.57.57,0,0,0,.58.28A3.37,3.37,0,0,0,423.2,246.1Zm0,0a3.4,3.4,0,0,1-1.21.76.63.63,0,0,1-.64-.29.74.74,0,0,1,0-.72c.1-.24.35-.35.53-.49l.58-.43c.38-.28.76-.58,1.13-.88a30.61,30.61,0,0,0,4-4.05,26.15,26.15,0,0,0,3.07-4.65,13.79,13.79,0,0,0,1-2.52l.44-1.29c.11-.31.12-.77.23-1.32a3.47,3.47,0,0,1,.31-.95,1.67,1.67,0,0,1,1.32-1,1.56,1.56,0,0,1,.9.19,1.75,1.75,0,0,1,.61.55,1.94,1.94,0,0,1,.27,1.36,6.62,6.62,0,0,1-.19.79l-.2.71c-.14.49-.3,1-.48,1.43a18.86,18.86,0,0,1-3,5.1,35.45,35.45,0,0,1-4.11,4.11A49.7,49.7,0,0,1,423.2,246.1Z"/><path class="cls-4" d="M375,232.21c-.86-.13-.77.87-.83,1.42-.45,4.23-2.72,8.33-5.07,11.78-1.36,2-3,3.8-4.56,5.65a24.49,24.49,0,0,1-5,4.62c.38-.25,1.46-1,0,0a.71.71,0,0,0,.25,1.26c.63.12,1.82-1.12,2.27-1.49a31.82,31.82,0,0,0,4.32-4.59,46.71,46.71,0,0,0,7.16-10.6,22.05,22.05,0,0,0,1.91-6.38C375.54,233.35,375.79,232.33,375,232.21Z"/><path d="M375,232.21a.59.59,0,0,0-.69.42,3.89,3.89,0,0,0-.11.9,18,18,0,0,1-.27,1.79,23.47,23.47,0,0,1-1,3.48,39.25,39.25,0,0,1-3.23,6.53,64.11,64.11,0,0,1-4.28,5.91,23.33,23.33,0,0,1-5.29,5.25l-1.1-1.61.44-.3.22-.16.05,0,0,0c.14.88-.48-1.9,1.15,1.6l0,0,0,0-.11.08-.44.3-.11.08-.05,0,0,0a.28.28,0,0,0,.08-.11c.06-.15.07-.21-.12-.36a.53.53,0,0,0-.15,0c-.11,0-.13,0-.13,0a1,1,0,0,0,.23-.12,17.38,17.38,0,0,0,1.54-1.26c.52-.42,1-.87,1.51-1.34,1-1,1.89-2,2.86-3.06s1.89-2.09,2.79-3.17a35.9,35.9,0,0,0,4.72-7,25.1,25.1,0,0,0,1.53-3.94,17.81,17.81,0,0,0,.42-2.08,7.48,7.48,0,0,0,.11-1A.69.69,0,0,0,375,232.21Zm0,0a.71.71,0,0,1,.58.78,9.28,9.28,0,0,1-.1,1.06,16.67,16.67,0,0,1-.38,2.09,25.9,25.9,0,0,1-1.32,4.05,36.86,36.86,0,0,1-4.11,7.52c-.81,1.18-1.66,2.33-2.52,3.46a40.25,40.25,0,0,1-2.71,3.36,16.77,16.77,0,0,1-1.6,1.55,17,17,0,0,1-1.72,1.45,2.93,2.93,0,0,1-.73.35,1.69,1.69,0,0,1-.64.06,1.48,1.48,0,0,1-.66-.22,1.7,1.7,0,0,1-.22-2.75l.14-.1.06,0,.11-.07.44-.3.11-.07h0l0,0c1.63,3.5,1,.73,1.14,1.6h0l-.06,0-.22.15-.44.29-1.1-1.61a25.06,25.06,0,0,0,2.72-2.14c.87-.78,1.66-1.62,2.48-2.51a61.34,61.34,0,0,0,4.74-5.39,33.39,33.39,0,0,0,3.74-6.13,17.8,17.8,0,0,0,1.16-3.41,13.23,13.23,0,0,0,.3-1.78,3.83,3.83,0,0,1,.13-.89A.6.6,0,0,1,375,232.21Z"/><path class="cls-4" d="M622.59,298.15a17.51,17.51,0,0,0-1.62-3.24,18.06,18.06,0,0,0-.88-2c-.78-1.24-1.6-2.57-2.49-3.73-.57-.75-1-1.5-1.48-2.28a21.61,21.61,0,0,0-1.75-1.83c-.35-.39-.66-1.09-1.06-1.54s-.65-.69-1-1a21.23,21.23,0,0,0-2.69-2.32,48.08,48.08,0,0,0-6.17-4.13,33.89,33.89,0,0,0-14.6-4.07c-3.09-.18-6.17-.56-9.16.37-.73.16-2.19.13-3.19.33s-1.84.43-2.77.67a56.19,56.19,0,0,0-7.16,2.39c-2.68,1.12-5.36,2.25-8,3.41-1.14.5-2.34.8-3.47,1.31s-2,1.09-3,1.63c-2.44,1.33-5,2.41-7.45,3.78-3.12,1.75-6.31,3.35-9.5,5a13.67,13.67,0,0,1-1.64.54c-.66.25-1.26.62-1.92.88a22.65,22.65,0,0,1-4.88,1.15c-1.86.3-3.72,1-5.55,1.46-1.49.38-3,.69-4.43,1.18-3,1-6.11,1.73-9.2,2.46-1.21.28-2.4.59-3.58,1-.69.21-1.39.43-2.07.68a14.12,14.12,0,0,1-1.59.65.38.38,0,0,0,.13-.06c-.62-.38-3.24.79-3.74,1.2-.62.19-1.31.42-1.88.56a25.24,25.24,0,0,0-3.5,1.28c-.22.09-1,.25-1.42.38-.69.22-1.4.63-2,.88-1.72.69-3.52,1.2-5.27,1.82-1.21.43-2.44,1-3.57,1.51a31.31,31.31,0,0,0-3.46,1.49,28.11,28.11,0,0,0-3,1.11c0-1.21-.12-2.38-.24-3.58s0-2.53-.06-3.82c-.11-2.48-.49-5-.59-7.44,0-.83.08-1.67,0-2.51-.09-1.47-.3-2.91-.42-4.38-.17-2.15,0-4.35-.14-6.51-.07-1.68-.27-3.34-.28-5,0-1.09-.26-2.14-.2-3.23.1-1.53-.06-3.08-.08-4.61,0-1.31,0-2.58-.12-3.89a23.79,23.79,0,0,0-.52-2.4,15.35,15.35,0,0,0-.9-3.35c-.54-1.29-1-2.58-1.47-3.88-.24-.68-.56-1.33-.81-2a17.56,17.56,0,0,0-1.05-2.59,9,9,0,0,1-.69-1.39,56.27,56.27,0,0,0-2.42-5.58c-1-2-1.65-4.24-2.55-6.32-.64-1.5-1.44-2.9-2-4.41-1-2.46-2.08-4.9-3.21-7.29-1-2.15-1.91-4.34-2.92-6.5-.91-1.93-1.54-3.88-2.33-5.86a20.14,20.14,0,0,0-3.58-5.55,21.7,21.7,0,0,0-3.88-3.66c-1.38-.94-2.74-1.91-4.15-2.8-1.05-.67-2.23-1.17-3.31-1.8-.64-.37-1.24-.81-1.88-1.18-1.19-.69-2.58-1.15-3.83-1.72a38.29,38.29,0,0,0-9-2.7,24.74,24.74,0,0,0-4.55-.29c-1.83,0-3.65.76-5.45,1-1.6.25-2.94,1.14-4.44,1.72a14.55,14.55,0,0,0-2.59,1.43,28.51,28.51,0,0,0-9.83,10.2,28.65,28.65,0,0,0-5-2.3,20.8,20.8,0,0,0-4.35-1.39c-1.41-.29-2.83-.54-4.25-.75-.77-.11-1.5-.36-2.27-.47a11.39,11.39,0,0,0-2.26.07c-1.9.1-3.66-.3-5.56,0-1.06.16-2.13.23-3.19.45a30.64,30.64,0,0,0-5.35,1.67,20.71,20.71,0,0,0-3.52,1.61,10.83,10.83,0,0,0-2.13,2c-.42.46-.95.81-1.37,1.28a10.63,10.63,0,0,0-1.33,2.16c-.41.71-1,1.33-1.31,2.07s-.49,1.59-.81,2.25a15.47,15.47,0,0,0-1.5,4.56,24.54,24.54,0,0,0-2.31-2.25,27.2,27.2,0,0,0-3.1-2.68A36.69,36.69,0,0,0,338,214.1a32.23,32.23,0,0,0-12.87-2.71c-1,0-1.95,0-2.94,0a17.41,17.41,0,0,0-2.87.41,37.26,37.26,0,0,0-6.43,1.49c-1.52.53-2.85,1.32-4.33,1.93a13.73,13.73,0,0,0-2.83,1.86c-1,.77-2.14,1.38-3.12,2.23a11.87,11.87,0,0,0-1.52,1.8,43.06,43.06,0,0,0-3.86,5.28,13.28,13.28,0,0,0-3.24-1.22,21.32,21.32,0,0,0-2.94-.81,15.72,15.72,0,0,0-5,.07,40.4,40.4,0,0,0-11.34,3.45,28.51,28.51,0,0,0-4.76,2.74c-2,1.36-4,2.64-5.87,4.14a55,55,0,0,0-9.09,9.27,27.13,27.13,0,0,0-3.49,6c-1,2.32-1.44,4.95-2.18,7.36-.21.7-.22,1.44-.37,2.15s-.4,1.13-.56,1.7-.24,1.41-.38,2.11c-.2,1-.53,2-.64,3a13,13,0,0,1-.53,2.2c-.34,1.21-.49,2.45-.83,3.66-.75,2.64-1,5.49-1.52,8.19-.71,3.63-1.63,7.28-2.06,11a36.15,36.15,0,0,1-.64,4.4c-.47,1.88-.69,3.65-1,5.55-.22,1.29-.5,2.53-.67,3.82s-.57,2.64-.73,4c-.07.57,0,1.37,0,1.84s-.39,1.44-.47,2.13-.06,1.38-.19,2.06c-.26,1.42-.37,2.83-.58,4.26s-.44,3.07-.64,4.61c-.1.78,0,1.57,0,2.33-.06.56-.3,1.1-.37,1.66-.16,1.21-.09,2.38-.23,3.58s-.13,2.75-.24,4.11c-.26,3.13,0,6.24-.16,9.36,0,.91.12,1.79.14,2.69s-.12,1.58-.07,2.38c0,1,.09,1.9.07,2.89a28.14,28.14,0,0,0,.32,3.05c.26,3.12.43,6.25.79,9.36a208.49,208.49,0,0,0,3.74,23.3c.34,1.48.5,3,1,4.44a31.46,31.46,0,0,1,.8,3.18c.26,1.24.42,2.54.8,3.75s.79,2.07,1.05,3.18c.17.71.18,1.45.37,2.16.35,1.26,1,2.44,1.32,3.7.17.65.19,1.32.41,2s.5,1.07.71,1.63c.32.83.55,1.83.91,2.69.09.21.1,15.51-.46,23-.26,3.48-.44,6.95-.64,10.42a11.29,11.29,0,0,1,4.46.86c.11-1.06.21-2.1.33-3.16.09-.75-.07-1.48,0-2.23,0-.95.31-1.89.34-2.86.05-1.62.31-3.19.42-4.79.08-1.19.06-2.38.15-3.56.12-1.55.36-3.14.34-4.69,0-2.46.28-4.87.34-7.32.07-3,.21-6,.27-9,0-1.67.29-3.45.34-5.16,0-1.32-.06-2.64-.06-4s.22-2.85.21-4.29-.14-3.07,0-4.61.24-3,.25-4.56-.09-2.87,0-4.27c-.7,2.28-1,4.81-1.49,7.14-.49,2.14-.73,4.25-1,6.43-.25,1.9-.72,3.72-.86,5.64s-1,4.46-1.24,3.61c-.26-1-.64-2-.93-3-.45-1.58-.46-3.25-.94-4.84a27.33,27.33,0,0,1-.88-4.11c-.25-1.67-.77-3.28-1-4.94-1-6.24-2.09-12.43-2.72-18.73-.07-.73-.08-1.47-.2-2.2-.07-.45-.22-.89-.29-1.34-.09-.62,0-1.25,0-1.88-.09-1.42-.27-2.83-.37-4.25s-.37-2.71-.39-4a36.19,36.19,0,0,0-.19-4c-.16-1.2,0-2.36-.12-3.56a66.27,66.27,0,0,1,0-6.76c.12-2.77-.09-5.5.19-8.27.25-2.41.25-4.84.44-7.25,0-.51.34-1.32.38-1.93s0-1.18,0-1.77c0-1.2.3-2.44.44-3.64.29-2.55.55-5.1.74-7.66.07-.8.36-1.55.41-2.36,0-.47-.14-1.26-.07-1.62.39-2,.42-4,.74-6,.24-1.51.36-3,.56-4.51.16-1.29.53-2.53.7-3.83.32-2.54.49-5.05,1-7.56.19-.95.21-1.91.37-2.85.1-.57.34-1.11.46-1.68s.15-1.36.25-2c.13-.85.4-1.67.5-2.52.27-2.38.7-4.67,1.16-7a46.66,46.66,0,0,0,.94-5.1c.21-2.53,1.17-4.93,1.45-7.43a37.55,37.55,0,0,1,1.06-4.37,29.61,29.61,0,0,1,2.37-6.65c.56-1.12,15-10.92,18.33-12.42,1.67-.75,3.36-1.47,5.07-2.12.65-.25,3.69-.79,3.2-1.94-.42-1-3.23.54-3.89.79-1.68.66-3.34,1.37-5,2.11-3.27,1.47-6.65,2.95-9.78,4.7,2.22-2.21,5-3.79,7.6-5.5a35.64,35.64,0,0,1,3.81-2.08c.69-.34,1.45-.52,2.17-.8a18.21,18.21,0,0,1,1.77-.72c1.1-.31,2.26-.43,3.38-.66.56-.12,1.26-.38,1.72-.45a15.9,15.9,0,0,1,4.92.18,12.92,12.92,0,0,1,1.32.51c.52.21,1,.45,1.51.7s1.28.38,1.51.72c0,0-.19-.09-.09,0l.07.06-.06,0c.15.24.66.65.7.91s-.35,1-.46,1.32c-.18.55-.3,1.11-.44,1.67-.29,1.11-.56,2.21-.92,3.31s-.38,2-.63,3a35.59,35.59,0,0,0-.83,4.61c-.14,1.16-.11,2.32-.26,3.48-.21,1.59-.42,3.2-.55,4.79-.26,3.14-.54,6.24-.9,9.36.46-1.52.72-3.12,1.3-4.59.71-1.78.87-3.7,1.4-5.53a40,40,0,0,0,1.34-5.57c.22-1.54.84-3.07,1.15-4.51.7-2.18,1.61-4.27,2.38-6.43a31.3,31.3,0,0,1,2.36-5.52c.11-.22.85-1,1.11-1.4s.58-1.06.91-1.56a26.47,26.47,0,0,1,3.47-3.94,11.1,11.1,0,0,1,2.42-2c.89-.55,14.69-2.79,18.22-2.06a11.77,11.77,0,0,1,2.44.85c.5.21,1.16.66,1.6.09.84-1.12-2.43-1.78-3.05-2-3.52-1-6.89-.82-10.49-.87,1.33-.25,2.47-.72,3.82-.89.73-.09,1.44-.34,2.17-.41a35,35,0,0,1,4.21,0,25.74,25.74,0,0,1,5,.71,22.75,22.75,0,0,1,10.06,5.64c-.13-.11,0,0,.13.13l1,1,.13.13a25.22,25.22,0,0,1,2.35,2.71c-.2-.26,2.66,2.47,2.58,3.71-.19,2.78-.06,5.56-.25,8.33-.08,1.24.26,2.36.26,3.57a21.07,21.07,0,0,0,.19,3.46c.26,1.81.31,3.63.71,5.41.32,1.43.37,2.89.66,4.31.1-1.6.36-3.14.31-4.76s.27-3.34.31-5c0-.46,0-.92,0-1.37,0-.83.34-1.59.4-2.42,0-.62-.11-1.25,0-1.87s.26-1.4.37-2.09c.4-2.42.58-4.88,1-7.29.21-1.11.44-2.71.69-3.81.45-2,1.09-4.06,1.74-6.06.34-1.06,11.18-5.95,13.4-6.33s4.47-.58,6.7-.86a17.19,17.19,0,0,1,4.91,0,3,3,0,0,1,1.3.61c.46.29,1.24.26,1.16-.53-.14-1.45-2.93-1.51-3.92-1.54a41.44,41.44,0,0,0-6.76.61,46.84,46.84,0,0,0-7.25,1.19c-2.28.68-4.62.92-6.9,1.63a10.62,10.62,0,0,1,1.7-2.26c.64-.52,1.11-1.16,1.71-1.69a17.71,17.71,0,0,1,5-1.91,24,24,0,0,1,3.55-.64,16.59,16.59,0,0,1,3-.25,33.05,33.05,0,0,0,3.3.23c.52,0,1.06-.14,1.58-.11,2.28.56,4.65.76,6.92,1.37a20.69,20.69,0,0,1,2.77,1c1.08.47,2.6.9,3.48,1.42.71.41,1.62,1.2,2.37,1.73v0c.12.12.41.54.39.5.4,1.16.82,2.31,1.19,3.48v.05c.18.5.19,1.45.42,2.11a18.85,18.85,0,0,1,.79,2.05c.24,1,.61,1.91.9,2.89.19.68.23,1.39.42,2.07,1.33,4.71,2.78,9.4,4.35,14,.25.74.38,1.51.6,2.26.36,1.15,1,2.35,1.31,3.45s.45,2.05.81,3.06c.62,1.74,1.39,3.49,1.87,5.27.44,1.62,1.05,3.23,1.63,4.8s1.52,3.16,2,4.85c0-1.91-.59-3.79-.81-5.68a53.37,53.37,0,0,0-.79-6,39.77,39.77,0,0,1-1.06-5.43c-.15-1.69.56-5.16,1-5.6a20.37,20.37,0,0,1,2.14-1.66,40,40,0,0,0,4.16-3.87,45.53,45.53,0,0,0,3.78-4.31c.58-.76,1.14-1.53,1.68-2.32.31-.44,1.11-1.22.62-1.77-.94-1.06-2.45,2.08-2.89,2.68a43.55,43.55,0,0,1-3.62,4.28,54.93,54.93,0,0,1-4.05,3.88c-.69.56-5.54-5.13-6.66-9.24-.35-1.29-.72-2.6-1-3.91-.16-.75-.18-1.53-.38-2.28-.26-.94-.52-1.81-.72-2.77a24.24,24.24,0,0,0-.82-2.45c-.09-.31-.1-1-.18-1.41a20.46,20.46,0,0,0-.59-2.17,15.92,15.92,0,0,0-1.15-3.23c.11.07.25.08.37.15a2.22,2.22,0,0,1,.12-1.75l-.06.1a9.78,9.78,0,0,1,.53-1.19c.06-.11.24-.44.26-.49a23.17,23.17,0,0,1,5.5-6.34l1.48-1a16.29,16.29,0,0,1,1.51-1,21.26,21.26,0,0,0,2.24-1,3.84,3.84,0,0,1,1.57-.67,34.71,34.71,0,0,0,3.49-.83,7.76,7.76,0,0,1,2.42-.19c5.3,0,10.85,2.37,15.15,5.26,1,.66,2.11,1.28,3,2,.38.3,1.06,1,1.37,1.23a28.17,28.17,0,0,1,7.27,10.8c2.1,5.73,5.29,11.08,8.31,16.36,1.08,1.9,2.25,3.74,3.34,5.63,1.33,2.3,2.38,4.73,3.77,7a23.31,23.31,0,0,1,1.73,3.08c.82,1.89,1.91,3.59,2.72,5.47s1.63,3.94,2.48,5.9c.19.46-.68,5.51-1.33,6.1a20.07,20.07,0,0,1-3,2.14c-.5.3-1,.58-1.52.86-.34.18-1.06.37-1.21.78a.72.72,0,0,0,.52.92c.42.1.94-.33,1.29-.52,2.35-1.26,6.28-.95,6.27,1,0,2.48-.26,5-.2,7.46.06,2.69-.32,5.36-.47,8-.07,1.41.07,2.81.06,4.21,0,1.1-.14,2.09-.21,3.17a76.9,76.9,0,0,0,.26,8.07,38.81,38.81,0,0,0,0,4.17c.14,1.34.18,2.7.35,4a30,30,0,0,0,.68,4,17.72,17.72,0,0,1,.79,2.25c.09.7.13,1.42.16,2.13a29.21,29.21,0,0,1-.09,4.77,36.7,36.7,0,0,0-.57,4c-.05,1.62-.66,2.88-.9,4.46-.29,1.95-.62,3.83-1.09,5.76-.74,3.05-1.35,6.11-2.23,9.11-.43,1.51-.78,3-1.22,4.55a14.14,14.14,0,0,1-1.58,4.14,12.77,12.77,0,0,0,2.68-3.88c.77-1.42,1.45-2.89,2.17-4.34,1.45-2.87,2.54-5.91,3.72-8.91.44-1.1.87-2.17,1.23-3.3.25-.82.32-1.73.6-2.51a19.06,19.06,0,0,0,1.4-4.77,33.78,33.78,0,0,1,.94-4.08c.27-1.39,3.13-1.19,4.37.48.6.8,1.16,1.62,1.68,2.48.3.49.69,1.73,1.48,1.28,1.58-.88-7.87-11-7.08-11.76a12.45,12.45,0,0,1,4.87,1.18,28.51,28.51,0,0,1,4.46,3.59c.41.39,1.28,1.67,1.81.67.43-.8-1-1.72-1.5-2.17a47.73,47.73,0,0,0-5.56-4.14c2.87-.94,5.74-1.86,8.65-2.71a35,35,0,0,0,5.2-1.93,13.39,13.39,0,0,1,2-.69c.75-.25,1.45-.87,2.17-1.06l-.09,0s.14-.05,0,0a21.88,21.88,0,0,1,2.7-.88,8.48,8.48,0,0,0,2.62-1.31,7.21,7.21,0,0,0,2.7-1c.65-.36,1.25-.7,1.93-1,1.36-.69,2.76-1.29,4.17-1.88.78-.33,1.57-.65,2.35-.95,1.35-.51,2.57-1.21,3.94-1.67,1.11-.37,6.16.15,4.14,2.49a28.36,28.36,0,0,0-2.76,3.69,19.82,19.82,0,0,0-1,1.92c-.23.47-.85,1.45-.73,2a.69.69,0,0,0,.91.48c.53-.2.67-1.14.88-1.6a19.94,19.94,0,0,1,2.37-3.93,44,44,0,0,1,6.54-6.89,18.66,18.66,0,0,1,4.08-2.87c.84-.38,1.81-.51,2.67-.86.55-.23,1.06-.56,1.61-.77s1.33-.38,2-.67,1.26-.79,1.95-1.07c1.12-.46,2.14-1,3.22-1.53,1.67-.78,3.26-1.65,4.91-2.49,1.44-.73,3-1.2,4.41-2a19.48,19.48,0,0,1,2.15-1.06c.77-.32,1.62-.9,2.27-1.2,1.26-.5,2.29-.75,3.57-1.2,2-.71,4-1.6,6.06-2.34,2.58-.93,5.35-1.89,7.89-2.59l3.06-.71a9.56,9.56,0,0,1,2.24-.41c1.82,0,3.49-.44,5.3-.53a37.83,37.83,0,0,1,4.62.29,22.26,22.26,0,0,1,3.64.39,40.27,40.27,0,0,1,6.64,1.9,28.4,28.4,0,0,1,3.46,1.64L604,283a41,41,0,0,1,5.69,4.11c.39.41.77,1,1.2,1.41s1.13.74,1.37,1c.44.44-18.38,7.46-20.39,7.73a35.19,35.19,0,0,0-5.73,1.39c-3.09,1-7.52,1.71-9.26,4.81s-.71,7.33.22,10.62c.25.91.54,1.8.83,2.7a7.08,7.08,0,0,1,.53,1.66c0,.09-.44.22-.51.25-1.08.55-2.08,1.24-3.16,1.8-2.87,1.48-5.59,3.21-8.38,4.84s-5.47,3.74-8.15,5.68c-.14-.87-.23-1.75-.36-2.62a6.3,6.3,0,0,0-.48-2.3.69.69,0,0,0-1-.24c-.47.37-.13,1,0,1.48.18.8.28,1.62.39,2.44a10.59,10.59,0,0,1-1.22,3.32,43.49,43.49,0,0,0-3.25-5.17c-.43-.62-2.23-4-3.13-2.87-.48.63.37,1.28.7,1.74.5.68.88,1.44,1.38,2.12,1.18,1.59,1.7,5.66.95,6-1,.54-2.57,1-3.72,1.65s-2.22,1.45-3.36,2.09c-1.67.92-3.25,1.88-4.88,2.87a23.05,23.05,0,0,0-3.39,2.23c-2.45,1.11-4.42,2.95-6.48,4.61a18.2,18.2,0,0,0-3.14,2.39c-1.53,1.2-3.09,2.37-4.6,3.61a23.71,23.71,0,0,0-4.34,3.88l0,0c-1.6,1.41-3.18,2.82-4.75,4.25a81.36,81.36,0,0,0-6.41,6.59l0,0-.07.07c-.42.44-1.08.88-1.54,1.38-.31.33-.86,1.22-1,1.37l-.09.09c-.7.79-1.64,1.43-2.33,2.34a22.6,22.6,0,0,1-1.88,2c-1.24,1.27-2.48,2.49-3.63,3.85a19.32,19.32,0,0,1-1.38,1.44c-1.36,1.34-2.9,2.53-4.31,3.83-.35.33-.62.77-1,1.09a4.13,4.13,0,0,1-1.09.55c-.66.27-1.34.48-2,.74-2.86,1.13-5.55,2.64-8.37,3.85-1.39.6-2.65,1.39-4,2.1-.74.39-1.53.73-2.3,1.07a34.13,34.13,0,0,0-3,1.73c-1.31.76-2.8,1.21-4,2.08a26.69,26.69,0,0,1-3.3,2c-3.24,1.6-6.2,3.76-9.3,5.68l0,0a67.28,67.28,0,0,0-6.5,4.27l0,0a.18.18,0,0,1,.07-.05c-.24.26-1,.44-1.27.62s-.66.43-1,.65l-1.46,1.05c-.53.4-1.06.81-1.62,1.18-1.05.68-1.91,1.55-2.91,2.27-1.84,1.33-3.58,2.78-5.43,4.11-.69.5-1.36,1.19-2,1.67a23.68,23.68,0,0,0-2.13,1.6c-.83.8-1.64,1.59-2.5,2.36s-1.75,1.91-2.48,2.5-1.58,1.26-2.23,2.06c-.46.56-.89,1.08-1.4,1.61-1.07,1.1-2.12,2.2-3.16,3.33-1.26,1.35-2.66,2.55-3.91,3.91a28.29,28.29,0,0,1-3.27,3.56c-.68-7.23-.36-14.47-.59-21.71-.05-1.83-.22-3.71-.45-5.53-.07-.56,0-1.74-.42-2.15a.71.71,0,0,0-1,.05c-.31.45.07,1.71.13,2.19.1.87.18,1.74.24,2.62.13,1.81.15,3.59.18,5.41s.18,3.8.1,5.71S406.22,448,406,449.57c0,.19-.07.39-.11.58a15.22,15.22,0,0,1,3.65-.31,5.87,5.87,0,0,1,.63-2.48,6.9,6.9,0,0,1,1.67-1.47A38.32,38.32,0,0,0,415,443a29.11,29.11,0,0,1,3.51-2.75c2-1.37,4-2.76,5.89-4.24,2.55-1.94,5.27-3.71,7.82-5.7.48-.38.91-.83,1.4-1.19.27-.22,1.11-.62,1.52-.92s1-.82,1.46-1.2c1.54-1.2,3.07-2.42,4.64-3.58,2.52-1.86,5-3.83,7.45-5.75,2.32-1,4.26-3.11,6.19-4.52.52-.38,1.62-.94,2.29-1.49.29-.24.64-.56.88-.75,1.36-1,2.75-2,4.2-2.9,1.18-.72,2.29-1.57,3.45-2.33s2.18-1.72,3.11-2.3,1.71-.94,2.54-1.45,1.72-1.31,2.65-1.83c2-1.14,4-2.38,6.06-3.47,1.69-.88,3.43-1.67,5.12-2.57,1.89-1,3.83-1.7,5.77-2.55a15,15,0,0,0,1.59-.7,13.79,13.79,0,0,0,1.57-1.67c.36-.33.8-.56,1.19-.86.66-.52,1.15-1.19,1.77-1.74s1.37-1,2-1.53c1.07-1,2-2,3.15-2.94s1.93-1.6,2.89-2.41c.76-.63,1.4-1.4,2.16-2l0,0a8.51,8.51,0,0,0,1.62-1.12c.45-.42.86-1,1.31-1.37a28.09,28.09,0,0,0,4.61-3.9c1.72-1.54,3.56-2.92,5.3-4.44,1.46-1.28,3-2.37,4.36-3.79,1.59-1.71,3.7-2.86,5.45-4.39,1.15-1,2.4-2,3.59-2.92a18,18,0,0,0,3-2.37c3.49-2.67,7.28-5,10.8-7.58a14.08,14.08,0,0,0,3.05-2l.1-.06c1.84-1.15,3.85-2,5.67-3.11a25.63,25.63,0,0,1,2.35-1.31,8.91,8.91,0,0,0,2.17-2c1.59-1.36,3.69-2.66,5.25-4.24a34.56,34.56,0,0,1,4.87-3.77c5.25-3.66,10.41-7.4,15.87-10.75a193.89,193.89,0,0,1,17.53-9.38,28.65,28.65,0,0,1,4.62-1.83c1.31-.37,2.67-.56,4-.83s2.86-.86,4.28-1.24a8.45,8.45,0,0,0,3.67-1.87A5.17,5.17,0,0,0,622.59,298.15Zm-5.24,4a8,8,0,0,1-2,.66c-1.94.6-3.78,1.19-5.77,1.61a22.91,22.91,0,0,0-5.66,1.86c-.8.4-1.62.77-2.45,1.12-2.19.95-4.29,2-6.46,3-2.68,1.23-5.42,2.37-8,3.7-2.45,1.25-10.42-4.51-9.49-8.62.82-3.64,5.52-4.53,8.53-5.46a46.61,46.61,0,0,1,6.69-1.53c2.17-.35,4.24-.95,6.45-1.15,4.44-.42,9.09-.52,13.4.83a10.38,10.38,0,0,1,2.76,1.34c.69.48,1.89,1.32,2.19,2.13C617.65,302.12,617.64,301.93,617.35,302.16Z"/><path d="M622.59,298.15a14.53,14.53,0,0,0-1.51-3c-.27-.5-.44-1-.67-1.56a10.77,10.77,0,0,0-.88-1.45c-1.27-1.87-2.49-3.78-3.78-5.63-.39-.42-.83-.77-1.22-1.18a10.18,10.18,0,0,1-1-1.39,20.06,20.06,0,0,0-2.35-2.44,60.07,60.07,0,0,0-5.47-4,33.07,33.07,0,0,0-12.54-4.93,56.48,56.48,0,0,0-6.75-.65,18.75,18.75,0,0,0-6.72.53h0c-.87.16-1.76.14-2.64.25s-1.72.39-2.58.58c-1.72.41-3.41.93-5.08,1.5s-3.29,1.28-4.92,2l-4.88,2.07c-.81.35-1.62.71-2.46,1a19.48,19.48,0,0,0-2.47,1c-.79.39-1.54.86-2.31,1.29s-1.56.83-2.35,1.22c-3.21,1.49-6.3,3.2-9.44,4.83l-4.71,2.45a7.33,7.33,0,0,1-1.2.57c-.42.14-.86.23-1.26.39-.81.33-1.58.81-2.43,1.07a42,42,0,0,1-5.19,1.1c-1.72.38-3.39,1-5.11,1.4s-3.42.86-5.1,1.43-3.4,1-5.12,1.4-3.44.81-5.14,1.29c-.86.22-1.7.46-2.54.75a13.07,13.07,0,0,0-1.24.45,7.47,7.47,0,0,1-1.24.5l-.52.13.49-.25.11-.05v.1a1.6,1.6,0,0,0-.94,0,6.54,6.54,0,0,0-.95.3,8.4,8.4,0,0,0-1.78.87h0l-2.71.8c-.89.28-1.74.69-2.62,1l-1.37.37a8.06,8.06,0,0,0-1.3.53,22.12,22.12,0,0,1-2.63,1l-2.68.88c-.9.28-1.75.7-2.62,1s-1.73.75-2.61,1.09a18.38,18.38,0,0,0-2.57,1.13h0l-3,1.11-.1,0V311l-.19-2.64c-.05-.88-.15-1.77-.12-2.66a37.33,37.33,0,0,0-.24-5.28c-.51-3.52-.17-7.06-.69-10.56a52.12,52.12,0,0,1-.16-5.3c0-1.77-.15-3.52-.26-5.29-.07-.89,0-1.77-.13-2.64a12.45,12.45,0,0,1-.1-2.66c0-1.75-.16-3.52-.12-5.29,0-.88,0-1.77-.11-2.64s-.4-1.7-.55-2.58a17.11,17.11,0,0,0-.64-2.56l-.93-2.47c-.32-.83-.62-1.66-.95-2.48s-.69-1.63-1-2.47c-.15-.41-.3-.82-.49-1.22l-.6-1.18c-.44-.79-.67-1.64-1-2.45-.64-1.64-1.44-3.2-2.2-4.81s-1.24-3.32-1.92-4.94-1.55-3.17-2.21-4.82l-2.14-4.84-4.33-9.68c-.71-1.62-1.28-3.3-1.93-4.94a18.19,18.19,0,0,0-2.67-4.51,29.2,29.2,0,0,0-3.6-3.85,21.87,21.87,0,0,0-2.13-1.55l-2.19-1.48a45.15,45.15,0,0,0-4.59-2.64c-.75-.45-1.47-1-2.26-1.36s-1.6-.71-2.42-1a38.69,38.69,0,0,0-10.08-3.08,19,19,0,0,0-2.62-.21,17.57,17.57,0,0,0-2.62.07,23.74,23.74,0,0,0-2.57.58c-.43.11-.86.21-1.3.3a10.76,10.76,0,0,0-1.28.27,17.45,17.45,0,0,0-2.42,1c-.8.4-1.65.65-2.4,1.11a34.75,34.75,0,0,0-4.34,3,27.26,27.26,0,0,0-6.77,8l-.08.15-.14-.1a13.5,13.5,0,0,0-3-1.5c-1.07-.38-2.1-.88-3.14-1.28a21.34,21.34,0,0,0-3.24-.91L380.3,205c-.55-.1-1.12-.18-1.68-.32a13.79,13.79,0,0,0-1.63-.32,10.49,10.49,0,0,0-1.67.08,16.45,16.45,0,0,1-1.72,0,31.72,31.72,0,0,0-3.37-.08l-3.35.43a31,31,0,0,0-6.43,2,16.86,16.86,0,0,0-3,1.44,18.18,18.18,0,0,0-2.4,2.34,9.4,9.4,0,0,0-1.2,1.15,9.53,9.53,0,0,0-.85,1.42c-.49,1.06-1.35,1.88-1.7,2.9-.19.51-.32,1.07-.54,1.61s-.48,1-.69,1.55a13.39,13.39,0,0,0-.89,3.22l-.07.45-.29-.35a37,37,0,0,0-2.7-2.6,20.91,20.91,0,0,0-2.86-2.4,29.33,29.33,0,0,0-6.52-3.66,33.16,33.16,0,0,0-7.24-1.9,56.74,56.74,0,0,0-7.5-.34,11.56,11.56,0,0,0-1.82.26c-.63.13-1.26.21-1.87.32-1.23.21-2.46.47-3.66.8a18.83,18.83,0,0,0-3.5,1.29l-1.7.81a13.64,13.64,0,0,0-1.67.81c-1,.64-2,1.52-3.07,2.19a10.23,10.23,0,0,0-2.8,2.37,60.79,60.79,0,0,0-4.43,6l-.14.25-.25-.16a16.3,16.3,0,0,0-3.71-1.34,16.73,16.73,0,0,0-3.85-.81,25.38,25.38,0,0,0-4,.31,28.78,28.78,0,0,0-3.9.83,54,54,0,0,0-7.48,2.84,55.33,55.33,0,0,0-6.78,4.26,48.57,48.57,0,0,0-6.25,5,54.06,54.06,0,0,0-5.43,5.89,26.91,26.91,0,0,0-4,6.84,30.08,30.08,0,0,0-1.18,3.81l-1,3.87a12.5,12.5,0,0,1-.37,2,10.14,10.14,0,0,0-.56,1.87c-.11.64-.19,1.35-.36,2s-.33,1.3-.44,1.94c-.06.31-.07.65-.14,1s-.16.68-.25,1a19.38,19.38,0,0,0-.5,1.92c-.13.65-.25,1.32-.42,2s-.35,1.28-.48,1.94c-.56,2.6-.8,5.3-1.39,7.94s-1.14,5.25-1.55,7.89c-.21,1.32-.33,2.64-.5,4a17.74,17.74,0,0,1-.34,2c-.16.67-.3,1.3-.42,2-.25,1.31-.43,2.64-.66,4l-.69,4c-.2,1.36-.6,2.68-.7,3.92,0,.31,0,.64,0,1a3.44,3.44,0,0,1-.11,1.11,9.82,9.82,0,0,0-.39,1.91,18.74,18.74,0,0,1-.2,2l-.27,2-.54,4-.27,2a7.91,7.91,0,0,0-.11,1.94,6.47,6.47,0,0,1,0,1.07,6.71,6.71,0,0,1-.23,1,8.31,8.31,0,0,0-.23,1.9c0,.67,0,1.35-.1,2s-.12,1.31-.15,2c0,1.34-.16,2.71-.2,4-.07,2.64.08,5.38-.06,8,0,.63.1,1.3.14,2s0,1.42-.06,2c0,1.25.06,2.74.09,4,.7,5.31.83,10.7,1.61,16s1.46,10.64,2.55,15.88l.86,3.94a35,35,0,0,0,.85,3.88c.31,1.33.73,2.64.95,4a18.79,18.79,0,0,0,1,3.82c.23.63.47,1.27.65,2s.22,1.42.34,2c.26,1.2.91,2.41,1.32,3.76.22.7.26,1.42.41,2a16.41,16.41,0,0,0,.77,1.8c.26.67.43,1.32.63,1.94l.16.46a1.76,1.76,0,0,1,.17.6c0,.43,0,.71,0,1.07,0,5.39,0,10.76-.19,16.14-.07,2.69-.26,5.4-.42,8.07l-.49,8-.57-.6a12,12,0,0,1,4.69.9l-.78.47.2-2,.11-1a5.63,5.63,0,0,0,0-.92,9.32,9.32,0,0,1,0-2.11c.08-.7.22-1.35.26-2,0-1.34.21-2.73.34-4s.14-2.68.21-4,.26-2.71.33-4c0-.65,0-1.29,0-2s0-1.37.08-2.05c.08-1.35.19-2.69.23-4l.12-4,.12-4c0-1.33.08-2.74.21-4.07.33-2.66,0-5.28.17-8.06a27.75,27.75,0,0,0,.1-4c0-.67-.05-1.35-.05-2s.06-1.4.09-2l.2-4c0-1.32-.09-2.68,0-4.07l1.26.22c-.7,2.29-.95,4.76-1.5,7.22s-.75,4.81-1.12,7.32c-.21,1.24-.46,2.44-.61,3.64,0,.29-.06.59-.08.89s-.07.66-.12,1a13.25,13.25,0,0,1-.46,1.91,5,5,0,0,1-.42,1l-.11.16a1.79,1.79,0,0,1-.24.22.76.76,0,0,1-.38.13.69.69,0,0,1-.43-.1.81.81,0,0,1-.28-.27l-.07-.14a2.5,2.5,0,0,1-.1-.33l-.07-.22L249,406l-.27-.88c-.09-.32-.16-.64-.23-1-.12-.64-.21-1.26-.3-1.87a15.93,15.93,0,0,0-.34-1.75c-.16-.55-.35-1.2-.49-1.81-.31-1.22-.45-2.53-.68-3.67s-.58-2.38-.81-3.65l-.61-3.68c-.81-4.89-1.59-9.8-2.12-14.75l-.17-1.83-.08-.91c0-.25-.12-.53-.2-.86a5.11,5.11,0,0,1-.15-1.06c0-.35,0-.67,0-1,0-.51-.09-1.2-.13-1.79l-.32-3.68a28.4,28.4,0,0,1-.34-3.77,27.23,27.23,0,0,0-.2-3.63c-.15-1.35,0-2.57-.13-3.76-.14-2.5-.06-5,0-7.49s-.09-4.95.17-7.48c.12-1.21.18-2.44.23-3.67l.09-1.87,0-.94c0-.31,0-.59.1-1a11,11,0,0,0,.34-1.7c0-.49-.1-1.18,0-1.88.07-1.33.35-2.53.45-3.73l.71-7.39c.08-.73.27-1.34.36-1.87,0-.14,0-.27,0-.39s0-.21,0-.35-.08-.58-.09-1a3.53,3.53,0,0,1,0-.38l0-.22L244,309l.12-.89.19-1.83c.09-1.23.31-2.54.45-3.74l.46-3.69c.2-1.3.54-2.46.66-3.63l.42-3.69c.14-1.24.31-2.49.56-3.74a29.56,29.56,0,0,1,.61-3.75,6.63,6.63,0,0,0,.34-1.65,14.91,14.91,0,0,1,.27-1.93,14.48,14.48,0,0,0,.35-1.74l.31-1.86c.43-2.45.75-5,1.32-7.37.12-.6.24-1.19.32-1.78s.12-1.16.22-1.84a37.36,37.36,0,0,1,.79-3.71c.14-.6.28-1.19.39-1.77s.16-1.14.27-1.84c.24-1.31.66-2.5.94-3.65a37.75,37.75,0,0,1,1.06-3.65c.21-.6.44-1.19.69-1.78l.4-.87.2-.44.11-.21a3.09,3.09,0,0,1,.23-.31,12.5,12.5,0,0,1,1.56-1.37c.5-.38,1-.77,1.51-1.13,1-.74,2-1.46,3-2.17,2.05-1.42,4.11-2.81,6.2-4.16a58.44,58.44,0,0,1,6.52-3.83l3.46-1.44.87-.36.43-.18a5.07,5.07,0,0,1,.51-.17,13.74,13.74,0,0,0,1.67-.53A2.24,2.24,0,0,0,282,232c.05,0,0,0,0,0a.21.21,0,0,0,0,.13s0,0,0,.1a.38.38,0,0,0,.18.16h-.17a2.84,2.84,0,0,0-.71.18,16.54,16.54,0,0,0-1.63.67L278,234l-3.4,1.44-3.39,1.52c-2.24,1-4.46,2.07-6.6,3.26l-5.54,3.09,4.5-4.47a30.12,30.12,0,0,1,4.71-3.66l2.44-1.57a29.22,29.22,0,0,1,2.55-1.54l1.31-.67.66-.32a6.75,6.75,0,0,1,.75-.32l1.36-.46c.39-.15.82-.37,1.32-.57a15.17,15.17,0,0,1,3-.7c.46-.08,1-.16,1.34-.26s.87-.28,1.49-.39h.07a16.67,16.67,0,0,1,5.2.2,25.88,25.88,0,0,1,2.44,1l.58.27.47.18a4.34,4.34,0,0,1,.68.27,1.76,1.76,0,0,1,.45.29l.13.13.07.09,0,0h0a1.08,1.08,0,0,1,.14.36.61.61,0,0,1,0,.29.93.93,0,0,1-.52.67,1,1,0,0,1-.26.07.65.65,0,0,1-.14,0h-.22l-.07,0-.06,0-.07,0h0s-.05,0,.41.06a.87.87,0,0,0,.74-.53.92.92,0,0,0-.27-1.05h0l.09.07.08.06,3.74,3.14-4.59-1.62a1.14,1.14,0,0,1-.31-.16l1.27-1.18.24.25a3.07,3.07,0,0,1,.46.6l.07.17a1.05,1.05,0,0,1,.06.24,1.41,1.41,0,0,1,0,.35,2.66,2.66,0,0,1-.1.44c-.09.23-.17.42-.25.58s-.14.3-.16.36l-.13.49-.25,1-1.1,4c-.15.61-.23,1.29-.38,2s-.32,1.33-.45,2a32.4,32.4,0,0,0-.55,4c0,.68-.06,1.38-.14,2.12l-.23,2.07c-.15,1.37-.33,2.71-.45,4.11l-.79,8.29-1.76-.36c.24-.79.42-1.63.64-2.49.11-.43.23-.86.37-1.3s.33-.91.45-1.25c.53-1.51.71-3.24,1.21-5a45,45,0,0,0,1.25-5c.07-.39.12-.86.22-1.32s.21-.9.34-1.33c.24-.86.5-1.67.68-2.46v-.09c.68-2.09,1.52-4.08,2.24-6.07a34.81,34.81,0,0,1,2.59-6.07l0,.07a3.22,3.22,0,0,1,.34-.49l.26-.31c.17-.19.33-.38.46-.55a6.27,6.27,0,0,0,.36-.6l.39-.67a13,13,0,0,1,2-2.59l2.17-2.23a12,12,0,0,1,1.22-1.13c.23-.18.45-.34.69-.5l.34-.23a3.91,3.91,0,0,1,.57-.24,31.25,31.25,0,0,1,3.14-.68c1-.19,2.05-.35,3.08-.51,2.05-.3,4.11-.57,6.19-.75,1-.09,2.08-.17,3.14-.19a12.12,12.12,0,0,1,3.34.27,14.49,14.49,0,0,1,1.57.55c.45.17,1.14.53,1.23.52s-.24.07-.21.09,0,0-.06.19a.62.62,0,0,0,.06.24,1.12,1.12,0,0,0-.29-.19,4.9,4.9,0,0,0-.6-.26c-.43-.15-.9-.28-1.4-.4s-1-.27-1.46-.38a22,22,0,0,0-2.93-.41c-2-.15-4-.08-6.12-.11l-.17-1.86c1-.19,2.08-.58,3.29-.81a16.45,16.45,0,0,0,1.63-.3,8.16,8.16,0,0,1,1.85-.24c1.18,0,2.33,0,3.46.07a29.13,29.13,0,0,1,3.47.35,22.49,22.49,0,0,1,6.68,2.19,25.36,25.36,0,0,1,5.72,4.06l-1.26,1.43h0l.15.08a1.15,1.15,0,0,0,.38.08,1,1,0,0,0,.68-.29.9.9,0,0,0,.26-.78.94.94,0,0,0-.18-.45l-.07-.09h0l.08.08.16.16.31.3.62.6-1.2,1.47.07,0c.06,0,0,.07.4.12l.5-.11.49-.63a.9.9,0,0,0-.08-.64,1.15,1.15,0,0,0-.12-.18l0,0h0l0,0,.06.05.06.06h0L342,225.87v0h0l0,0,0,0,1.34-1.35a28,28,0,0,1,2.44,2.8l-1.51,1.17a1.43,1.43,0,0,1-.15-.27c.07-.24-.2.39.09-.85,1.87-.88,1.17,0,1.32-.29l.12.09.08.06.1.1.19.18.34.36c.23.24.44.48.66.73a10.09,10.09,0,0,1,1.18,1.71,2.77,2.77,0,0,1,.35,1.39l-.05.91,0,1.84-.06,3.74c0,.62-.05,1.28-.08,1.88a9.2,9.2,0,0,0,.11,1.69,12.81,12.81,0,0,1,.15,2c0,.62,0,1.21,0,1.8s.12,1.13.21,1.8l.2,1.88c.07.61.13,1.22.22,1.8s.22,1.12.35,1.81c.22,1.3.29,2.54.52,3.67l-1.91.13c.06-1,.18-1.93.25-2.84s0-1.72.07-2.79.16-2,.23-2.86.06-1.78.09-2.83a11.74,11.74,0,0,1,.27-1.52,3.56,3.56,0,0,0,.11-1.15,8,8,0,0,1,0-1.57c.06-.55.17-1,.26-1.48.34-1.76.51-3.67.77-5.55s.65-3.79,1-5.66a49.35,49.35,0,0,1,1.51-5.55l.21-.68.11-.34,0-.08a1.19,1.19,0,0,1,.11-.25,1.48,1.48,0,0,1,.26-.34,7.38,7.38,0,0,1,1.36-1c.85-.51,1.7-1,2.56-1.38q2.56-1.27,5.2-2.39c.88-.37,1.77-.73,2.68-1.07.46-.16.91-.33,1.42-.47a10.64,10.64,0,0,1,1.5-.25l5.65-.74a23.81,23.81,0,0,1,2.95-.21c.5,0,1,0,1.51.07l.76.09a4.07,4.07,0,0,1,.93.25,4.8,4.8,0,0,1,.75.44l.13.09h0l-.1,0a.46.46,0,0,0-.25.23c-.08.23-.05.12-.06.12a.25.25,0,0,0-.1-.1,1.26,1.26,0,0,0-.37-.19,5.15,5.15,0,0,0-1.15-.25,23.4,23.4,0,0,0-5.4.18c-1.83.25-3.78.51-5.62.72-.93.12-1.83.25-2.71.44-.44.1-.87.21-1.3.34s-.95.26-1.43.37c-1.89.44-3.74.71-5.45,1.24l-2.93.92,1.84-2.46c.22-.29.42-.64.67-1a5.47,5.47,0,0,1,1-1.22c.24-.22.34-.28.48-.42l.42-.42c.29-.31.6-.66,1-1l.06-.05.06,0a15.75,15.75,0,0,1,4.15-1.74,30.11,30.11,0,0,1,4.28-.91l1-.12L370,209a7.56,7.56,0,0,1,1.18-.07c.46,0,.78,0,1.12.07l2,.14.51,0,.42,0a8.09,8.09,0,0,1,1.22-.08h.09l.09,0c1.29.31,2.65.52,4,.76a25,25,0,0,1,4.21,1c.67.23,1.39.54,2,.78l2,.73c.34.14.69.28,1.05.47a9.47,9.47,0,0,1,1,.64c.59.44,1.13.88,1.65,1.25l-1.41,1.27a.61.61,0,0,0,.07.1l1.46-1.28a1.12,1.12,0,0,1,.17.2l.12.14.1.13,0,.06v0s0,0,0,0l0,0-.08-.07,0,0,0,0a1.18,1.18,0,0,0-.44-.16,1,1,0,0,0-1.07.81,1,1,0,0,0,0,.45l1.86-.6,1.07,3.16.12.37a3.23,3.23,0,0,1,.14.53c.06.33.09.6.13.86a5.93,5.93,0,0,0,.13.66c.06.19.17.43.27.67s.23.51.34.81c.06.15.11.3.16.47l.11.43c.13.49.3,1,.47,1.51a14.67,14.67,0,0,1,.5,1.71c.12.61.17,1.12.3,1.55l3.91,12.62.5,1.61c.18.58.29,1.14.42,1.64a31.87,31.87,0,0,0,1.14,3,32,32,0,0,1,.9,3.27c.26.93.72,2,1.1,3a32.89,32.89,0,0,1,1.05,3.23c.29,1,.65,2,1,3.07s.74,2,1.21,3a25.24,25.24,0,0,1,1.3,3.19l-1.87.26a39.33,39.33,0,0,0-.77-5.33c-.23-1.89-.32-3.7-.64-5.43s-.89-3.55-1.14-5.45a10,10,0,0,1-.12-1.51,11.86,11.86,0,0,1,.1-1.48,18.28,18.28,0,0,1,.56-2.86,6.36,6.36,0,0,1,.26-.77l.13-.24a1.84,1.84,0,0,1,.25-.34l.29-.27a12.85,12.85,0,0,1,1.17-.91,19.83,19.83,0,0,0,2.08-1.65c1.3-1.19,2.63-2.54,3.85-3.83a39.42,39.42,0,0,0,3.42-4.2l.8-1.09a7.66,7.66,0,0,0,.65-.93v0a.33.33,0,0,0,.07.18c0,.06,0,0,.12.09a.34.34,0,0,0,.24,0,4.18,4.18,0,0,0-.52.55,42,42,0,0,1-7.16,8.55l-1,1-.54.47-.28.23-.06.06-.06,0a1.2,1.2,0,0,1-.68.23,1,1,0,0,1-.3,0,2.58,2.58,0,0,1-1-.51c-.21-.17-.4-.34-.59-.51-.36-.35-.69-.71-1-1.07a26.65,26.65,0,0,1-3.26-4.7,15.43,15.43,0,0,1-1.18-2.68c-.28-1-.47-1.82-.72-2.74l-.34-1.36a8.93,8.93,0,0,1-.25-1.43,7.59,7.59,0,0,0-.23-1.24l-.35-1.36-.35-1.36a7.5,7.5,0,0,0-.37-1.18l-.25-.65a5.52,5.52,0,0,1-.25-.84,11,11,0,0,0-.17-1.34l-.71-2.58a11.2,11.2,0,0,0-.89-2.39l1.29-1.21c-.15-.06,0,0,.33.13l-1.31,1.1a3.28,3.28,0,0,1-.17-1.26,3,3,0,0,1,.36-1.25l1.59.89-.06.1-1.66-.74.42-.93c.06-.15.14-.33.2-.45l.21-.39,0-.07a23.8,23.8,0,0,1,3.46-4.54,23,23,0,0,1,2.12-1.93c.78-.58,1.49-1.1,2.35-1.63a9.65,9.65,0,0,1,1.29-.75c.46-.2.89-.34,1.26-.51a4,4,0,0,0,.51-.26c.18-.11.4-.25.64-.38A5.59,5.59,0,0,1,411,199l2.61-.62a8.68,8.68,0,0,1,3-.36,26.37,26.37,0,0,1,11,2.66,36.4,36.4,0,0,1,4.91,2.77c.73.49,1.53.95,2.32,1.49a9.76,9.76,0,0,1,1.19.92c.33.31.7.68.94.86l.06.05,0,0a30,30,0,0,1,6.49,8.8c.39.82.74,1.69,1.05,2.53s.63,1.63,1,2.43q1,2.41,2.27,4.76c1.62,3.13,3.4,6.2,5.18,9.28l2.72,4.59c.93,1.53,1.74,3.17,2.54,4.73.4.78.82,1.56,1.25,2.3l1.39,2.29c.23.4.45.82.65,1.26s.34.79.54,1.19c.38.78.8,1.55,1.21,2.34s.84,1.64,1.18,2.47l1,2.46,1,2.46.26.61v0l0,.12a2.38,2.38,0,0,1,.05.26c0,.12,0,.16,0,.25s0,.26,0,.4c0,.49-.11.94-.18,1.39-.15.91-.33,1.8-.57,2.7a7.93,7.93,0,0,1-.5,1.43,1.38,1.38,0,0,1-.13.22,3.25,3.25,0,0,1-.23.29l-.28.24-.54.45a24.86,24.86,0,0,1-4.64,2.81l-.07.05s.07-.11.06-.13,0-.13,0-.14l0,0h-.09a2.94,2.94,0,0,0,.31-.15,7.64,7.64,0,0,1,5.79-.91,3.33,3.33,0,0,1,1.54.84,2.33,2.33,0,0,1,.56.91,3.2,3.2,0,0,1,.09.54c0,.19,0,.25,0,.38,0,1.81-.15,3.59-.19,5.34,0,.89,0,1.71,0,2.65s-.06,1.82-.12,2.72c-.13,1.78-.34,3.58-.37,5.26,0,.86,0,1.74.07,2.64s-.08,1.82-.12,2.72L467,295.9c0,.43,0,.86,0,1.29,0,.86,0,1.74.07,2.61l.15,2.66.07,1.36,0,1.37a22,22,0,0,0,0,2.58l.22,2.63a34.08,34.08,0,0,0,.71,5.17,5.66,5.66,0,0,0,.4,1.13,6.18,6.18,0,0,1,.48,1.47c.07.93.15,1.86.18,2.75a23,23,0,0,1-.29,5.48,25,25,0,0,0-.38,2.55,10.45,10.45,0,0,1-.12,1.4,14,14,0,0,1-.3,1.38,21.72,21.72,0,0,0-.58,2.52l-.5,2.65-.51,2.65-.61,2.59c-.4,1.73-.79,3.47-1.25,5.21l-1.41,5.16c-.24.87-.46,1.69-.73,2.58a9.77,9.77,0,0,1-1.18,2.63l-1.14-1a13.22,13.22,0,0,0,2.68-4l2.28-4.55c1.45-3,2.63-6.26,3.85-9.42.28-.78.61-1.59.85-2.34a19.38,19.38,0,0,1,.64-2.55c.3-.82.62-1.6.86-2.38.12-.38.22-.77.3-1.15s.09-.73.16-1.24a18.75,18.75,0,0,1,.62-2.58c.12-.42.2-.76.31-1.23a1.89,1.89,0,0,1,1.44-1.32,4.3,4.3,0,0,1,4.17,1.56l.74,1.09.73,1.09a6.52,6.52,0,0,1,.38.58l.28.55a1.24,1.24,0,0,0,.22.31h-.1s0,0,0,0-.11.11-.13.14,0,.09,0,.1v0a2,2,0,0,0-.12-.4,26.83,26.83,0,0,0-2.71-4.13c-1-1.36-2.06-2.71-3.07-4.11-.26-.35-.51-.72-.75-1.09-.12-.2-.24-.39-.35-.61s-.11-.23-.17-.36l-.08-.24a2.25,2.25,0,0,1,0-.4.94.94,0,0,1,.14-.38.65.65,0,0,1,.34-.29,1,1,0,0,1,.22-.08h.22a2.42,2.42,0,0,1,.4,0c.24,0,.46.05.69.09.44.07.87.16,1.3.26a10.29,10.29,0,0,1,2.62.92c.76.49,1.45,1,2.15,1.53s1.34,1.12,2,1.72l.47.45c.2.19.32.35.46.49a2.67,2.67,0,0,0,.36.34c.12.08.11,0-.06.06s-.06,0,0,0l0,0h0s0,0-.05-.11a3.13,3.13,0,0,0-.7-.74c-.68-.53-1.31-1.12-2-1.63a45.65,45.65,0,0,0-4.1-2.94l-1.22-.78,1.37-.43,9.14-2.85a34.37,34.37,0,0,0,4.39-1.63,14.39,14.39,0,0,1,2.31-.84c.59-.19,1.19-.76,2.18-1.06l.39,1.24-.11,0-.42-1.23h0a.55.55,0,0,0-.2.15.6.6,0,0,0-.12.22.58.58,0,0,0,0,.25.67.67,0,0,0,.27.49.72.72,0,0,0,.4.11h.12l-5.95,1.79,5.43-3a6.7,6.7,0,0,1,1.52-.55,10.38,10.38,0,0,0,1.32-.38,8.13,8.13,0,0,0,2.38-1.17l.17-.15h.23a4.45,4.45,0,0,0,1.35-.39c.48-.21.91-.45,1.42-.72l1.47-.8c.5-.24,1-.46,1.52-.69l3-1.36,3.06-1.23c1-.43,2-.94,3.1-1.31a5.61,5.61,0,0,1,1.89-.09,7.84,7.84,0,0,1,1.76.35,4.82,4.82,0,0,1,.89.43,1.82,1.82,0,0,1,.76.95,1.42,1.42,0,0,1,0,.68,2.08,2.08,0,0,1-.19.58,5.66,5.66,0,0,1-.57.78,31.85,31.85,0,0,0-2,2.56,29.68,29.68,0,0,0-1.61,2.79,7.11,7.11,0,0,0-.63,1.36c0,.21,0,.15,0,.19a.07.07,0,0,0,.08,0,.88.88,0,0,0,.2-.33c.09-.21.15-.46.26-.76a15.28,15.28,0,0,1,.77-1.57,23.36,23.36,0,0,1,1.87-2.82,44.1,44.1,0,0,1,4.48-5,34.27,34.27,0,0,1,5.22-4.24,8.77,8.77,0,0,1,1.6-.77c.56-.19,1.1-.31,1.6-.46a8.28,8.28,0,0,0,1.42-.62,8,8,0,0,1,1.64-.63,6.12,6.12,0,0,0,1.41-.57,16.58,16.58,0,0,1,1.49-.83l3-1.4c2-1,3.89-2,5.91-3,1-.47,2.07-.84,3-1.31s2-1,3-1.48c.46-.2.92-.48,1.41-.75a7.23,7.23,0,0,1,.79-.41l.81-.3c1.07-.37,2.12-.64,3.13-1l6.17-2.37c2.08-.74,4.17-1.46,6.3-2.09,1.07-.33,2.16-.56,3.23-.81l1.61-.38.83-.19a3,3,0,0,1,1-.07h-.08a30.77,30.77,0,0,0,4-.42,15.24,15.24,0,0,1,2.15-.12c.72,0,1.42.09,2.11.16,1.37.17,2.72.16,4.15.35a41.17,41.17,0,0,1,4.12.9,28.54,28.54,0,0,1,4,1.33,24.24,24.24,0,0,1,3.79,1.87,43.77,43.77,0,0,1,6.86,4.83h0c.45.49.77,1,1.15,1.36a3.34,3.34,0,0,0,.63.48,4,4,0,0,1,.81.64l0,0a.54.54,0,0,1,.15.35.35.35,0,0,1,0,.2.56.56,0,0,1-.11.18l-.12.11-.17.11-.3.17-.56.27-1.13.5L608,292c-1.51.61-3,1.19-4.54,1.76-3,1.14-6.09,2.25-9.18,3.27a21.06,21.06,0,0,1-2.42.69c-.78.11-1.57.25-2.34.43-1.57.35-3.08.87-4.66,1.32a29.08,29.08,0,0,0-4.53,1.54,6.55,6.55,0,0,0-3.31,3,8.66,8.66,0,0,0-.69,4.52,24.6,24.6,0,0,0,.91,4.69c.2.78.46,1.55.69,2.32l.35,1.14c.13.35.3.74.43,1.15a2.47,2.47,0,0,1,.1.35,1,1,0,0,1,0,.31.38.38,0,0,1-.06.17.52.52,0,0,1-.12.13.38.38,0,0,1-.13.08l-.32.15-.11,0-.13.07c-.35.18-.69.38-1,.58-.69.41-1.39.85-2.13,1.22-2.86,1.47-5.6,3.21-8.4,4.84s-5.31,3.64-7.94,5.55l-.54.38-.08-.64c-.14-1.15-.32-2.27-.44-3.44a2.68,2.68,0,0,0-.39-1.4c-.16-.14-.25-.16-.34-.12s-.17.12-.16.33a7,7,0,0,0,.2.79l.14.87.14.86.06.44,0,.21v.3a8.37,8.37,0,0,1-.52,1.75c-.1.28-.21.55-.33.82a4,4,0,0,1-.47.87l-.34.44-.27-.53a38.13,38.13,0,0,0-2.55-4.17c-1-1.27-1.7-3-2.83-3.83-.14-.07-.24-.1-.27-.07a.32.32,0,0,0-.17.2c-.06.14.13.47.4.76a14.68,14.68,0,0,1,1.42,2.07l.33.5a4.38,4.38,0,0,1,.35.57,8.23,8.23,0,0,1,.48,1.21,11.68,11.68,0,0,1,.49,2.49,5.32,5.32,0,0,1,0,1.32,1.65,1.65,0,0,1-.26.74,1.14,1.14,0,0,1-.23.2l-.14.07-.29.14c-.76.35-1.54.64-2.28,1a34.75,34.75,0,0,0-4.23,2.48l-4.25,2.49a30.29,30.29,0,0,0-4.1,2.64l0,0,0,0c-2.38,1.07-4.34,2.89-6.42,4.56l0,0,0,0A17.45,17.45,0,0,0,527.4,351l-3.08,2.41-1.54,1.2c-.54.4-1,.77-1.55,1.19a20.57,20.57,0,0,0-2.77,2.67l-.47-.39s0,0,0,.05l.48.34-2.9,2.59c-1,.86-2,1.71-2.88,2.6-1.88,1.78-3.65,3.67-5.36,5.61l-.44-.36a.3.3,0,0,1,.08-.08l.39.41c-.53.56-1.11.93-1.57,1.41s-.74,1.11-1.28,1.65-1.05,1-1.53,1.44a6.78,6.78,0,0,0-.67.75c-.22.29-.45.56-.69.82-2,2-3.81,4-5.79,6.06a39.5,39.5,0,0,1-3.1,2.84c-.53.45-1.06.91-1.57,1.37s-.79,1.14-1.56,1.48c-1.3.56-2.64,1-3.9,1.53s-2.53,1.17-3.79,1.78-2.53,1.2-3.8,1.75-2.43,1.33-3.68,2A37.09,37.09,0,0,0,470.7,396c-.59.36-1.17.75-1.81,1.08s-1.27.6-1.9.9a10.79,10.79,0,0,0-1.79,1c-.58.4-1.17.78-1.78,1.13-1.22.72-2.49,1.27-3.68,2-2.41,1.39-4.69,3-7.07,4.47l-.23-.35,0,0,.22.35a68.1,68.1,0,0,0-6.48,4.25l-.24-.32h0a.19.19,0,0,0-.06.12.18.18,0,0,0,0,.11c0,.09.2.14.24.1l0,0h0l0,0-.24-.32.09-.06.24.3c-.6.5-1.18.46-1.64.88s-1,.67-1.48,1l-2.95,2.12c-1.84,1.56-3.85,3-5.77,4.46-.95.75-2,1.42-2.85,2.22a14.72,14.72,0,0,1-1.42,1.17c-.5.35-1,.68-1.45,1.06L426,426.17c-.89.8-1.62,1.77-2.57,2.58h0c-.6.63-1.31,1.09-1.89,1.67s-1.11,1.26-1.66,1.89L416.48,436c-1.16,1.22-2.43,2.33-3.57,3.55a32.19,32.19,0,0,1-3.42,3.71l-.21.17,0-.28c-.52-5.59-.45-11.2-.49-16.79,0-1.4,0-2.8-.07-4.2s-.2-2.78-.3-4.18l-.17-2.09a4.67,4.67,0,0,0-.31-2,.62.62,0,0,0-.77-.15c-.23.14-.23.5-.2.83.08.66.28,1.38.3,2.08s.14,1.39.18,2.09l.07,2.1.13,4.2c0,1.4.12,2.8.09,4.21s-.21,2.79-.31,4.19c-.47,5.58-.84,11.17-1.4,16.75l-.14-.14a15.61,15.61,0,0,1,3.67-.31l-.12.11a12.69,12.69,0,0,1,.26-1.6,2.85,2.85,0,0,1,.81-1.43,10.71,10.71,0,0,1,1.27-1,15,15,0,0,0,1.22-1c.78-.73,1.51-1.51,2.31-2.23a30.46,30.46,0,0,1,2.54-2l10.41-7.49a56.46,56.46,0,0,0,5.09-3.88,9,9,0,0,1,1.37-.86,9.62,9.62,0,0,0,1.26-1c.82-.69,1.69-1.31,2.53-2l10.16-7.83h0c2.75-1.17,4.62-3.68,7.23-5.17a10.35,10.35,0,0,0,1.79-1.3c.57-.49,1.21-.87,1.82-1.31l3.68-2.53c1.22-.85,2.49-1.62,3.66-2.53.59-.46,1.16-.93,1.79-1.35a22,22,0,0,1,1.94-1.11c1.34-.65,2.38-1.76,3.72-2.45l3.88-2.21,1.94-1.1,2-1,4-2c1.34-.65,2.73-1.19,4.1-1.77.67-.31,1.39-.55,2.05-.86a5.4,5.4,0,0,0,1.56-1.53,20.49,20.49,0,0,1,1.75-1.39c.54-.49,1-1.08,1.58-1.58s1.22-.87,1.77-1.35,1.08-1,1.61-1.54c2.15-2.09,4.61-3.75,6.69-5.91l.08.09h0l-.08-.09a8.09,8.09,0,0,0,1.58-1.09c.47-.42.82-1,1.35-1.39h0a17.3,17.3,0,0,0,3.31-2.67c1-1,2.09-1.94,3.2-2.84,2.21-1.79,4.37-3.66,6.57-5.46.55-.47,1-1,1.53-1.5a18.1,18.1,0,0,1,1.63-1.39c1.13-.86,2.33-1.65,3.41-2.58l3.32-2.69c1.07-.94,2.41-1.55,3.33-2.65h0c3.5-2.68,7.27-5,10.8-7.58h0a13.93,13.93,0,0,0,3-2h0l.05,0,0,0h0v0l.05,0,0-.07c1.72-1.07,3.59-1.86,5.32-2.9.86-.52,1.76-1,2.64-1.49a8.44,8.44,0,0,0,2.22-2h0c1.2-1,2.51-1.9,3.73-2.89a18.76,18.76,0,0,0,1.75-1.58,18.67,18.67,0,0,1,1.81-1.52c2.54-1.85,5.15-3.62,7.72-5.44a174.91,174.91,0,0,1,15.89-10.19c2.74-1.54,5.53-3,8.35-4.41l4.24-2.07a28.55,28.55,0,0,1,4.37-1.77c1.51-.46,3.08-.65,4.62-1s3-.93,4.52-1.33a8.17,8.17,0,0,0,3.92-2.52A5,5,0,0,0,622.59,298.15Zm0,0a5,5,0,0,1-1.08,4.41,8.09,8.09,0,0,1-3.91,2.53c-1.53.4-3,1-4.53,1.33s-3.11.53-4.61,1a29.6,29.6,0,0,0-4.37,1.77l-4.24,2.09c-2.81,1.41-5.6,2.87-8.35,4.41a174.7,174.7,0,0,0-15.87,10.2c-2.57,1.83-5.18,3.59-7.72,5.44a21.72,21.72,0,0,0-1.8,1.53,18.76,18.76,0,0,1-1.75,1.58c-1.22,1-2.53,1.87-3.73,2.89h0a8.82,8.82,0,0,1-2.24,2c-.88.5-1.77,1-2.64,1.49-1.73,1-3.6,1.83-5.31,2.89l0-.07.05,0v.05h-.06l0,0h0a14,14,0,0,1-3.06,2h0c-3.53,2.62-7.3,4.91-10.79,7.58h0c-.93,1.12-2.28,1.73-3.34,2.66l-3.32,2.7c-1.08.93-2.28,1.72-3.41,2.59a16.27,16.27,0,0,0-1.61,1.38c-.5.51-1,1-1.53,1.5-2.21,1.81-4.36,3.68-6.58,5.47-1.1.9-2.17,1.84-3.19,2.84a17.68,17.68,0,0,1-3.33,2.69h0c-.5.38-.85.95-1.34,1.39a8,8,0,0,1-1.6,1.1l-.33.18.25-.27,0,0,.09.1c-2.05,2.14-4.56,3.85-6.67,5.91-.53.52-1.06,1.05-1.62,1.55s-1.21.87-1.77,1.35-1,1.07-1.58,1.57-1.26.82-1.73,1.38a5.32,5.32,0,0,1-1.6,1.57c-.69.32-1.38.56-2.06.87-1.37.58-2.76,1.12-4.1,1.77l-4,2-2,1-1.94,1.1-3.88,2.21c-1.31.68-2.36,1.8-3.72,2.46-.66.35-1.31.69-1.93,1.1s-1.18.89-1.77,1.34c-1.18.93-2.46,1.7-3.68,2.55l-3.67,2.53c-.6.44-1.25.81-1.81,1.3a9.83,9.83,0,0,1-1.81,1.31c-2.56,1.47-4.43,4-7.24,5.19h0l-10.16,7.84c-.84.66-1.71,1.28-2.52,2a12.37,12.37,0,0,1-1.28,1,8.76,8.76,0,0,0-1.35.84,56.81,56.81,0,0,1-5.1,3.9l-10.4,7.5a28.26,28.26,0,0,0-2.51,2c-.79.71-1.52,1.5-2.31,2.23-.4.36-.81.71-1.24,1a10.91,10.91,0,0,0-1.24,1,4.27,4.27,0,0,0-1,2.89l0,.1h-.1a15.11,15.11,0,0,0-3.62.31l-.16,0,0-.17c.55-5.56.9-11.15,1.37-16.73.1-1.39.24-2.79.31-4.18s-.05-2.79-.09-4.19l-.14-4.19-.07-2.1c0-.7-.12-1.39-.18-2.09s-.22-1.35-.3-2.07a2.11,2.11,0,0,1,0-.56.71.71,0,0,1,.31-.53.88.88,0,0,1,1.13.21,4.6,4.6,0,0,1,.38,2.11l.17,2.1c.1,1.4.27,2.79.31,4.19s0,2.8.06,4.2c0,5.6,0,11.21.51,16.77l-.24-.1a32.14,32.14,0,0,0,3.38-3.68c1.15-1.24,2.42-2.35,3.56-3.56l3.46-3.65c.56-.64,1.07-1.26,1.66-1.9s1.32-1.07,1.87-1.67h0c.9-.77,1.64-1.76,2.56-2.58l2.65-2.5c.47-.41,1-.74,1.48-1.09a13.46,13.46,0,0,0,1.38-1.14c.92-.83,1.93-1.51,2.88-2.26,1.93-1.49,3.88-2.88,5.74-4.46l3-2.13c.49-.36,1-.72,1.5-1s1.23-.51,1.56-.81l.25.3-.05,0-.23-.32,0,0h0s0,0,.05,0,.22,0,.24.11a.15.15,0,0,1,0,.11.22.22,0,0,1-.06.12h0l0,0-.23-.32a68.61,68.61,0,0,1,6.52-4.3l.22.35-.05,0-.22-.35c2.36-1.47,4.65-3.08,7.07-4.49,1.2-.73,2.5-1.3,3.68-2,.59-.35,1.17-.73,1.74-1.12a11.37,11.37,0,0,1,1.86-1.05c.63-.29,1.27-.57,1.88-.89s1.18-.7,1.78-1.06a34.65,34.65,0,0,1,3.75-1.89c1.23-.64,2.41-1.39,3.7-2s2.53-1.15,3.79-1.77,2.51-1.23,3.79-1.79,2.63-1,3.89-1.53c.56-.22.86-.9,1.43-1.4s1.05-.93,1.58-1.39a37.19,37.19,0,0,0,3.06-2.81c1.91-2,3.83-4.09,5.76-6.06.23-.26.45-.52.66-.79s.47-.55.72-.81c.51-.5,1.05-.94,1.51-1.43s.75-1.1,1.28-1.65,1.12-.93,1.55-1.39l.38.42s0,0,0,0l-.44-.36c1.72-1.95,3.49-3.86,5.38-5.65,1-.91,1.93-1.76,2.89-2.63l2.9-2.6,1.53-1.37-1.05,1.71a.44.44,0,0,1-.08.11l-.47-.38a21.15,21.15,0,0,1,2.84-2.76c.51-.42,1-.82,1.56-1.2l1.54-1.2,3.07-2.42a17.62,17.62,0,0,1,3.16-2.4l-.06,0c2-1.65,4-3.52,6.55-4.66l-.09.06a29.92,29.92,0,0,1,4.19-2.72l4.26-2.52a36.57,36.57,0,0,1,4.29-2.51c.77-.34,1.54-.63,2.27-1l.27-.13.13-.06s0,0,0,0a1.19,1.19,0,0,0,.12-.42,5.51,5.51,0,0,0,0-1.15,11,11,0,0,0-.47-2.34,7.49,7.49,0,0,0-.43-1.09,5.55,5.55,0,0,0-.29-.48c-.12-.17-.25-.35-.36-.53a14.22,14.22,0,0,0-1.37-2,3.69,3.69,0,0,1-.41-.56,1.15,1.15,0,0,1-.14-.86,1,1,0,0,1,.62-.69.89.89,0,0,1,.51,0,1.9,1.9,0,0,1,.38.17,6.85,6.85,0,0,1,1.71,2l.65,1,.71,1a37.49,37.49,0,0,1,2.61,4.25l-.61-.09a4.26,4.26,0,0,0,.33-.65c.11-.26.22-.52.32-.78a8.32,8.32,0,0,0,.46-1.55v0l0-.11,0-.21-.07-.42-.13-.84-.13-.84a6.59,6.59,0,0,1-.22-.88,1.13,1.13,0,0,1,.1-.63,1.11,1.11,0,0,1,.49-.47.94.94,0,0,1,.7,0,1.16,1.16,0,0,1,.52.33,1.84,1.84,0,0,1,.46.94,6,6,0,0,1,.15.9c.11,1.12.3,2.27.44,3.41l-.61-.26c2.61-1.89,5.17-3.92,8-5.6s5.53-3.38,8.43-4.89c.71-.36,1.38-.78,2.09-1.19.35-.21.71-.42,1.08-.61l.13-.07.18-.08.23-.1h0s0,0-.07.08a.23.23,0,0,0,0,.1c0,.08,0,0,0,0a1.2,1.2,0,0,0-.06-.24c-.12-.37-.27-.72-.43-1.12l-.37-1.19c-.24-.78-.49-1.55-.7-2.34a26.07,26.07,0,0,1-.95-4.84,9.61,9.61,0,0,1,.77-5,7.35,7.35,0,0,1,3.71-3.42,29.33,29.33,0,0,1,4.67-1.61c1.53-.43,3.09-1,4.69-1.34.8-.18,1.61-.34,2.43-.45s1.5-.42,2.26-.66c3.06-1,6.1-2.14,9.13-3.28,1.51-.57,3-1.15,4.52-1.76l2.24-.92,1.09-.49.53-.26.24-.13.08-.05h0s-.06.08-.07.12a.47.47,0,0,0,0,.17.44.44,0,0,0,.13.31l0,0a3.81,3.81,0,0,0-.6-.45,4.46,4.46,0,0,1-.79-.6c-.46-.47-.8-1-1.16-1.37l0,0a43.52,43.52,0,0,0-6.72-4.71,24.33,24.33,0,0,0-3.66-1.79,28.89,28.89,0,0,0-3.88-1.28c-1.32-.32-2.7-.68-4-.86s-2.74-.17-4.12-.34a15.55,15.55,0,0,0-4,0,31.09,31.09,0,0,1-4.2.43h-.09a3.21,3.21,0,0,0-.62.08q-.39.07-.78.18l-1.62.38c-1.07.26-2.13.48-3.17.8-2.1.63-4.17,1.35-6.24,2.1L560,284.81c-1,.41-2.13.69-3.13,1.05l-.74.27c-.2.09-.45.23-.68.36-.47.26-1,.56-1.5.81-1,.49-1.89.9-2.94,1.46s-2.07.88-3,1.33c-1.94.94-3.93,2-5.9,3l-3,1.42a13.7,13.7,0,0,0-1.39.78,7.17,7.17,0,0,1-1.64.67,6.82,6.82,0,0,0-1.45.56,8.66,8.66,0,0,1-1.6.69c-.55.18-1.08.3-1.57.46a7.53,7.53,0,0,0-1.37.67,32.72,32.72,0,0,0-5,4.1,42.55,42.55,0,0,0-4.35,4.85,21.78,21.78,0,0,0-1.77,2.68,15.05,15.05,0,0,0-.69,1.4c-.08.21-.15.5-.27.8a1.76,1.76,0,0,1-.78.95,1.29,1.29,0,0,1-1.46-.22,1.21,1.21,0,0,1-.37-.67,1.41,1.41,0,0,1,0-.66,8.25,8.25,0,0,1,.72-1.64c.55-1,1-2,1.7-2.94a29.52,29.52,0,0,1,2.05-2.67c.37-.41.55-.75.47-.87s-.42-.44-.87-.57a6,6,0,0,0-1.47-.29,4.6,4.6,0,0,0-1.41,0c-1,.31-1.94.82-3,1.27l-3.07,1.25-3,1.34c-.49.23-1,.44-1.48.68l-1.44.78c-.46.25-1,.55-1.52.78a5.64,5.64,0,0,1-1.82.5l.4-.16a9.15,9.15,0,0,1-2.76,1.41,12.2,12.2,0,0,1-1.45.43,5.76,5.76,0,0,0-1.2.42l-.52-1.19H496a.68.68,0,0,1,.41.12.65.65,0,0,1,.27.49.53.53,0,0,1,0,.24.57.57,0,0,1-.12.23.7.7,0,0,1-.2.15h-.05l-.09,0-.42-1.23.08,0,.38,1.25c-.56.14-1.18.69-2.1,1a14.45,14.45,0,0,0-2.17.8,36.49,36.49,0,0,1-4.57,1.71l-9.1,2.86.15-1.2a46.31,46.31,0,0,1,4.23,3c.69.54,1.31,1.12,2,1.64a4.55,4.55,0,0,1,1,1.12,1.51,1.51,0,0,1,.17,1.12c0,.1-.07.2-.11.3l-.14.22a1.28,1.28,0,0,1-.52.43,1.15,1.15,0,0,1-.77,0,1.49,1.49,0,0,1-.49-.24,3.36,3.36,0,0,1-.58-.52l-.42-.45-.45-.43c-.61-.57-1.24-1.12-1.9-1.63s-1.34-1-2-1.44a9.86,9.86,0,0,0-2.21-.74c-.4-.1-.81-.18-1.21-.24a4.17,4.17,0,0,0-.59-.08l-.23,0h0a.42.42,0,0,0,.15,0,1.14,1.14,0,0,0,.23-.2.51.51,0,0,0,.08-.24s0-.1,0-.08l0,.07.1.22c.08.16.19.33.29.5.22.34.46.68.71,1,1,1.36,2,2.71,3.07,4.08.51.69,1,1.39,1.52,2.1a15,15,0,0,1,1.37,2.34,3,3,0,0,1,.23.82c0,.1,0,.21,0,.31a1.44,1.44,0,0,1-.12.41,1.18,1.18,0,0,1-.34.37,2,2,0,0,1-.29.15,1.29,1.29,0,0,1-.71,0,1.36,1.36,0,0,1-.59-.29,2.38,2.38,0,0,1-.56-.7c-.12-.22-.22-.43-.3-.59s-.22-.33-.32-.49l-.71-1-.7-1a2.79,2.79,0,0,0-.75-.65,2.74,2.74,0,0,0-1.91-.37c-.29.07-.36.18-.39.27-.08.37-.2.86-.32,1.26a20.62,20.62,0,0,0-.58,2.39c0,.34-.07.87-.16,1.31a13.41,13.41,0,0,1-.34,1.32c-.27.86-.59,1.66-.88,2.45a20.48,20.48,0,0,0-.59,2.42c-.28.88-.59,1.64-.89,2.47-1.23,3.22-2.38,6.41-3.88,9.57l-2.3,4.61a14.6,14.6,0,0,1-3,4.44l-4.42,3.89,3.29-4.9a17.91,17.91,0,0,0,1.7-4.78l1.38-5.13c.45-1.7.84-3.43,1.23-5.16l.61-2.61.48-2.59L466,334a20.91,20.91,0,0,1,.61-2.68c.11-.42.2-.82.27-1.22a10.93,10.93,0,0,0,.1-1.25,24.9,24.9,0,0,1,.39-2.73,21.43,21.43,0,0,0,.26-5.14c0-.89-.12-1.73-.18-2.57a4.57,4.57,0,0,0-.36-1.06c-.09-.2-.19-.42-.28-.66s-.15-.51-.21-.72a35.35,35.35,0,0,1-.76-5.38l-.24-2.68a25.61,25.61,0,0,1-.05-2.76l0-1.29-.07-1.3-.17-2.67c0-.9-.08-1.8-.07-2.72,0-.45,0-.91.05-1.37l.08-1.32a25.36,25.36,0,0,0,.11-2.6c0-.87-.08-1.77-.07-2.7,0-1.86.25-3.61.37-5.37.06-.88.11-1.75.11-2.61s0-1.79,0-2.68c0-1.81.18-3.58.19-5.32a2.76,2.76,0,0,0,0-.29s0-.08,0-.11a.64.64,0,0,0-.14-.21,1.71,1.71,0,0,0-.79-.4,5.6,5.6,0,0,0-2.28-.08,5.44,5.44,0,0,0-2.17.81,2.54,2.54,0,0,1-.91.37,1.44,1.44,0,0,1-.76-.06,1.71,1.71,0,0,1-.6-.38,1.55,1.55,0,0,1-.43-1.36,1.43,1.43,0,0,1,.35-.72,2.13,2.13,0,0,1,.45-.36,23.7,23.7,0,0,0,4.47-2.7l.48-.4.23-.2s0,0,0,0l0-.07a5.87,5.87,0,0,0,.37-1.08,25.56,25.56,0,0,0,.53-2.52c.07-.42.13-.85.16-1.25,0-.09,0-.21,0-.27v-.08a.29.29,0,0,0,0,.09l0,0,0,0-.26-.61-1-2.46-1-2.46c-.33-.81-.71-1.56-1.12-2.34s-.84-1.57-1.24-2.39c-.2-.4-.4-.86-.57-1.24s-.36-.74-.57-1.11l-1.38-2.27c-.46-.79-.89-1.58-1.3-2.38-.82-1.6-1.58-3.15-2.5-4.66l-2.73-4.59c-1.77-3.07-3.57-6.15-5.23-9.34-.83-1.59-1.61-3.21-2.32-4.87-.36-.83-.69-1.67-1-2.51s-.63-1.61-1-2.39a27.84,27.84,0,0,0-6.12-8.26l.09.07c-.49-.39-.76-.68-1.1-1a7.91,7.91,0,0,0-1-.76c-.73-.49-1.52-.95-2.31-1.48a34,34,0,0,0-4.67-2.62,24.54,24.54,0,0,0-10.24-2.49,10.08,10.08,0,0,0-1.26,0,10,10,0,0,0-1.21.26l-2.74.65a3.69,3.69,0,0,0-1.06.33c-.16.08-.33.19-.54.32a6.85,6.85,0,0,1-.71.37c-.47.21-.9.36-1.28.52a7.55,7.55,0,0,0-1.08.65c-.7.42-1.48,1-2.17,1.49a23,23,0,0,0-1.93,1.78,21.68,21.68,0,0,0-3.19,4.19l0-.07-.22.43c-.08.15-.12.26-.18.39l-.34.76-1.66-.74.06-.1,1.59.89a1.37,1.37,0,0,0-.07,1l-1.3,1.1c.06,0,.05,0,0,0a1.41,1.41,0,0,1-.39-.17l1.29-1.21a13.29,13.29,0,0,1,1,2.77c.25.85.51,1.83.76,2.74a11.93,11.93,0,0,1,.18,1.4,2.56,2.56,0,0,0,.16.48l.24.64a9.67,9.67,0,0,1,.46,1.46l.34,1.31.33,1.31a10.36,10.36,0,0,1,.28,1.48,7.8,7.8,0,0,0,.23,1.28l.33,1.32c.23.86.45,1.8.68,2.6a14.07,14.07,0,0,0,1,2.36,25.25,25.25,0,0,0,3,4.37c.29.33.59.65.89.94a5.21,5.21,0,0,0,.45.39c.12.11.34.21.23.17h-.13a.58.58,0,0,0-.26.06.59.59,0,0,0-.17.1s0,0,0,0l.06-.05.26-.22.5-.44c.33-.3.66-.6,1-.92a40.6,40.6,0,0,0,7-8.35,6,6,0,0,1,.55-.62,2.27,2.27,0,0,1,1-.6,1.54,1.54,0,0,1,.92.06,1.74,1.74,0,0,1,.65.5,1.48,1.48,0,0,1,.32.82,1.93,1.93,0,0,1-.1.72,6,6,0,0,1-.87,1.36l-.83,1.14a41.3,41.3,0,0,1-3.55,4.37c-1.31,1.38-2.56,2.66-4,4a22.24,22.24,0,0,1-2.25,1.78,12.68,12.68,0,0,0-1,.78l-.22.21s.07-.08.06-.07l0,.07a5.46,5.46,0,0,0-.19.54,17.42,17.42,0,0,0-.49,2.55c-.05.43-.08.86-.09,1.27A9.62,9.62,0,0,0,407,250c.23,1.75.73,3.45,1.13,5.35s.44,3.77.66,5.54a37.06,37.06,0,0,1,.79,5.59l0,6.43-1.82-6.17a22.2,22.2,0,0,0-1.2-2.94c-.24-.51-.47-1-.68-1.57l-.59-1.57c-.38-1.05-.76-2.11-1.08-3.21a29.73,29.73,0,0,0-1-3.07c-.39-1.05-.81-2-1.16-3.2a30.56,30.56,0,0,0-.85-3.11,32.66,32.66,0,0,1-1.2-3.19c-.15-.57-.26-1.1-.4-1.57l-.49-1.56L395.16,229c-.19-.63-.24-1.23-.34-1.7a13.6,13.6,0,0,0-.44-1.47c-.18-.52-.36-1.07-.51-1.65l-.09-.37c0-.1-.07-.21-.11-.32s-.19-.46-.31-.72-.23-.52-.34-.86a7.35,7.35,0,0,1-.21-1l-.11-.79c0-.11,0-.18-.07-.26l-.14-.42-1.06-3.11,1.85-.61a.82.82,0,0,1,0,.46.93.93,0,0,1-.37.61,1,1,0,0,1-.69.19.84.84,0,0,1-.44-.16l0,0,0,0-.08-.07-.06-.06,0,0,0,0,0-.07-.1-.12-.08-.11s-.06-.07,0,0l1.47-1.29.1.16,2.1,3.76-3.52-2.49c-.61-.44-1.15-.88-1.68-1.27a5.68,5.68,0,0,0-.76-.49c-.25-.13-.55-.26-.85-.38l-1.95-.73c-.71-.29-1.27-.54-1.91-.76-2.46-.87-5.24-1-8.06-1.71l.17,0a7.13,7.13,0,0,0-.88.07,5.9,5.9,0,0,1-.63,0l-.55,0-2.16-.15c-.37,0-.75-.06-1-.06a7.59,7.59,0,0,0-.92,0l-1,.14-1.06.12a27.83,27.83,0,0,0-4,.85,14.19,14.19,0,0,0-3.62,1.5l.12-.09c-.27.24-.54.54-.86.87-.15.17-.32.34-.5.51a6.33,6.33,0,0,1-.51.44,3.77,3.77,0,0,0-.64.82c-.22.34-.46.76-.76,1.16l-1.09-1.54c1.9-.59,3.81-.87,5.59-1.29.44-.1.88-.22,1.31-.34s1-.27,1.44-.37c1-.21,1.93-.36,2.88-.48,1.92-.22,3.71-.46,5.62-.73a25.1,25.1,0,0,1,5.89-.17,6.79,6.79,0,0,1,1.62.36,3.68,3.68,0,0,1,.87.46,2.3,2.3,0,0,1,.77,1,1.88,1.88,0,0,1-.05,1.5,1.44,1.44,0,0,1-.76.7,1.86,1.86,0,0,1-.8.12,2.38,2.38,0,0,1-.65-.16,2.8,2.8,0,0,1-.3-.15l-.17-.11a4.57,4.57,0,0,0-.46-.29,4.74,4.74,0,0,0-1.08-.18c-.43,0-.88-.06-1.32-.06a20.66,20.66,0,0,0-2.7.19l-5.58.72a9.15,9.15,0,0,0-1.29.21c-.41.11-.85.26-1.27.42-.87.31-1.73.67-2.59,1-1.72.72-3.43,1.5-5.09,2.33-.83.42-1.66.85-2.43,1.31a5.65,5.65,0,0,0-.94.65s-.05.05,0-.06a.55.55,0,0,0,0-.1l0,.08-.11.34-.21.67a47.65,47.65,0,0,0-1.46,5.38c-.32,1.85-.71,3.67-.95,5.5s-.42,3.72-.8,5.68c-.1.47-.19.91-.24,1.3a7.09,7.09,0,0,0,0,1.26,6,6,0,0,1-.15,1.66,10.4,10.4,0,0,0-.25,1.27c0,.83,0,1.85-.08,2.83s-.2,1.89-.23,2.78,0,1.92-.08,2.87-.19,1.9-.25,2.8l-.45,7.35-1.46-7.22c-.27-1.31-.33-2.57-.54-3.71-.09-.54-.26-1.22-.35-1.86s-.16-1.28-.22-1.9l-.2-1.83c-.08-.56-.18-1.27-.22-1.91s0-1.3,0-1.93a10.28,10.28,0,0,0-.12-1.73,11,11,0,0,1-.13-2c0-.63.07-1.22.09-1.84l.06-3.72.05-1.89.05-.95a1.2,1.2,0,0,0-.14-.39,7.78,7.78,0,0,0-.95-1.35c-.18-.22-.38-.44-.58-.66l-.3-.31-.15-.15-.07-.06h0l.07.05c.15-.29-.55.59,1.31-.29.29-1.25,0-.61.09-.84a1,1,0,0,0-.13-.25l-1.51,1.17A26.06,26.06,0,0,0,342,225.8l1.34-1.35,0,0h0s0,0,0,0L342,225.85h0l-.06-.06-.06-.06,0,0v0h0l0,0a1.74,1.74,0,0,1-.12-.19.89.89,0,0,1-.08-.64l.49-.63.5-.11c.37.05.34.1.4.12l.07,0-1.2,1.47-.61-.6-.31-.31-.14-.14-.08-.07,0,0,0,0,0,0-.08-.09a1,1,0,0,1,.08-1.23,1,1,0,0,1,.68-.29.86.86,0,0,1,.38.08,1.16,1.16,0,0,1,.16.08h0l0,0h0l0,0-1.26,1.42a23.5,23.5,0,0,0-5.28-3.76,20.65,20.65,0,0,0-6.13-2,29.08,29.08,0,0,0-3.25-.33c-1.12-.06-2.23-.11-3.3-.07a6,6,0,0,0-1.51.2c-.5.13-1.26.24-1.69.31-1,.18-2.08.57-3.28.8l-.17-1.86c2,0,4.11,0,6.24.12a25,25,0,0,1,3.19.45c.51.11,1.09.28,1.53.4a15,15,0,0,1,1.56.46,7.06,7.06,0,0,1,.83.35,2.67,2.67,0,0,1,.93.73,1.5,1.5,0,0,1,.31.95,1.62,1.62,0,0,1-1.91,1.49,3.47,3.47,0,0,1-1-.35l-.66-.29a11.45,11.45,0,0,0-1.35-.47,10.09,10.09,0,0,0-2.8-.21c-1,0-2,.09-3,.18-2,.18-4.06.43-6.08.73-1,.16-2,.31-3,.5s-2,.37-2.9.61c-1.3.6-2.81,2.47-4.2,3.83a11.42,11.42,0,0,0-1.76,2.33l-.39.66a4.51,4.51,0,0,1-.45.72c-.18.25-.35.44-.52.64l-.24.29c-.06.06-.17.23-.11.13l0,.07a32.8,32.8,0,0,0-2.44,5.75c-.75,2.05-1.58,4-2.23,6l0-.08c-.21.91-.48,1.75-.71,2.57-.12.4-.22.81-.31,1.2s-.13.78-.21,1.25a45.77,45.77,0,0,1-1.29,5.16c-.46,1.56-.63,3.33-1.25,5.11-.17.48-.31.81-.44,1.21s-.23.79-.34,1.2c-.21.83-.4,1.69-.66,2.56l-1.76-.36.79-8.25c.12-1.37.3-2.77.46-4.15l.23-2.06c.07-.65.09-1.33.13-2a34.61,34.61,0,0,1,.59-4.24c.12-.68.32-1.44.45-2s.22-1.33.39-2.07l1.12-4,.27-1,.14-.52a4.54,4.54,0,0,1,.25-.59,3.21,3.21,0,0,0,.16-.38.25.25,0,0,0,0-.06.44.44,0,0,0,0,.09.81.81,0,0,0,0,.16l-.18-.21a2.9,2.9,0,0,1-.44-.53l1.27-1.18a.57.57,0,0,0-.19-.1l-.85,1.52-.07-.06.1.07-.05,0,0,0h0a.92.92,0,0,1-.27-1.05.88.88,0,0,1,.74-.54c.46,0,.43.1.41.07h0l.05,0h0l-.05,0h-.07l-.13,0h-.14c-.1,0,0,0-.25.06a.93.93,0,0,0-.52.67.8.8,0,0,0,0,.29.92.92,0,0,0,.14.35h0v0l0,0,0,0-.08,0a4.32,4.32,0,0,0-.47-.18,5.43,5.43,0,0,1-.68-.26l-.54-.25c-.72-.36-1.42-.63-2.12-.9a14.8,14.8,0,0,0-4.63-.16h.06c-.32.06-.81.22-1.31.36s-1,.2-1.5.29a14.13,14.13,0,0,0-2.64.59c-.39.16-.83.39-1.34.58s-1,.32-1.39.48a4.39,4.39,0,0,0-.58.24l-.64.32-1.27.64a24.29,24.29,0,0,0-2.42,1.46l-2.44,1.56a28.64,28.64,0,0,0-4.44,3.43l-1-1.38c2.21-1.22,4.47-2.29,6.73-3.32l3.4-1.52,3.46-1.45c.55-.24,1.2-.5,1.67-.72a17.72,17.72,0,0,1,1.8-.75,6.17,6.17,0,0,1,1.1-.25,2.22,2.22,0,0,1,.75,0,1.44,1.44,0,0,1,.91.68,1.5,1.5,0,0,1,.13,1.12,1.75,1.75,0,0,1-.52.76,3.52,3.52,0,0,1-1,.62,15.68,15.68,0,0,1-1.88.61l-.37.11-.42.18-.85.36-3.4,1.41a57.35,57.35,0,0,0-6.29,3.7c-2.07,1.34-4.13,2.71-6.16,4.12-1,.7-2,1.41-3,2.14-.5.36-1,.73-1.47,1.1l-.7.56-.32.28-.23.21s0,0-.06.05l-.1.2-.2.41-.37.82c-.23.55-.45,1.11-.65,1.68a33.37,33.37,0,0,0-1,3.49c-.32,1.25-.72,2.41-.92,3.54-.1.52-.16,1.22-.29,1.84s-.26,1.26-.41,1.86c-.29,1.22-.6,2.39-.76,3.56-.09.55-.12,1.2-.23,1.85s-.21,1.26-.34,1.87c-.58,2.43-.89,4.83-1.32,7.26l-.31,1.82c-.08.68-.25,1.32-.37,1.9a11.54,11.54,0,0,0-.26,1.74,9.59,9.59,0,0,1-.14,1,8.48,8.48,0,0,1-.27,1,33,33,0,0,0-.57,3.58c-.24,1.18-.4,2.39-.55,3.61l-.42,3.7c-.15,1.3-.5,2.52-.68,3.68l-.47,3.68c-.15,1.26-.35,2.4-.45,3.65l-.19,1.87-.13.94-.09.48,0,.24V310c0,.22,0,.54.07.87a5,5,0,0,1,0,.58c0,.18,0,.36-.07.53-.11.69-.29,1.27-.34,1.78l-.73,7.41c-.12,1.27-.4,2.5-.46,3.65-.05.54.05,1.08,0,1.83a10.27,10.27,0,0,1-.37,2,7.86,7.86,0,0,0-.07.83l-.06.92-.09,1.84c-.06,1.24-.12,2.5-.24,3.75-.26,2.41-.14,4.86-.19,7.37s-.17,4.93,0,7.38c.09,1.28,0,2.56.11,3.67a32.16,32.16,0,0,1,.21,3.78,27,27,0,0,0,.31,3.63l.32,3.74c0,.64.14,1.19.13,1.91a5.89,5.89,0,0,0,.1,1.67c.06.28.16.6.21,1l.09.94.17,1.88c.51,4.9,1.28,9.79,2.08,14.68l.59,3.66c.21,1.17.55,2.36.8,3.61s.37,2.45.66,3.64c.14.6.29,1.14.48,1.77a19.26,19.26,0,0,1,.37,1.9c.09.62.17,1.23.28,1.81.06.29.12.57.2.85l.27.89.54,1.8.07.22c0,.05.07.22,0,.12l0,0a.51.51,0,0,0-.21-.2.79.79,0,0,0-.32-.07.46.46,0,0,0-.27.09s-.09.07-.08.06l0,0a4.09,4.09,0,0,0,.3-.71,12.17,12.17,0,0,0,.41-1.71,8.39,8.39,0,0,0,.1-.86c0-.32.06-.64.1-1,.16-1.27.42-2.49.62-3.69.36-2.4.59-4.92,1.15-7.38s.8-4.86,1.55-7.32l1.54-5-.28,5.26c-.07,1.3,0,2.63,0,4s-.15,2.71-.22,4.07a30.92,30.92,0,0,0-.05,4,28,28,0,0,1-.11,4.1c-.2,2.59.16,5.38-.19,8.08-.13,1.34-.18,2.63-.21,4l-.13,4-.13,4c0,1.36-.16,2.71-.24,4,0,.67-.07,1.33-.08,2s0,1.34,0,2c-.08,1.38-.29,2.7-.34,4s-.08,2.67-.22,4-.31,2.66-.35,4c-.05.73-.2,1.4-.27,2a8.19,8.19,0,0,0,0,1.92,6.77,6.77,0,0,1,0,1.1l-.11,1-.21,2-.08.77-.71-.3a10.92,10.92,0,0,0-4.24-.81H247l0-.6.51-8.06c.17-2.69.36-5.34.44-8,.18-5.35.25-10.73.22-16.09v-.95c.06,0-.06-.22-.11-.36l-.17-.5c-.22-.65-.39-1.3-.61-1.89a16.47,16.47,0,0,1-.8-1.91c-.19-.74-.21-1.37-.4-2-.36-1.23-1-2.41-1.34-3.85-.14-.72-.15-1.36-.32-1.95s-.38-1.24-.61-1.87a19.33,19.33,0,0,1-1-4c-.21-1.31-.61-2.57-.91-3.86a36.93,36.93,0,0,1-.87-4l-.85-3.94c-1.09-5.29-1.86-10.62-2.52-16s-.89-10.72-1.59-16.08c0-1.43-.07-2.63-.08-4.07a19.2,19.2,0,0,0,.07-2c0-.65-.13-1.32-.13-2,.14-2.71,0-5.35.08-8.08,0-1.38.18-2.68.21-4,0-.67.07-1.37.15-2s.08-1.31.1-2a9,9,0,0,1,.26-2.09,4.55,4.55,0,0,0,.24-1.86c0-.33,0-.68,0-1s.09-.71.13-1l.28-2,.55-4,.28-2a16.92,16.92,0,0,0,.19-2,11.22,11.22,0,0,1,.41-2,2.47,2.47,0,0,0,.1-.89c0-.33,0-.67,0-1,.12-1.44.53-2.71.72-4l.7-4c.23-1.32.41-2.65.66-4,.13-.66.28-1.34.44-2s.25-1.29.34-1.95c.16-1.31.28-2.67.5-4,.42-2.67,1-5.3,1.57-7.92s.84-5.28,1.41-7.94c.14-.66.34-1.35.5-2s.28-1.29.42-2,.32-1.34.51-2a10.75,10.75,0,0,0,.38-1.94c.12-.68.3-1.34.45-2a19.68,19.68,0,0,0,.35-2,10.54,10.54,0,0,1,.6-2,13,13,0,0,0,.35-1.93c.13-.73.37-1.32.53-2l.51-1.94a31.79,31.79,0,0,1,1.21-3.89,27.91,27.91,0,0,1,4.14-7,54.28,54.28,0,0,1,5.5-5.94,48.11,48.11,0,0,1,6.34-5,56.13,56.13,0,0,1,6.87-4.29,54.1,54.1,0,0,1,7.58-2.86,30.29,30.29,0,0,1,4-.84,24.93,24.93,0,0,1,4.07-.3,16.85,16.85,0,0,1,4,.84c.67.18,1.27.4,1.93.58a6.87,6.87,0,0,1,1.91.84l-.39.09a60.86,60.86,0,0,1,4.5-6.11,10.69,10.69,0,0,1,2.93-2.48c1.06-.65,2-1.49,3.08-2.19a15,15,0,0,1,1.72-.83l1.71-.81a19.17,19.17,0,0,1,3.58-1.3,36.06,36.06,0,0,1,3.71-.81c.62-.11,1.24-.19,1.85-.31a10.85,10.85,0,0,1,1.91-.26,54.75,54.75,0,0,1,7.57.36,33.23,33.23,0,0,1,7.34,1.93,30,30,0,0,1,6.6,3.72,21.42,21.42,0,0,1,2.9,2.46,33.78,33.78,0,0,1,2.73,2.63l-.36.11a14.54,14.54,0,0,1,.93-3.31c.21-.52.47-1,.69-1.54s.34-1.06.54-1.61c.41-1.13,1.27-1.93,1.73-2.94a10.37,10.37,0,0,1,.89-1.48,8.72,8.72,0,0,1,1.25-1.19,18.4,18.4,0,0,1,2.45-2.37,16.83,16.83,0,0,1,3.1-1.46,31.22,31.22,0,0,1,6.51-2c1.14-.16,2.23-.3,3.38-.43a29.69,29.69,0,0,1,3.41.09,15.48,15.48,0,0,0,1.67,0A12.19,12.19,0,0,1,377,204a11.48,11.48,0,0,1,1.69.33c.54.14,1.09.21,1.65.32l3.35.59a21.54,21.54,0,0,1,3.28.92c1.08.41,2.08.9,3.15,1.29a13.68,13.68,0,0,1,3.06,1.53L393,209a27.45,27.45,0,0,1,6.86-8.07,35.41,35.41,0,0,1,4.38-3c.78-.47,1.64-.73,2.42-1.12a16.73,16.73,0,0,1,2.46-1,12.79,12.79,0,0,1,1.31-.28c.43-.08.85-.18,1.28-.29a22.74,22.74,0,0,1,2.6-.58,15.94,15.94,0,0,1,2.67-.07,19.86,19.86,0,0,1,2.66.21,39,39,0,0,1,10.13,3.11c.81.34,1.64.65,2.44,1.05s1.52.92,2.27,1.37A47.51,47.51,0,0,1,439,203l2.2,1.49a20.36,20.36,0,0,1,2.15,1.57,29,29,0,0,1,3.63,3.89,18.29,18.29,0,0,1,2.7,4.57c.65,1.65,1.22,3.32,1.92,4.94l4.33,9.68,2.13,4.85c.65,1.63,1.54,3.17,2.21,4.81s1.21,3.33,1.92,4.94,1.55,3.18,2.19,4.83c.36.8.6,1.67,1,2.43l.59,1.19a11.08,11.08,0,0,1,.5,1.24c.27.83.63,1.64,1,2.46s.63,1.65.95,2.48l.94,2.48a18,18,0,0,1,.64,2.58c.15.86.47,1.7.55,2.6s.1,1.77.11,2.66c0,1.76.15,3.52.11,5.3a12.2,12.2,0,0,0,.1,2.63c.11.88.06,1.77.12,2.65.11,1.76.28,3.52.27,5.29a51.76,51.76,0,0,0,.15,5.29c.51,3.52.18,7.07.67,10.57a36.05,36.05,0,0,1,.25,5.3,25.72,25.72,0,0,0,.12,2.63l.18,2.65-.11-.06,3-1.12h0a18,18,0,0,1,2.59-1.13c.88-.34,1.74-.73,2.61-1.09s1.72-.77,2.62-1.05l2.68-.88a21.92,21.92,0,0,0,2.62-1,8.92,8.92,0,0,1,1.32-.54l1.36-.37c.87-.33,1.73-.74,2.63-1l2.71-.79h0a9.21,9.21,0,0,1,1.81-.89,8.41,8.41,0,0,1,1-.31,1.72,1.72,0,0,1,1,0l.11.05-.1.05-.15.08,0-.12a6.88,6.88,0,0,0,1.21-.5c.4-.19.84-.29,1.25-.44q1.26-.44,2.55-.75c1.7-.48,3.42-.88,5.14-1.29s3.43-.87,5.12-1.39,3.39-1,5.1-1.43,3.39-1,5.12-1.4a39.38,39.38,0,0,0,5.18-1.09c.85-.26,1.6-.73,2.42-1.06.42-.17.86-.26,1.27-.4a7.59,7.59,0,0,0,1.19-.56l4.7-2.45c3.14-1.62,6.25-3.33,9.45-4.82.79-.39,1.58-.79,2.35-1.22s1.53-.9,2.32-1.29a20.08,20.08,0,0,1,2.47-1c.84-.27,1.65-.63,2.46-1l4.88-2.07c1.63-.69,3.25-1.4,4.93-2a53,53,0,0,1,5.09-1.5c.86-.19,1.71-.47,2.59-.58s1.77-.09,2.63-.25h0a18.89,18.89,0,0,1,6.74-.52,56.65,56.65,0,0,1,6.76.65,33.38,33.38,0,0,1,12.55,4.95,61.35,61.35,0,0,1,5.46,4,20.15,20.15,0,0,1,2.35,2.45,9.08,9.08,0,0,0,1,1.39c.38.41.83.76,1.22,1.18,1.29,1.85,2.51,3.76,3.78,5.64a8.84,8.84,0,0,1,.87,1.45c.23.52.4,1.06.67,1.56A14.53,14.53,0,0,1,622.59,298.15Z"/><path d="M617.35,302.16a4,4,0,0,1-1.33.49c-.47.1-.92.26-1.37.4-.91.29-1.82.58-2.74.84-1.82.54-3.71.86-5.49,1.52a17,17,0,0,0-2.58,1.15l-2.57,1.29-5.09,2.58-5.1,2.56-2.54,1.28-1.31.65a3.21,3.21,0,0,1-1.9.17,9.37,9.37,0,0,1-2.94-1.13,15.79,15.79,0,0,1-2.48-1.74,13.2,13.2,0,0,1-2.08-2.26,7.17,7.17,0,0,1-1.36-3c-.41-2.57,1.38-4.63,3.19-5.62a23,23,0,0,1,5.58-2,44.94,44.94,0,0,1,5.66-1.25l2.82-.4,2.82-.48a38.51,38.51,0,0,1,5.76-.43,40.69,40.69,0,0,1,5.73.32,21.89,21.89,0,0,1,5.54,1.41A11,11,0,0,1,616,300a6.91,6.91,0,0,1,1.06,1,2.94,2.94,0,0,1,.39.6c0,.11.09.22.13.33s0,.11-.09.13Zm0,0,.15-.1s.12-.06.08-.12a3.24,3.24,0,0,0-.13-.33,2.63,2.63,0,0,0-.39-.59,7.42,7.42,0,0,0-1.07-.95,11.18,11.18,0,0,0-2.45-1.44,20.54,20.54,0,0,0-5.54-1.2,34.75,34.75,0,0,0-5.68,0,38.36,38.36,0,0,0-5.59.77l-2.78.67-2.8.58a52.86,52.86,0,0,0-5.42,1.55,24,24,0,0,0-5.1,2,5.21,5.21,0,0,0-1.74,1.61,3.88,3.88,0,0,0-.43,1,2.4,2.4,0,0,0,0,1,8.15,8.15,0,0,0,2.74,4.13,11.4,11.4,0,0,0,4.46,2.63,2,2,0,0,0,.91,0l1.29-.54,2.65-1.12,5.27-2.23,5.26-2.26,2.62-1.1a23.65,23.65,0,0,1,2.69-1c1.83-.6,3.73-.81,5.56-1.32.92-.25,1.83-.53,2.75-.8.45-.14.9-.29,1.37-.39A4,4,0,0,0,617.35,302.16Z"/><path class="cls-4" d="M496.69,302h0S496.67,302,496.69,302Z"/><path d="M496.69,302a.43.43,0,0,1,.62.34.73.73,0,0,1,0,.25v.13l-.39.24v0l0-.13-.05-.12,0-.07,0,0h0l-.65-.46.22-.52.11-.06h0l0,0,0,.06,0,.13.05.13C496.69,301.85,496.75,301.93,496.69,302Zm0,0c-.06,0,0,.11,0,.13l0,.14,0,.13,0,.06,0,0h0l.11-.06.22-.52-.65-.46h0s0,0,0,0a.05.05,0,0,1,0,0l0-.06,0-.13,0-.13v0l-.38.24v.13a1.09,1.09,0,0,0,0,.25A.43.43,0,0,0,496.69,302Z"/><path class="cls-4" d="M501.15,308.56h0Z"/><path d="M501.15,308.56a.33.33,0,0,0,.23-.45,1.06,1.06,0,0,0-.55-.49l.38-.06v1.88l.14-.23a.75.75,0,0,0,.12-.49A.23.23,0,0,0,501.15,308.56Zm0,0a.2.2,0,0,1-.28-.16.7.7,0,0,1,.15-.49l.13,1.32,0,.32.38-.06a1,1,0,0,1-.56-.49A.32.32,0,0,1,501.15,308.56Z"/><path class="cls-4" d="M419.19,202.78a18.72,18.72,0,0,0-4.39.84c-1.34.42-2.71.64-4,1.15-.63.25-1.24.53-1.85.82s-1.51.49-1.83.91a.64.64,0,0,0,.06.88c.4.41.88.1,1.3-.1a41.78,41.78,0,0,1,7.76-2.72,16.15,16.15,0,0,1,2.06-.36c.45,0,1.33.05,1.7-.28C420.75,203.22,419.86,202.73,419.19,202.78Z"/><path d="M419.19,202.78a14.27,14.27,0,0,0-3.56.74l-3.43,1.31c-1.12.43-2,1.07-3.21,1.66a8.79,8.79,0,0,0-.8.37c-.21.09-.44.3-.33.22s.07-.35,0-.39a.39.39,0,0,0-.2-.1c-.11,0-.11,0-.05,0s.49-.23.76-.35.58-.24.87-.36c.58-.23,1.18-.42,1.78-.6a31,31,0,0,1,3.63-.8,35.16,35.16,0,0,1,3.7-.4c.32,0,.62,0,.91,0a1,1,0,0,0,.8-.29.66.66,0,0,0,.19-.39.45.45,0,0,0-.2-.37A1.37,1.37,0,0,0,419.19,202.78Zm0,0a1.4,1.4,0,0,1,.87.22.52.52,0,0,1,.23.39.62.62,0,0,1-.18.43,1.22,1.22,0,0,1-.83.42c-.31,0-.62.06-.91.09-.58.13-1.17.32-1.74.47a15.87,15.87,0,0,0-1.7.63c-1.13.46-2.23.95-3.31,1.44-.55.24-1.08.51-1.62.76l-.79.39c-.29.13-.45.24-.9.42a1.84,1.84,0,0,1-.94.12,1.68,1.68,0,0,1-1-.54,1.6,1.6,0,0,1-.42-1,1.65,1.65,0,0,1,.32-1,2.44,2.44,0,0,1,1.17-.78c.33-.12.64-.21.9-.29a22.31,22.31,0,0,1,3.58-1l1.82-.27c.6-.09,1.19-.23,1.8-.35A31.9,31.9,0,0,1,419.19,202.78Z"/><path class="cls-4" d="M359.23,234.89c-.33,1,.4-1.14,0,0Z"/><path d="M359.23,234.89c0,.05,0,.11.08.19a1.59,1.59,0,0,0,.13.13l0,0,0,0h0c-.28-.14.63.33-.74-.13a.93.93,0,0,1,0-.13h0l-.08-.07c-.24-.19-.41-.37-.37-.47s.08-.08.18-.11l.18,0h.08l0,0a.54.54,0,0,1,.09-.15c1.15-.64,1.25,1.06,1.09.51v.05h-.14C359.51,234.75,359.26,234.78,359.23,234.89Zm0,0c0-.1-.13-.28-.37-.47l-.08-.07h0l0,.06c-.16-.55-.05,1.15,1.1.51a.54.54,0,0,0,.09-.15c0-.05,0,0,0,0l0,0,0,0,.12.13a.24.24,0,0,1,.08.2c0,.1-.28.13-.58.14h-.12s0,.06,0-.13c-1.37-.46-.47,0-.74-.13h.08l.18,0C359.15,235,359.21,234.94,359.23,234.89Z"/><path class="cls-4" d="M300.25,258.88c3.92-2.7-.7.49,0,0Z"/><path d="M300.25,258.88a1.66,1.66,0,0,0,.56-1,3,3,0,0,1,.21-.58.91.91,0,0,1,.15-.23l.09-.09,0,0h0c.51.72-1.12-1.64,1.13,1.63h0l-.05,0a1.61,1.61,0,0,1-1.12.16,3.25,3.25,0,0,0-.62,0,1.18,1.18,0,0,0-.27.06C300.26,258.9,300.12,259,300.25,258.88Zm0,0c-.11.1,0,0,0-.07a.91.91,0,0,0,.15-.23,2.91,2.91,0,0,0,.21-.59,1.64,1.64,0,0,1,.55-1l.06,0h0c2.25,3.26.63.9,1.13,1.63h0l0,0-.12.05a1.07,1.07,0,0,1-.27.06,4.42,4.42,0,0,1-.62,0A1.68,1.68,0,0,0,300.25,258.88Z"/><path class="cls-4" d="M384.5,364.79a.69.69,0,0,0,0-.08.14.14,0,0,1,0,.06Z"/><path d="M384.5,364.79c.18-.39,0-.7-.28-.76a.59.59,0,0,0-.61.29l1.83.83A2.54,2.54,0,0,1,385,365l0-.11a.43.43,0,0,0-.24-.22A.21.21,0,0,0,384.5,364.79Zm0,0a.19.19,0,0,1-.24.12.41.41,0,0,1-.24-.24l0-.1c-.32-.18-.42-.26-.42-.29l1.83.82a.69.69,0,0,1-.65.38C384.49,365.44,384.33,365.16,384.5,364.79Z"/><path class="cls-4" d="M258.22,331.6c1-1.18-.56.64,0,0Z"/><path d="M258.22,331.6c.08-.09,0-.32-.14-.6l-.09-.2,0-.09,0,0s0,0,0,0h0l0,0c.52.51-1.18-1.15,1.4.94-.17.29-.09.13-.12.19h0a.25.25,0,0,1,0,.23c-.07.1-.31,0-.61-.05l-.21-.07-.1,0h-.07l0,0c-.14.1-.29-.29-.2-.2v0h0A.29.29,0,0,0,258.22,331.6Zm0,0a.24.24,0,0,0,0,.23h0v0c.09.08-.06-.3-.19-.2l-.06,0v-.07l0-.09-.09-.2c-.14-.28-.22-.52-.14-.6s.12-.06.23-.05h0c0,.05,0-.1-.12.18,2.58,2.09.88.44,1.41.94h-.06l-.1,0-.21-.06C258.54,331.55,258.29,331.5,258.22,331.6Z"/><path class="cls-4" d="M264.58,339.3c1.64-1.71-.59.62,0,0Z"/><path d="M264.58,339.3c.13-.11.09-.39,0-.71a2.76,2.76,0,0,1-.08-.44s0-.07,0-.09v0h0v0s0,0-.07.09c1.69,3,1.43.4,1.43,1.23l0,0h0a.34.34,0,0,1-.06.12c-.12.14-.39.11-.72,0a2.69,2.69,0,0,0-.44-.06h-.15s0,0,0,0,0,0-.07,0h0A.26.26,0,0,0,264.58,339.3Zm0,0a.45.45,0,0,0-.06.12h0s.06,0-.07,0v0s0,0,0,0v0a.19.19,0,0,0,0-.08,2.87,2.87,0,0,0-.09-.44c-.09-.33-.13-.6,0-.72a.35.35,0,0,1,.12-.07h0l0,0c0,.83-.26-1.81,1.43,1.24l-.08.09h-.15a2.65,2.65,0,0,1-.44-.07C265,339.2,264.7,339.17,264.58,339.3Z"/><path class="cls-5" d="M236.35,443l4.16,25.91-.77,17.22L233.05,500s29.56,10.47,46.26,6.62,19.89-6.45,43.53.23,26.11,10.36,40,1.88,32.64-18.24,35.72-20.81,6.77,2.3,6.77,2.3L407,472.75l11.14-27.95-69.47,3-83.51.77L236.35,443"/><path d="M428.37,442.86l-5.92-.76a166.1,166.1,0,0,0-23.64-1.65c-2,0-4,.14-6.08.37l-1.55.18-1.62.29a10.52,10.52,0,0,0-1.71.44l-1.34.4-.52.17a5.15,5.15,0,0,1-.64.13l-1.32.25c-.91.15-1.86.26-2.8.39-1.9.2-3.82.4-5.76.54-7.74.62-15.56.83-23.36.93s-15.62.08-23.51.48c-2,.13-4,.2-5.94.43-1,.09-2,.21-3,.27l-2.78.18c-3.73.18-7.55,0-11.36-.18-7.64-.46-15.33-1.19-23-2.1l-5.75-.72-5.76-.76-11.5-1.64-23-3.22-6.28-.88,1.87,5.83.05.14-.16,0,1.28,4c.28.86.54,1.74.8,2.61.63,2.38,1.22,4.79,1.76,7.18a123.76,123.76,0,0,1,2.43,14.19,45.37,45.37,0,0,1-.44,14.06,32.56,32.56,0,0,1-5.67,13l.68,4.25c-.14.17-.27.36-.42.53.15-.13.29-.28.44-.42l.07.45c3.94-3.29,7-10.92,8.83-15.75.91-2.43.9-6.1,1.33-8.67.19-1.29.35-2.59.41-3.87s.12-2.57.15-3.85a103.54,103.54,0,0,0-1.11-15.18c-.27-1.85-.59-3.67-.92-5.49,13.33,2.47,26.68,4.61,40.21,6.07,7.81.86,15.66,1.48,23.62,1.67a101.72,101.72,0,0,0,12.15-.43l3.13-.39c1-.13,1.87-.27,2.82-.41,1.83-.32,3.73-.5,5.6-.73s3.8-.34,5.7-.5,3.82-.25,5.74-.33c3.84-.19,7.7-.34,11.57-.42,7.74-.17,15.5-.27,23.37-.49,2-.05,3.95-.15,5.95-.26a39.26,39.26,0,0,0,6.42-.8l1.49-.38a6.05,6.05,0,0,1,1.07-.25l1.25-.2,1.35-.12c1.81-.16,3.71-.21,5.61-.23,3.8,0,7.66.11,11.51.31l3.6.19c-.44.72-.88,1.44-1.31,2.17a91.74,91.74,0,0,0-5.72,11.28,37.72,37.72,0,0,0-2,6.23,18.22,18.22,0,0,0-.4,3.46,30.67,30.67,0,0,0,.34,3.23,73,73,0,0,1,.56,12.1l.65.15a44.06,44.06,0,0,1-.27,4.43,40.41,40.41,0,0,0,1.06-6.09c0-.41.07-.83.1-1.24.23-1.07.42-2.14.57-3.22A56.9,56.9,0,0,0,408,478c0-.29,7.09-4.89,15.14-11.72S456,442.25,456,442c-7.11,7.84,17.5-12.8,21.07-18.06,12.15-17.93-67.06,47.92-66.79,47.4a96.76,96.76,0,0,1,6.4-10.25,41.42,41.42,0,0,0,3.52-7.48l1-1.36.63,0-.24-.56c1.05-1.42,2.12-2.83,3.19-4.19Z"/><rect class="cls-6" width="627.54" height="534.26"/></g></g></svg>