<svg xmlns="http://www.w3.org/2000/svg" viewBox="0 0 627.54 534.26"><defs><style>.cls-1{fill:#f7d3c0;}.cls-1,.cls-2,.cls-3,.cls-5,.cls-6{fill-rule:evenodd;}.cls-2{fill:#fff5ee;}.cls-3{fill:#f7f2e7;}.cls-4,.cls-5{fill:#010101;}.cls-6{fill:#fff;}.cls-7{fill:none;}</style></defs><g id="Ebene_2" data-name="Ebene 2"><g id="Ebene_2-2" data-name="Ebene 2"><polygon class="cls-1" points="56.1 411.08 69.87 453.48 100.85 493.94 127.36 517.1 153.76 525.01 183.61 506.99 192.54 506.03 205.03 512.18 235.24 501.8 248.75 478.77 265.73 483.81 266.24 505.42 277.9 517.26 282.95 518.07 315.9 502.07 328.18 496.14 363.51 484.67 381.81 470.06 387.77 444.86 386 422.57 379.71 402.66 366.42 383.14 359.88 370.21 337.09 349.73 344.58 335.38 348.92 320.28 342.16 295.28 330.32 270.72 318.88 252.54 302.76 241.18 272.33 239.48 241.59 246.67 224.17 254.32 205.99 265.76 177.31 268.57 165.23 268.79 141.82 284.48 132.27 303.21 116.54 317.27 103.5 326.98 93.51 339.97 84.58 359.35 79.81 368.71 70.05 375.36 58.8 388.3 55.98 396.46 56.1 411.08"/><polygon class="cls-2" points="117 329.15 104.66 339.94 99.39 351.73 104.39 358.26 116.22 351.56 124.08 340.62 125.86 332.45 117 329.15"/><polygon class="cls-2" points="152.49 287.38 150.41 304.14 157.43 306.63 168.91 299.17 178.37 285.29 185.25 281.04 180.15 277.13 162.06 280.98 152.49 287.38"/><polygon class="cls-2" points="71.07 402.35 68.39 393.28 78.9 381.68 88.85 385.77 88.33 400.71 75.55 402.51 71.07 402.35"/><polygon class="cls-2" points="266.42 307.24 267.8 314.31 287.98 309.07 310.2 307.14 327.3 312.6 331.6 313.29 328.38 303.81 324.02 301.96 302.83 298.23 281.8 300.86 266.42 307.24"/><polygon class="cls-1" points="56.1 411.08 69.87 453.48 100.85 493.94 127.36 517.1 153.76 525.01 183.61 506.99 192.54 506.03 205.03 512.18 235.24 501.8 248.75 478.77 265.73 483.81 266.24 505.42 277.9 517.26 282.95 518.07 310.41 504.74 294.71 472.5 313.9 464.52 337.04 451.82 350.68 447.97 360.18 439.12 365.45 427.41 358.55 423.93 340.55 413.03 327.42 402.31 322.97 390.26 330.46 377.02 351.12 373.41 363.26 376.9 359.88 370.21 337.09 349.73 344.58 335.38 348.92 320.28 342.16 295.28 339.18 289.09 340.46 307.11 337.62 326.47 322.02 339.98 291.55 345.94 265.68 343.96 248.51 324.99 241.82 299.89 243.58 272.82 252.28 254.27 286.4 245.79 312 247.7 302.76 241.18 272.33 239.48 241.59 246.67 224.17 254.32 205.99 265.76 185.33 267.78 212.7 278.09 221.13 302.16 219.99 323.28 237 345.2 258.27 370.72 277.18 401.64 279.26 419.54 264.14 434.69 242.81 442.05 226.88 433.93 195.91 392.32 184.55 361.67 180.43 340.45 166.23 329.15 148.83 332.32 146.44 354.39 152.27 372.97 174.84 392.13 196.31 427.46 210.96 456.61 209.45 468.99 196.18 477.71 176.71 478.12 163.05 466.83 141.44 435.82 128.33 408.88 121.35 391.89 111.32 385.05 97.12 389.42 96.15 401.82 101.67 413.9 121.86 423.79 136.83 459.43 153.87 482.18 152.4 493.48 132.07 503.04 115.58 495.44 86.51 461.46 68.88 424.64 71 410.13 62.33 395.24 60.45 386.4 58.8 388.3 55.98 396.46 56.1 411.08"/><polygon class="cls-1" points="56.1 411.08 69.87 453.48 100.85 493.94 127.36 517.1 153.76 525.01 183.61 506.99 192.54 506.03 205.03 512.18 235.24 501.8 248.75 478.77 263.22 483.06 267.62 477.78 313.41 456.29 327.63 452.28 338.09 443.07 349.47 439.52 351.8 437.35 342.9 434.23 343.54 432 350.87 431.69 352.15 427.23 337.75 420.53 318.31 412.54 311.71 392.04 321.49 369.85 347.7 361.19 350.07 361.4 337.09 349.73 338.24 347.52 329.95 353.25 308.27 361.51 271.75 359.11 259.84 361.51 277.98 390.3 286.51 420.44 282.79 446.21 257.01 458.83 239.68 455.41 219.19 429.35 195.58 395.87 181.91 367.8 174.22 346.14 166.56 339.68 155.63 346.62 155.1 361.8 169.87 374.14 184.56 388.73 212.82 434.2 229.71 466.89 220.12 483.44 193.91 492.1 174.52 482.98 147.52 449.94 127.93 414.35 116.24 394.23 106.19 391.63 100.78 401.58 108.38 409.73 123.43 414.19 139.16 447.4 164.24 487.13 163.68 503.44 147.54 514.14 131.31 511.32 109.9 495.37 85.03 465.79 71.13 444.47 63.19 413.79 56.05 405.16 56.1 411.08"/><polygon class="cls-1" points="186.03 266.26 184.68 266.43 164.51 266.54 163.82 266.54 141.02 282.05 140.51 282.4 131.32 300.74 114.59 316.27 104.13 323.42 103.82 323.63 93.27 336.91 93.12 337.09 82.36 360.39 77.94 368.02 69.06 373.53 65.87 377.47 65.87 378.34 79.73 379.3 92.5 370.16 96.62 348.26 106.76 332.33 119.54 323.19 135.79 324.23 145.18 315.94 146.08 290.09 159.93 277.64 185.56 270.87 186.03 266.26"/><polygon class="cls-2" points="307.94 473.98 283.54 481.11 267.82 487.85 266.42 501.69 276.12 517.52 286.17 516.96 314.71 502.01 321.12 494.49 317.53 479.79 307.94 473.98"/><polygon class="cls-3" points="274.06 485.17 267.82 487.85 266.42 501.69 276.12 517.52 285.89 516.98 279.23 506.92 275.5 496.09 275.18 485.82 274.06 485.17"/><path class="cls-4" d="M390.23,429.26l-3.48-12.6-6.49-13.56-18.8-31.9L337,345.78l-2.9,4.45L331.49,352l27.08,20.79,18.28,32.66,5.81,21-.69,9.14-3.57,5.09-6.58-5-1.16.33,7.06,9.26,2.19,5.35-.07,2.52L375.11,446l-7-5.52-5.35-2.64-.85.73,4.53,3.87,4.53,5.82,4.21,8.49,1.55,8.09-.53,2.25-7,9.15-21.12,10.64L330,492.49l-3.33-2.61-3.87-11.47L319,472.86l-6.38-3-10.08,2.52-9,3.51-17,6.6,1.35-3.53,6.47-3.77,9.22-4.75,3.53-1.82,8.25-4.53,18.1-8.62,8.22-11.69,0-.2,6.21-4.49-1.21-2.95-6.12,2.67-2.08-2.57,9.67-7.5-.26-4.06-15.31,1.41-13.62-14.3-6.66-15.15L301,385.87l.19-7,.45-1.59,5.58-6.59,5.42-6.41,10.7-4.49-.74-2-11.08,3.67-11.76,11.75-2.76,6.2-1.54,5.07-2-3.21-1-1.59,1-1.85,5.25-9.93,9.7-7.48-5.44.19-8.83.81-.68-.12-27.92-4.77-9.29-1.59,9.29,13.85,5.58,8.34,22.34,37.72,2.59,4.39,7.65,19.18-1,8.64-9.26,9.83-.05.05-19.52,11.48-8.35,1.31-9.31,1.46-10.18-4.95-8.31-8.1-15-18L215,428.65l-19.26-28.51-13.61-25.46-8.3-14.19-5.4-14.28-1.38.2,1.86,15.76,5.84,9.06-3,2-10.78-8-3.63-2.7-1.26,1.07,4.89,5.21,19.69,21L187.63,406l25.06,39.4,2.31,3.1,12.54,16.79,8,8.64,3,7.72-3.16,10-13.16,10.55L215,503.55,202.61,506l-14.51-5.73-16-14.87-11-13.18-9.09-10.86-16.75-27-11.8-22.63-13.16-13.38L108,396.17l-1.64.92,3.82,6.93,3.43,6.22-3.43-1L102.55,407l-.92,1.87,8.58,4.31,7.21,3.62,5.3,2.36,7.88,18.46L144.12,466,161,485.88l3.68,4.31,8,7.6-.26,8.63-8,8.11L161,515.68l-12.09,4.06-23.24-7.66-15.47-12.87-4-3.36L73.25,456.24l-13.14-43.5,6.65-10.19,7.73-4.42-.67-1-8.13,2.81-6.89,6.93.48-5.38,10-10.64,11.62-5v-1.61l-13.46,3.21L59,394.73l.11-1.45,13-16.22,9.19-5.71,5.06-8.74.05-.09L97,339.59,107,327l3.18-2.17,7.15-4.88.17-.12,17.22-16,.3-.28,9-18L161,274l4.23-2.87,19.66-.1h.17l20.22-2.62.42-.05,9.29-5.1,15.83-8.7,3-6.08-1.7.28-17.1,9.3-10.72,5.83-19.6,2.53-20.17.11h-.69L161,268.45l-20,13.6-.51.35-9.19,18.34-16.73,15.53-4.38,3-6.08,4.16-.31.21L93.27,336.91l-.15.18-10.76,23.3L77.94,368l-8.88,5.51L54.51,391.47l-1.06,16L67.28,459l.14.52,33.06,42.16,9.73,8.64,10.11,9,.4.4,31,8.72.94.3,8.31-3.45L171.46,521,188,509.46l16.26,7.25.75.33,10-2.59,12.48-3.23,14.43-10.34,8.23-12.49,5.63,1.57,8.29,18.45,1.53,1.86,5.88,7.13,7.15,3.93,14.89-5.48,3.62-1.34,25.93-13,10-2,17.05-5.9,23.35-10.26,12.25-12.21,5.23-25.29Zm-76.67,70.85L308.73,503,295,510.2l-1.47.49-13.32,4.48-3.78-3.88-3.1-5.53-2.85-9.28.72-7.14,22.33-8.29,4.25-1.58,8.26-1.86,4.66,1.47,3.35,5.23,2.53,10.57Z"/><polygon class="cls-4" points="176.01 279.12 163.15 278.92 162.77 279.01 161.01 280.1 151.7 285.88 145.27 300.07 146.53 301.04 154.9 289.33 161.01 285.54 164.56 283.33 176.76 280.55 176.01 279.12"/><polygon class="cls-4" points="265.59 457 254.64 460.76 255.1 462.11 265.59 460.36 274.15 458.94 285.44 451.46 292.72 439.37 291.73 438.63 282.47 447.91 272.13 454.76 265.59 457"/><polygon class="cls-4" points="276.05 433.5 265.59 439.42 259.7 442.75 246.14 449.82 246.62 451.01 261.9 446.79 265.59 444.71 278.03 437.67 285.04 431.16 284.74 429.93 276.05 433.5"/><polygon class="cls-4" points="161.01 291.29 154.03 301.96 154.63 302.74 161.01 296.74 163.94 293.99 174.84 288.45 174.24 287.38 161.51 290.54 161.01 291.29"/><polygon class="cls-4" points="117.84 330.28 110.21 333.04 105.47 334.76 96.96 346.74 97.93 347.29 108.06 337.71 110.21 336.41 118.53 331.39 117.84 330.28"/><polygon class="cls-4" points="215 475.74 209.16 479.28 200.6 483.67 185.5 488.13 186.18 489.44 201.35 487.15 211.2 483.42 215 480.32 226.54 470.92 225.3 469.48 215 475.74"/><polygon class="cls-4" points="208.03 494.58 198.86 495.97 199.18 496.8 208.37 497.29 215 495.31 218.83 494.17 231.14 481.33 230.3 480.31 216.74 490.01 215 490.92 208.03 494.58"/><polygon class="cls-4" points="155.31 508.22 146.07 513.01 146.86 514.95 157.66 511.76 161.01 507.38 163.72 503.84 162.41 502.65 161.01 503.75 155.31 508.22"/><polygon class="cls-4" points="108.76 342.02 104.49 348.57 105.71 349.49 110.21 345.19 110.68 344.74 115.93 340.85 115.23 339.62 110.21 341.48 108.76 342.02"/><polygon class="cls-4" points="160.59 489.57 153.68 497.08 145.41 502.84 133.77 506.84 134.14 509.35 147.51 506.98 156.72 500.57 161.01 491.52 161.42 490.65 161.01 490.12 160.59 489.57"/><polygon class="cls-5" points="269.48 258.34 284.93 250.31 301.06 254.76 301.06 256.33 285.48 255.67 269.66 259.57 269.48 258.34"/><path class="cls-5" d="M324.88,287.53l-6-6.31-10-4.94-12.59-2.44-6-1.17-8.63.69-10.7,2.45-7.51,4.39-5.11,8.59,5.6,30.67,13.45-5.15,18.7-3.92.21,0,19.53,2,17.68,4.42Zm-27,16.55-1.65.26-17.58,2.71-8.91,3.05-5.49-20.47,2.38-6.44,6.43-3.72,9.11-2.65,8.3-.76,5.76.77,4.28.57,8,2.64,7.71,3.09,5.52,6L328.23,310l-8.78-3.59Z"/><polygon class="cls-5" points="229.23 250.4 226.34 256.27 229.11 255.31 235.81 251.84 228.51 258.54 229.85 259.07 239.77 251.96 245.39 249.38 249.4 248.61 254.63 247.21 276.4 242.66 273.07 244.13 255.17 256.48 256.51 257.79 275.9 248.41 293.91 245.06 304.36 246.53 310.72 251.17 317.19 255.9 332.81 283.41 343.56 308.35 345.6 324.28 336.5 343.29 320.45 356.05 297.5 360.36 273.44 357.75 250.56 344.61 238.13 317.77 235.67 297.63 236.45 285.28 242.08 273.33 241.21 272.94 233.67 284.66 233.31 286.78 229.82 269.72 227.87 275.07 229.18 294.73 230.02 323.93 243.88 351.44 270.8 368.14 295.64 369.46 314.96 365.12 324.59 364.01 334.58 354.87 343.81 348.07 345.86 341.85 349.28 332.15 351.04 325.89 348.67 308.28 337.23 281.62 321.31 253.05 313.17 247.15 301.68 238.84 300.83 238.89 276.14 236.99 252.66 241.38 232.37 248.38 229.23 250.4"/><polygon class="cls-6" points="273.75 492.29 274.39 498.71 306.81 486.17 310.93 484.87 307.53 482.13 299.96 482.45 273.75 492.29"/><polygon class="cls-5" points="222 264.8 218.38 274.87 221.85 289.91 233.15 320.87 233.54 309.6 224.15 286.71 221.26 275.69 222 264.8"/><polygon class="cls-2" points="83.58 421.37 80.47 433.15 103.92 473.42 122.71 492.45 138.44 490.83 146.33 481.38 130.02 453.25 112.5 428.87 95.6 417.47 83.58 421.37"/><polygon class="cls-2" points="137.5 378.4 129.95 393.27 144.34 429.97 168.06 462.68 187.27 469.84 201.06 461.67 198.98 443.77 183.23 415.12 163.02 390.1 147.25 377.66 137.5 378.4"/><polygon class="cls-2" points="191.71 326.79 188.04 339.09 193.44 370.08 215.32 409.21 236.17 431.01 255.21 427.35 271.24 417.1 268.2 395.92 244.52 362.13 222.71 336.52 209.63 324.17 191.71 326.79"/><polygon class="cls-2" points="270.25 321.42 266.69 330.48 277.71 340.05 300.92 340.86 319.45 336.1 327.44 323.95 320.1 317.75 301.8 315.5 282.78 318.62 270.25 321.42"/><polygon class="cls-6" points="272.33 282.58 269.87 288.85 273.36 306.93 283.52 305.03 279.2 289.55 281.02 280.26 272.33 282.58"/><polygon class="cls-2" points="328.57 471.91 331.89 483.99 343.86 484.03 363.24 474.99 372.2 464.82 368.83 454.24 357.3 452.34 335.24 462.79 328.57 471.91"/><polygon class="cls-2" points="351.63 378.84 344.81 381.59 352.94 405.81 365.37 414.1 374.34 414.04 373.61 402.79 362.55 387.45 356.44 380.5 351.63 378.84"/><rect class="cls-7" width="627.54" height="534.26"/></g></g></svg>